<?xml version="1.0" encoding="UTF-8" standalone="no"?>
<!-- Created with Inkscape (http://www.inkscape.org/) -->

<svg
   width="167.13193mm"
   height="36.145767mm"
   viewBox="0 0 167.13193 36.145767"
   version="1.1"
   id="svg5"
   inkscape:export-filename="test.svg"
   inkscape:export-xdpi="96"
   inkscape:export-ydpi="96"
   inkscape:version="1.2.2 (732a01da63, 2022-12-09)"
   sodipodi:docname="image-5.svg"
   xmlns:inkscape="http://www.inkscape.org/namespaces/inkscape"
   xmlns:sodipodi="http://sodipodi.sourceforge.net/DTD/sodipodi-0.dtd"
   xmlns="http://www.w3.org/2000/svg"
   xmlns:svg="http://www.w3.org/2000/svg">
  <sodipodi:namedview
     id="namedview7"
     pagecolor="#ffffff"
     bordercolor="#000000"
     borderopacity="0.25"
     inkscape:showpageshadow="2"
     inkscape:pageopacity="0.0"
     inkscape:pagecheckerboard="0"
     inkscape:deskcolor="#d1d1d1"
     inkscape:document-units="mm"
     showgrid="false"
     inkscape:zoom="0.74564394"
     inkscape:cx="397.64288"
     inkscape:cy="561.9304"
     inkscape:window-width="1920"
     inkscape:window-height="1017"
     inkscape:window-x="-8"
     inkscape:window-y="-8"
     inkscape:window-maximized="1"
     inkscape:current-layer="layer1" />
  <defs
     id="defs2" />
  <g
     inkscape:label="Layer 1"
     inkscape:groupmode="layer"
     id="layer1"
     transform="translate(-21.434039,-85.204656)">
    <g
       aria-label="Kenji Sonohara"
       id="text236"
       style="font-weight:bold;font-size:25.4px;font-family:'Antro Vectra';-inkscape-font-specification:'Antro Vectra Bold';stroke-width:0.264583">
      <path
         d="m 36.029278,88.877749 0.156308,-0.371231 0.175846,-0.547077 -0.01954,-0.605692 -0.332154,-0.175846 -0.254,0.07815 -0.39077,0.254 -0.234461,0.332154 c -0.01954,0.07815 -0.09769,0.195384 -0.117231,0.273538 l -0.05862,0.07815 -0.09769,0.390769 -0.11723,0.234462 -0.07815,0.195384 -0.09769,0.254 c -0.01954,0.117231 -0.07815,0.254 -0.09769,0.371231 l -0.136769,0.468923 -0.195385,0.508 c 0,0.05862 -0.03908,0.117231 -0.03908,0.175846 l -0.117231,0.312616 c 0,0.03908 -0.03908,0.136769 -0.03908,0.175846 l -0.332154,0.801077 -0.175846,0.293077 -0.117231,0.390769 c -0.03908,0.136769 -0.156308,0.371231 -0.234461,0.527538 l -0.05862,0.07815 -0.195384,0.508 -0.175847,0.410308 -0.01954,0.07815 -0.332154,0.762 v -0.01954 l -0.586154,1.035539 -0.214923,0.254 v 0.05862 l -0.214923,0.332154 c 0,0.01954 -0.03908,0.117231 -0.03908,0.156308 l -0.01954,0.03908 -0.156308,0.293076 -0.410308,0.683847 -0.09769,-0.254 -0.117231,-0.214923 -0.09769,-0.273539 -0.03908,-0.05861 -0.01954,-0.09769 -0.03908,-0.156307 -0.09769,-0.273539 -0.234461,-0.586154 -0.03908,-0.07815 -0.156308,-0.449385 c -0.05861,-0.156308 -0.254,-0.371231 -0.468923,-0.351692 -0.488461,0.05862 -0.449384,0.410307 -0.449384,0.508 v 0.156307 c 0,0.09769 0.03908,0.293077 0.09769,0.429847 l 0.05861,0.195384 0.371231,0.820615 0.03908,0.07815 0.273538,0.488462 0.05862,0.136769 0.273538,0.410308 c 0.03908,0.117231 0.09769,0.214923 0.175846,0.293077 l -0.547077,0.449384 -0.332153,0.254 -0.273539,0.234462 -0.371231,0.390769 -0.273538,0.254 -0.175846,0.21493 -0.214923,0.23446 -0.312616,0.29307 -0.11723,0.13677 -0.07815,0.0782 -0.05862,0.0781 -0.527538,0.52754 -0.07815,0.0977 -0.429846,0.42985 -0.136769,0.11723 -0.332154,0.31261 -0.293077,0.29308 -0.254,0.23446 -0.175846,0.17585 -0.801077,0.74246 c -0.05862,0.0782 -0.195385,0.254 -0.273539,0.33215 l -0.429846,0.42985 -0.214923,0.23446 -0.371231,0.46892 -0.703384,1.016 -0.195385,0.3517 -0.07815,0.13677 c -0.175846,0.31261 -0.312615,0.68384 -0.37123,0.87923 l -0.07815,0.29307 -0.175846,0.70339 -0.03908,0.58615 0.01954,0.254 0.03908,0.21492 c 0.136769,0.31262 0.293077,0.41031 0.468923,0.44939 0.136769,0.0195 0.332154,0 0.449385,-0.11723 l 0.644769,-0.56662 0.429846,-0.54707 0.820615,-0.84016 0.234462,-0.27354 0.136769,-0.19538 c 0.07815,-0.13677 0.195385,-0.27354 0.273539,-0.41031 l 0.195384,-0.19538 0.312616,-0.35169 c 0.37123,-0.52754 0.820615,-1.21139 1.191846,-1.75847 l 0.508,-0.6643 0.566615,-0.80108 c 0.390769,-0.52754 0.801077,-1.11369 1.172308,-1.66077 l 0.136769,-0.21492 0.273539,-0.41031 c 0,-0.0195 0.01954,-0.0586 0.01954,-0.0781 l 0.351692,-0.42985 0.136769,-0.27354 0.07815,-0.13677 0.09769,-0.15631 0.195384,-0.23446 0.09769,-0.13677 c 0,0 0,-0.0391 0.01954,-0.0586 l 0.175846,-0.293081 0.09769,-0.195385 c 0,-0.01954 0.07815,-0.136769 0.13677,-0.234462 l 0.195384,0.175847 0.03908,0.07815 0.03908,0.175847 0.195385,0.11723 c 0,0.03908 0,0.03908 0.01954,0.03908 0,0.01954 0.07815,0.07815 0.09769,0.09769 l 0.586153,0.84015 0.07815,0.0977 0.156308,0.21492 c 0.488461,0.66431 0.996461,1.32862 1.524,1.95385 l 0.488461,0.70338 0.312616,0.27354 0.195384,0.15631 c 0.05862,0.0781 0.117231,0.13677 0.195385,0.19538 l 0.03908,0.0782 0.214923,0.17584 0.03908,0.0586 0.01954,0.0391 c 0.351693,0.41031 0.64477,0.74247 1.191847,1.15277 l 0.312615,0.23446 0.09769,0.0782 0.05862,0.0586 c 0.03908,0.0195 0.09769,0.0977 0.136769,0.11723 l 0.156308,0.11724 0.195384,0.1563 0.293077,0.17585 0.468923,0.35169 0.234462,0.19539 0.234461,0.1563 0.156308,0.0977 0.410308,0.19538 0.37123,0.254 0.117231,0.0391 0.957385,0.56661 0.09769,0.0586 0.136769,0.0977 0.273539,0.11723 c 0.468923,0.29308 1.016,0.52754 1.524,0.78154 l 0.586154,0.29308 0.273538,0.13677 0.683846,0.37123 c 0.312616,0.13677 0.742462,0.35169 1.074615,0.48846 l 0.01954,0.0391 0.195385,0.11724 0.07815,0.0782 0.234462,0.11723 0.175846,0.0782 0.390769,0.0586 c 0.03908,0.0195 0.07815,0.0195 0.175846,0.0195 l 0.195385,0.0391 0.07815,-0.0195 0.234461,-0.0391 0.117231,-0.23446 -0.03908,-0.0977 -0.11723,-0.0977 -0.293077,-0.0391 c -0.03908,0 -0.09769,-0.0195 -0.13677,-0.0391 l -0.293077,-0.0977 c -0.05861,-0.0391 -0.175846,-0.0782 -0.234461,-0.0977 l -0.801077,-0.4103 -0.117231,-0.0782 -0.117231,-0.0586 -0.293076,-0.13677 c -0.01954,0 -0.07815,-0.0391 -0.09769,-0.0391 l -0.390769,-0.15631 -0.508,-0.31261 -0.254,-0.0977 -0.488461,-0.31262 c -0.07815,-0.0195 -0.293077,-0.11723 -0.39077,-0.15631 l -0.937846,-0.62523 -0.547077,-0.19538 -0.410307,-0.21492 c -0.07815,-0.0391 -0.156308,-0.11724 -0.234462,-0.15631 -0.03908,-0.0391 -0.117231,-0.0586 -0.156308,-0.0977 l -0.429846,-0.29308 -0.273538,-0.15631 -0.117231,-0.13677 -0.468923,-0.27354 -0.234462,-0.13677 -0.410307,-0.39077 -0.13677,-0.11723 c -0.01954,0 -0.07815,-0.0195 -0.09769,-0.0391 l -0.488461,-0.37123 -0.156308,-0.15631 -0.117231,-0.15631 -0.195384,-0.19538 -0.410308,-0.33216 -0.547077,-0.52754 -0.722923,-0.70338 -0.03908,-0.0586 -0.234462,-0.23446 -0.312615,-0.37123 c -0.156308,-0.17584 -0.136769,-0.15631 -0.175846,-0.17584 l -0.508,-0.56662 -0.234462,-0.27354 c -0.156307,-0.13677 -0.312615,-0.33215 -0.468923,-0.46892 -0.07815,-0.0586 -0.156307,-0.15631 -0.234461,-0.27354 l -0.175846,-0.254 c -0.01954,0 -0.07815,-0.0391 -0.09769,-0.0586 -0.214923,-0.29307 -0.390769,-0.56661 -0.586154,-0.87923 -0.156307,-0.19538 -0.566615,-0.722935 -0.996461,-1.328628 l -0.09769,-0.195384 0.03908,-0.01954 c 0,0 0.07815,-0.07815 0.09769,-0.117231 l 0.175846,-0.136769 0.175846,-0.156308 0.234462,-0.175846 0.195384,-0.136769 0.175846,-0.136769 0.13677,-0.156308 0.273538,-0.214923 0.195385,-0.156308 0.371231,-0.254 0.195384,-0.156307 0.117231,-0.117231 0.214923,-0.136769 0.09769,-0.07815 0.410308,-0.312615 0.273538,-0.214924 0.293077,-0.175846 0.156308,-0.156307 0.468923,-0.293077 0.293077,-0.214923 0.254,-0.195385 0.664308,-0.625231 0.449384,-0.332154 0.801077,-0.547077 0.136769,-0.11723 1.504462,-1.035539 0.429846,-0.254 0.136769,-0.11723 0.527539,-0.351693 0.996461,-0.605692 0.13677,-0.09769 0.175846,-0.07815 0.273538,-0.195385 0.156308,-0.136769 c 0.371231,-0.234462 0.742461,-0.468923 1.152769,-0.703385 l -0.01954,0.01954 0.175846,-0.05862 0.429846,-0.175846 c 0.09769,-0.05862 0.117231,-0.117231 0.214923,-0.175846 l 0.136769,-0.05861 0.488462,-0.293077 0.351692,-0.273539 0.644769,-0.332154 0.175846,-0.05861 0.273539,-0.175846 c 0.547077,-0.293077 1.094154,-0.547077 1.660769,-0.801077 0.01954,-0.01954 0.07815,-0.01954 0.117231,-0.03908 l 0.156308,-0.03908 0.410307,-0.156308 0.449385,-0.214923 0.332154,-0.175846 0.429846,-0.156307 c 0.683846,-0.234462 1.328615,-0.351693 1.973384,-0.468923 0.449385,-0.07815 0.918308,-0.175847 1.367693,-0.293077 l 0.332154,-0.07815 0.195384,-0.07815 0.234462,-0.03908 h 0.11723 l 0.234462,-0.01954 0.195385,-0.195385 -0.03908,-0.07815 -0.13677,-0.156308 -0.293076,-0.03908 h -0.07815 l -0.332154,0.03908 -0.195385,0.03908 -0.722923,0.13677 -0.117231,0.01954 C 52.7542,85.4782 52.7542,85.4782 52.73466,85.4782 l -0.156308,0.01954 -0.390769,0.05862 c -0.781539,0.117231 -1.563077,0.234461 -2.325077,0.547077 -0.429846,0.214923 -0.468923,0.214923 -0.566616,0.234461 l -0.644769,0.234462 -0.214923,0.117231 -0.449385,0.175846 -0.37123,0.175846 -0.156308,0.07815 -0.332154,0.09769 -0.273538,0.136769 -0.234462,0.175846 -0.05861,0.03908 -0.234462,0.09769 -0.254,0.175846 -0.136769,0.07815 -0.136769,0.01954 -0.859693,0.410308 -0.527538,0.351692 -0.312615,0.156308 -0.996462,0.527538 -0.117231,0.117231 -0.09769,0.05862 -0.175846,0.05862 -0.410308,0.254 -0.234461,0.156307 -0.664308,0.39077 -0.156308,0.11723 -0.273538,0.117231 -0.05862,0.01954 -1.055076,0.762 -0.117231,0.03908 -0.390769,0.273538 c -0.09769,0.07815 -0.13677,0.07815 -0.214923,0.136769 l -0.664308,0.449385 -0.05862,0.01954 -0.62523,0.410308 -0.195385,0.136769 -0.351692,0.234462 -0.254,0.195384 -0.175846,0.156308 -1.348154,0.859692 -0.05862,0.07815 -0.62523,0.429846 -0.195385,0.156308 -0.488461,0.351692 -0.13677,0.13677 -0.273538,0.214923 c -0.371231,0.312615 -0.664308,0.605692 -1.035539,0.918307 l -0.390769,0.312616 -0.136769,0.09769 c 0.214923,-0.332154 0.410308,-0.703385 0.664308,-1.211385 l 0.05862,-0.05861 0.683846,-1.387231 0.05862,-0.117231 0.332153,-0.781538 0.07815,-0.195385 0.05862,-0.11723 c 0,-0.01954 0.01954,-0.05862 0.01954,-0.09769 l 0.156308,-0.312615 c 0.07815,-0.156308 0.156307,-0.390769 0.234461,-0.547077 l 0.234462,-0.449385 0.07815,-0.11723 0.05862,-0.13677 0.371231,-0.742461 0.03908,-0.05862 c 0.07815,-0.195385 0.214923,-0.429847 0.293077,-0.625231 l 0.175846,-0.371231 0.07815,-0.117231 0.03908,-0.117231 0.11723,-0.37123 z m -8.108461,13.364311 -0.195385,0.27354 -0.429846,0.62523 -0.293077,0.42984 -0.175846,0.19539 -0.175846,0.254 -0.07815,0.13677 -0.820615,1.1723 -0.293077,0.41031 -0.39077,0.48846 -0.273538,0.31262 -1.191846,1.28954 c -0.05862,0.0977 -0.156308,0.19538 -0.214923,0.29307 l -0.801077,0.87923 c 0.01954,-0.0781 0.03908,-0.13676 0.03908,-0.21492 l 0.05861,-0.23446 c 0.01954,-0.17585 0.05862,-0.35169 0.07815,-0.42985 l 0.195385,-0.46892 0.273538,-0.44938 0.371231,-0.62523 0.429846,-0.58616 0.175846,-0.17584 0.214923,-0.31262 0.09769,-0.11723 0.117231,-0.17585 0.371231,-0.46892 0.234462,-0.23446 0.175846,-0.23446 0.09769,-0.13677 0.605692,-0.64477 0.156308,-0.11723 c 0.273538,-0.31262 0.605692,-0.64477 0.859692,-0.95739 l 0.05862,-0.0977 0.273538,-0.27354 c 0.234462,-0.254 0.547077,-0.52754 0.801077,-0.762 l 0.625231,-0.54707 z"
         style="fill:#ffffff"
         id="path534" />
      <path
         d="m 42.008035,101.4996 0.214923,-0.21493 0.136769,-0.19538 c 0.03908,-0.0391 0.07815,-0.13677 0.117231,-0.17585 l 0.136769,-0.13677 0.195385,-0.21492 0.254,-0.27354 0.214923,-0.19538 0.136769,-0.136773 0.293077,-0.273539 c 0.01954,-0.01954 0.07815,-0.07815 0.09769,-0.117231 0.03908,-0.03908 0.07815,-0.03908 0.117231,-0.07815 l 0.312616,-0.234462 0.05862,-0.01954 0.312615,-0.175847 0.254,-0.214923 0.351693,-0.214923 0.07815,-0.03908 0.429847,-0.195384 0.03908,-0.03908 0.234461,-0.117231 0.136769,-0.05862 c 0.293077,-0.156308 0.742462,-0.351693 1.172308,-0.449385 l 0.117231,-0.01954 0.136769,-0.01954 h 0.214923 c 0.01954,0 0.03908,0.01954 0.07815,0.03908 l 0.156308,0.09769 c 0,0.01954 0.01954,0.01954 0.03908,0.03908 l -0.09769,0.273539 -0.03908,0.09769 c 0,0.03908 0,0.03908 -0.01954,0.07815 -0.01954,0.03908 -0.09769,0.117231 -0.117231,0.136769 l -0.801077,0.625231 -0.195384,0.156308 -0.13677,0.07815 c -0.195384,0.09769 -0.468923,0.273539 -0.664307,0.371231 l -0.410308,0.175846 -0.429846,0.234464 -0.429846,0.13677 -0.195385,0.0781 -0.195385,0.0586 -0.214923,0.0586 c -0.195384,0.0195 -0.449384,0.0781 -0.644769,0.0977 -0.01954,0 -0.05862,0.0391 -0.07815,0.0391 -0.312615,0.11723 -0.488461,0.19538 -0.801077,0.56661 l -0.01954,0.15631 0.01954,0.19539 0.254,0.11723 h 0.175847 l 0.332153,-0.0195 0.586154,-0.0977 0.351693,-0.13677 0.527538,-0.23446 0.254,-0.17585 0.566615,-0.27354 0.09769,-0.0586 c 0.449384,-0.23447 0.87923,-0.48847 1.348153,-0.801079 l 0.117231,-0.01954 0.117231,-0.09769 0.605692,-0.371231 0.234462,-0.156307 0.195384,-0.175846 0.234462,-0.175847 0.254,-0.293076 0.07815,-0.254 0.05861,-0.195385 0.01954,-0.214923 -0.01954,-0.07815 -0.03908,-0.214923 c -0.03908,-0.156308 -0.136769,-0.234462 -0.254,-0.332154 l -0.214923,-0.117231 c -0.03908,-0.01954 -0.09769,-0.05862 -0.214923,-0.09769 -0.07815,0 -0.195384,-0.01954 -0.273538,-0.01954 h -0.293077 c -0.05862,0 -0.117231,0.01954 -0.175846,0.01954 h -0.195385 l -0.429846,0.09769 c -0.136769,0.03908 -0.273539,0.117231 -0.586154,0.214923 l -0.254,0.03908 -0.09769,0.01954 -0.175846,0.09769 -0.508,0.254 -0.234462,0.175846 c -0.468923,0.273539 -0.898769,0.605693 -1.309077,0.898769 l -0.07815,0.05862 -0.03908,0.01954 -0.293077,0.156308 -0.156307,0.09769 -0.156308,0.13677 c -0.01954,0.03908 -0.07815,0.07815 -0.09769,0.11723 l -0.03908,0.03908 -0.273539,0.254 -0.175846,0.156308 -0.234461,0.214928 -0.273539,0.19538 -0.351692,0.41031 -0.254,0.29308 -0.214923,0.35169 c -0.03908,0.11723 -0.09769,0.17585 -0.136769,0.29308 l -0.13677,0.254 -0.136769,0.48846 v 0.17585 l -0.01954,0.1563 0.01954,0.29308 0.05862,0.27354 0.09769,0.254 0.273538,0.39077 0.488462,0.23446 0.488461,0.0781 0.371231,-0.0391 0.371231,-0.0782 0.117231,-0.0195 0.332154,-0.0977 c 0.175846,-0.0391 0.312615,-0.0586 0.390769,-0.0977 l 0.117231,-0.0391 0.332153,-0.0586 0.332154,-0.11723 0.312616,-0.0977 0.390769,-0.0781 0.625231,-0.31262 c 0.09769,-0.0391 0.195384,-0.11723 0.293076,-0.1563 0.254,-0.0977 0.527539,-0.19539 0.762,-0.29308 l 0.175847,-0.0782 0.175846,-0.0391 0.488461,-0.19539 0.89877,-0.42984 0.05861,-0.0586 c 0.156308,-0.0586 0.312615,-0.1563 0.468923,-0.23446 l 0.234462,-0.11723 0.742461,-0.33215 c 0.07815,-0.0586 0.214923,-0.11723 0.254,-0.13677 l 0.195385,-0.0977 c 0,0 0.07815,-0.0586 0.11723,-0.0782 l 0.508,-0.254 h 0.03908 l 0.117231,-0.0391 0.09769,-0.0782 0.13677,-0.0781 0.156307,-0.0977 0.410308,-0.23446 0.03908,-0.0195 0.254,-0.175846 0.410308,-0.254 0.11723,-0.07815 0.156308,-0.07815 c 0.136769,-0.07815 0.273539,-0.293077 0.214923,-0.410308 -0.05861,-0.136769 -0.214923,-0.136769 -0.332154,-0.136769 -0.136769,0.01954 -0.195384,0.03908 -0.273538,0.09769 -0.07815,0.03908 -0.09769,0.03908 -0.234462,0.136769 l -0.390769,0.214923 -0.898769,0.547077 -0.117231,0.0977 -0.586154,0.27354 -0.293077,0.0977 -0.195384,0.0977 -0.07815,0.0195 -0.273539,0.13677 -0.781538,0.37123 c -0.273538,0.11723 -0.566615,0.27354 -0.918308,0.42985 l -0.05862,0.0195 -0.664308,0.23447 -0.214923,0.0391 -0.214923,0.0977 -1.152769,0.48847 -0.117231,0.0195 -0.175846,0.0977 -0.703385,0.23446 -0.332153,0.13677 -1.367693,0.31261 -0.293077,0.0391 h -0.254 l -0.273538,-0.0782 c -0.293077,-0.0586 -0.390769,-0.0782 -0.429846,-0.13677 -0.05862,-0.11723 -0.05862,-0.254 -0.03908,-0.31262 0,-0.11723 0.01954,-0.39077 0.01954,-0.52754 l 0.195385,-0.39077 c 0,-0.0195 0,-0.0195 0.01954,-0.0195 z"
         style="fill:#ffffff"
         id="path536" />
      <path
         d="m 50.956615,101.32375 -0.293077,0.44938 -0.03908,0.0782 -0.175846,0.23446 -0.117231,0.21492 -0.410308,0.54708 -0.136769,0.21492 c -0.254,0.31262 -0.273538,0.56662 -0.254,0.72293 0.05861,0.17584 0.136769,0.35169 0.371231,0.4103 l 0.175846,-0.0195 0.371231,-0.254 0.11723,-0.11723 0.586154,-0.60569 0.351693,-0.37123 0.234461,-0.17585 0.254,-0.29307 0.05861,-0.0586 0.09769,-0.0781 0.156307,-0.0977 0.03908,-0.0195 0.273539,-0.254 0.05861,-0.0586 0.156308,-0.0977 0.175846,-0.11723 c 0.07815,-0.0586 0.234462,-0.23446 0.312615,-0.31262 l 0.234462,-0.1563 0.195385,-0.17585 0.195384,-0.19538 0.09769,-0.0391 0.273538,-0.19539 0.175846,-0.0781 0.195385,-0.0977 0.136769,-0.0782 c 0.05862,-0.0195 0.07815,-0.0586 0.07815,-0.0586 0.05861,-0.0195 0.156307,-0.0391 0.214923,-0.0391 0.117231,0.0391 0.156308,0.19539 0.136769,0.39077 0,0.0391 -0.01954,0.11723 -0.01954,0.15631 l -0.195385,0.68384 -0.117231,0.41031 -0.07815,0.23446 v 0.23447 c 0,0.13676 0,0.254 0.01954,0.35169 0.05862,0.23446 0.214923,0.44938 0.410308,0.54707 l 0.07815,0.0391 h 0.01954 c 0.175846,0.0782 0.371231,0.15631 0.586154,0.15631 l 0.195384,0.0195 0.117231,-0.0391 0.234462,0.0195 0.214923,-0.0195 0.195384,-0.0586 0.175846,-0.0391 c 0.117231,0 0.195385,-0.0195 0.234462,-0.0391 l 0.05862,-0.0195 0.07815,-0.0195 0.07815,-0.0391 0.136769,-0.0195 0.234462,-0.0391 0.214923,-0.0391 0.175846,-0.0782 c 0.07815,-0.0391 0.175846,-0.11723 0.254,-0.13677 l 0.273539,-0.0782 0.273538,-0.15631 c 0.05862,-0.0586 0.175846,-0.11723 0.254,-0.17585 h 0.03908 l 0.859692,-0.42984 0.312616,-0.17585 c 0.273538,-0.13677 0.488461,-0.23446 0.644769,-0.33215 l 0.234461,-0.11723 0.293077,-0.19539 0.195385,-0.0782 0.293077,-0.21492 c 0.195384,-0.0977 0.390769,-0.21493 0.625231,-0.39077 l 0.351692,-0.23446 0.195384,-0.13677 0.03908,-0.214927 -0.05861,-0.09769 -0.117231,-0.09769 h -0.214923 l -0.254,0.175846 -0.09769,0.03908 -0.254,0.156311 -0.117231,0.0782 -0.664308,0.39077 -0.547077,0.254 -0.175846,0.0977 -0.156307,0.13677 -0.13677,0.0977 -0.429846,0.21492 -0.09769,0.0195 -0.254,0.17584 -0.664308,0.31262 -0.332154,0.11723 h -0.05862 l -0.586154,0.23446 -0.293077,0.11723 -0.156307,0.0195 c -0.05862,0.0195 -0.175847,0.0781 -0.254,0.0977 l -0.13677,0.0195 -0.351692,0.15631 c -0.332154,0.0586 -0.586154,0.0781 -0.820615,0.0586 l -0.175846,-0.0782 c -0.01954,0 0,0 -0.01954,-0.0195 l -0.07815,-0.13677 -0.01954,-0.0977 c -0.01954,-0.0195 -0.05862,-0.13677 -0.07815,-0.19538 l -0.01954,-0.0977 -0.03908,-0.1563 c 0,-0.0586 0.01954,-0.0977 0.01954,-0.15631 l 0.117231,-0.48846 v -0.19539 l 0.01954,-0.13677 0.03908,-0.23446 0.01954,-0.19538 v -0.17585 l -0.05862,-0.332155 -0.175846,-0.254 -0.273538,-0.195385 -0.429847,-0.01954 h -0.07815 c -0.13677,-0.01954 -0.468923,0.11723 -0.625231,0.175846 -0.05862,0.01954 -0.117231,0.07815 -0.175846,0.09769 l -0.312616,0.175846 -0.07815,0.01954 -0.508,0.332158 -0.05862,0.0391 -0.293077,0.21492 -0.07815,0.0782 -0.312615,0.21493 -0.03908,0.0781 -0.05861,0.0782 -0.508,0.46892 -0.254,0.23446 -0.03908,0.0195 0.156307,-0.23446 c 0.03908,-0.0586 0.09769,-0.254 0.13677,-0.3517 l 0.312615,-0.44938 c 0.09769,-0.15631 0.254,-0.41031 0.371231,-0.56662 l 0.117231,-0.117231 0.03908,-0.13677 0.273538,-0.351692 0.09769,-0.195385 0.09769,-0.214923 0.195384,-0.293077 0.371231,-0.801076 c 0.117231,-0.234462 0.234462,-0.449385 0.312615,-0.722924 0.13677,-0.488461 -0.05862,-0.801076 -0.566615,-0.801076 -0.214923,0 -0.468923,0.175846 -0.527538,0.351692 -0.03908,0.117231 -0.03908,0.214923 -0.03908,0.371231 0,0.09769 0.01954,0.234461 -0.01954,0.410307 -0.05862,0.234462 -0.136769,0.488462 -0.175846,0.586154 l -0.371231,0.703385 -0.273538,0.547077 -0.05862,0.07815 -0.09769,0.156307 -0.449385,0.742461 -0.214923,0.31262 -0.136769,0.23446 -0.136769,0.23446 c 0,0.0195 -0.01954,0.0391 -0.01954,0.0391 z"
         style="fill:#ffffff"
         id="path538" />
      <path
         d="m 63.598013,103.0236 0.09769,-0.0586 c 0.01954,0 0.156308,-0.0586 0.214923,-0.0781 l 0.175846,-0.0782 0.371231,-0.17584 0.195385,-0.0782 0.156307,-0.0391 0.429847,-0.19539 0.09769,-0.0195 0.136769,-0.0391 0.195385,-0.0391 0.195384,-0.0977 0.117231,-0.0586 0.175846,-0.0391 0.05862,-0.0391 0.09769,-0.0391 0.214923,-0.0391 c 0.01954,0 0.01954,-0.0195 0.01954,-0.0195 0.01954,0 0.07815,-0.0195 0.09769,-0.0195 l 0.332154,-0.0977 c 0.01954,0 0.09769,-0.0586 0.136769,-0.0781 l 0.332154,-0.0586 0.293077,-0.0977 0.429846,-0.0391 0.312615,-0.0586 0.117231,-0.0195 0.136769,-0.0195 0.371231,-0.0391 0.175846,-0.11723 0.05862,-0.11724 -0.05862,-0.11723 -0.195385,-0.11723 h -0.449384 l -0.234462,0.0195 h -0.214923 l -0.175846,0.0586 -0.468923,0.0782 c -0.214923,0.0391 -0.468923,0.0977 -0.762,0.17585 l -0.195385,0.0391 -0.05861,0.0195 -0.175846,0.0391 -0.136769,0.0586 -0.01954,0.0195 h -0.05862 l -0.214923,0.0586 -0.429846,0.15631 h -0.03908 l -0.156308,0.0195 -0.234462,0.0977 -0.11723,0.0195 -0.273539,0.17584 h -0.05862 l -0.175846,0.0977 -0.449385,0.19539 -0.09769,0.0391 -0.566616,0.254 -0.136769,0.0781 v -0.0195 l 0.156308,-0.254 0.05862,-0.13677 c 0,-0.0195 0,-0.0391 0.01954,-0.0782 l 0.234461,-0.508 0.01954,-0.0391 0.03908,-0.0977 0.11723,-0.19539 v -0.0977 c 0.195385,-0.508 0.39077,-1.03554 0.508,-1.465383 l 0.13677,-0.547077 0.01954,-0.09769 v -0.03908 c 0.05862,-0.351693 0.136769,-0.801077 0.117231,-1.074616 v -0.175846 c -0.156308,-0.332154 -0.390769,-0.508 -0.683846,-0.410308 l -0.508,0.332154 -0.117231,0.254 0.03908,0.371231 c 0.03908,0.03908 0.07815,0.136769 0.117231,0.214923 l 0.03908,0.234462 v 0.09769 l -0.01954,0.117231 0.01954,0.37123 c 0,0.07815 -0.01954,0.156308 -0.01954,0.234462 l -0.136769,0.312615 -0.07815,0.566622 -0.05861,0.31261 -0.09769,0.15631 -0.05862,0.29308 c 0,0.0391 -0.01954,0.0977 -0.01954,0.11723 l -0.05861,0.21492 -0.03908,0.13677 -0.136769,0.27354 -0.09769,0.17584 c 0,0.0195 -0.03908,0.0977 -0.03908,0.13677 l -0.09769,0.19539 -0.37123,0.60569 c -0.03908,0 -0.117231,0.0781 -0.175847,0.11723 l -0.136769,0.0586 -0.293077,0.0781 -0.07815,0.0586 -0.156307,0.0391 -0.09769,0.0391 -0.214923,0.13677 -0.07815,0.11723 -0.07815,0.0391 -0.07815,0.0977 c 0,0 -0.175846,0.0977 -0.234462,0.11723 l -0.09769,0.0391 -0.136769,0.0977 -0.05862,0.0586 -0.214923,0.15631 -0.11723,0.0195 -0.410308,0.23446 -0.371231,0.21493 -0.09769,0.0977 -0.07815,0.0977 -0.07815,0.0586 -0.117231,0.1563 -0.156307,0.11723 -0.09769,0.0782 -0.195384,0.0977 -0.156308,0.11723 -0.01954,0.0195 -0.175847,0.0781 -0.156307,0.15631 -0.117231,0.17585 c -0.351692,0.23446 -0.703385,0.48846 -1.035538,0.762 l -0.332154,0.254 -0.05862,0.0781 -0.449384,0.33215 -0.175846,0.13677 -0.214924,0.13677 -0.09769,0.11723 -0.312615,0.31262 -0.918308,0.84015 -0.156308,0.11723 -0.136769,0.15631 -0.195384,0.13677 -0.254,0.19539 -0.13677,0.19538 -0.195384,0.254 -0.312616,0.254 c 0,0.0195 -0.03908,0.0977 -0.03908,0.13677 l -0.156307,0.15631 -0.175846,0.11723 -0.234462,0.19538 v 0.0586 l -0.07815,0.0977 -0.03908,0.0782 -0.156307,0.15631 -0.468923,0.56662 -0.09769,0.0782 -0.254,0.33215 v 0.0195 l -0.214923,0.17585 -0.136769,0.27354 -0.156308,0.1563 -0.117231,0.0977 -0.175846,0.27354 c -0.03908,0.0586 -0.07815,0.1563 -0.09769,0.21492 l -0.136769,0.13677 -0.488462,0.72292 -0.117231,0.21492 -0.429846,0.6057 -0.312615,0.4103 -0.547077,0.78154 c -0.117231,0.21493 -0.273538,0.41031 -0.390769,0.62523 l -0.312616,0.46893 -0.136769,0.19538 -0.468923,0.762 -0.332154,0.52754 -0.351692,0.84015 -0.07815,0.21493 -0.09769,0.56661 0.03908,0.35169 0.117231,0.19539 c 0.05862,0.13677 0.214923,0.21492 0.390769,0.21492 l 0.488461,-0.0586 c 0.07815,-0.0195 0.234462,-0.0782 0.332154,-0.13677 0.117231,-0.0586 0.312616,-0.13677 0.429846,-0.17585 l 0.234462,-0.15631 0.586154,-0.42984 0.07815,-0.0586 0.371231,-0.31261 0.117231,-0.19539 0.625231,-0.66431 0.195384,-0.23446 0.13677,-0.11723 0.586153,-0.60569 0.05862,-0.0586 0.117231,-0.1563 0.11723,-0.13677 0.234462,-0.23446 0.09769,-0.0586 0.136769,-0.15631 0.371231,-0.42984 0.07815,-0.0977 0.722923,-0.762 0.449385,-0.44938 0.156307,-0.13677 c 0,-0.0195 0,-0.0391 0.01954,-0.0782 l 0.371231,-0.37123 0.214923,-0.15631 0.11723,-0.15631 0.371231,-0.37123 0.07815,-0.0977 0.117231,-0.15631 0.898769,-1.03554 0.293077,-0.33215 0.371231,-0.41031 0.371231,-0.33215 0.234461,-0.33216 0.195385,-0.254 0.351692,-0.44938 0.07815,-0.13677 0.05862,-0.13677 0.351693,-0.44939 0.468923,-0.54707 0.11723,-0.0977 0.371231,-0.52754 0.03908,-0.0782 0.136769,-0.19538 0.136769,-0.19539 0.39077,-0.52753 c 0,-0.0195 0.03908,-0.0586 0.05861,-0.0782 0.527539,-0.66431 1.094154,-1.34815 1.582615,-2.032 l 0.13677,-0.17584 0.234461,-0.19539 0.175846,-0.23446 0.13677,-0.13677 0.195384,-0.27354 0.214923,-0.35169 0.175846,-0.41031 0.07815,-0.19538 0.03908,-0.0977 0.156308,-0.254 c -0.01954,0.0391 0.07815,-0.0977 0.117231,-0.17584 l 0.05861,-0.0391 c 0.07815,-0.0391 0.07815,-0.0586 0.254,-0.13677 l 0.136769,-0.0391 0.156308,-0.0782 0.05862,-0.0586 c 0.07815,-0.0391 0.312616,-0.13677 0.273539,-0.11723 z m -12.270154,13.24707 -0.664308,0.64477 -0.07815,0.0977 -0.234462,0.23446 -0.214923,0.23447 -0.234462,0.19538 -0.214923,0.254 -0.195384,0.19539 -0.234462,0.19538 -0.429846,0.46892 -0.136769,0.11723 -0.429846,0.42985 c -0.136769,0.0781 -0.273539,0.19538 -0.410308,0.27354 -0.136769,0.0586 -0.234461,0.13677 -0.371231,0.19538 -0.03908,0 -0.07815,0.0195 -0.09769,0.0195 0,0 -0.03908,-0.0391 -0.05862,-0.0391 l 0.01954,-0.21492 c 0,-0.0391 0.01954,-0.17584 0.03908,-0.21492 l 0.07815,-0.11723 0.156308,-0.44939 0.234461,-0.42984 0.390769,-0.508 0.566616,-1.03554 0.996461,-1.46539 0.234462,-0.46892 0.03908,-0.0391 0.214923,-0.31261 0.234461,-0.35169 0.214923,-0.27354 0.13677,-0.21493 0.136769,-0.19538 c 0.722923,-0.97692 1.602154,-1.99292 2.481384,-2.91123 l 0.195385,-0.17585 v -0.0391 l 0.566615,-0.56662 0.117231,-0.0977 0.05862,-0.0781 c 0.273539,-0.27354 0.547077,-0.52754 0.820616,-0.762 l 0.07815,-0.0195 0.175846,-0.23446 c 0.527538,-0.46893 1.074615,-0.93785 1.621692,-1.38724 l 0.351692,-0.27353 0.351693,-0.21493 c 0,-0.0195 0.03908,-0.0586 0.07815,-0.0977 l 0.351692,-0.21492 c 0,-0.0195 0.05862,-0.0977 0.07815,-0.11723 0.156307,-0.0977 0.293077,-0.21493 0.429846,-0.31262 l 0.156308,-0.0782 0.273538,-0.17585 0.175846,-0.15631 0.175846,-0.17584 0.625231,-0.41031 0.07815,-0.0586 0.175846,-0.0977 0.117231,-0.0782 0.07815,-0.0782 0.175846,-0.11723 0.136769,-0.0977 0.03908,-0.0195 0.05862,-0.0586 0.156308,-0.0977 0.351692,-0.19539 -0.05862,0.11723 c -0.371231,0.56662 -0.820615,1.15277 -1.27,1.73892 l -0.293077,0.33216 -0.136769,0.29308 -0.175846,0.1563 -0.214923,0.254 -0.156308,0.17585 -0.254,0.27354 -0.117231,0.21492 -0.136769,0.15631 c -0.03908,0.0782 -0.03908,0.0977 -0.03908,0.0977 l -0.09769,0.0977 -0.09769,0.13677 -0.195384,0.21493 c 0,0.0195 -0.01954,0.0391 -0.01954,0.0586 l -1.13323,1.48492 -0.117231,0.0977 -0.332154,0.33215 -0.195385,0.31261 v 0.0195 l -0.937846,1.15277 -0.195384,0.17585 -0.195385,0.254 -0.234462,0.29308 -0.05861,0.0977 -0.488461,0.48846 c 0,0.0195 0,0.0391 -0.01954,0.0782 l -0.09769,0.11723 -0.429846,0.46893 c -0.527539,0.62523 -1.250462,1.34815 -1.973385,2.01246 z m 14.243538,-22.859998 0.351693,-0.175846 0.293077,-0.117231 0.214923,-0.136769 0.175846,-0.117231 0.05861,-0.05862 0.293077,-0.234462 c 0,-0.01954 0.05862,-0.11723 0.07815,-0.156307 l 0.09769,-0.07815 0.117231,-0.351692 -0.03908,-0.175847 -0.273538,-0.273538 -0.312616,-0.01954 -0.312615,0.156308 -0.410308,0.175846 -0.03908,0.03908 -0.214923,0.195385 h -0.03908 l -0.09769,0.117231 -0.293077,0.234461 -0.234461,0.273539 c 0,0.01954 -0.03908,0.05861 -0.156308,0.175846 -0.156308,0.175846 -0.273539,0.351692 -0.312616,0.488461 -0.03908,0.09769 -0.03908,0.175846 0.01954,0.254 0.05862,0.09769 0.195385,0.156308 0.273538,0.156308 0.05862,0 0.234462,-0.07815 0.351693,-0.156308 z"
         style="fill:#ffffff"
         id="path540" />
      <path
         d="m 72.781093,102.63283 0.07815,-0.0586 0.214923,-0.0781 0.07815,-0.0391 0.117231,-0.11723 c 0.332154,-0.19539 0.683846,-0.44939 1.035538,-0.68385 l 0.09769,-0.0391 0.136769,-0.0391 0.254,-0.21492 0.175846,-0.11723 0.605692,-0.37124 0.312616,-0.1563 0.11723,-0.0977 0.117231,-0.0391 0.214923,-0.23446 -0.01954,-0.17585 -0.156308,-0.13677 -0.214923,-0.0195 -0.117231,0.0977 c -0.175846,0.0977 -0.293077,0.19539 -0.429846,0.27354 l -0.117231,0.0586 -0.07815,0.0391 -0.136769,0.0782 -0.214923,0.11723 -0.07815,0.0782 -0.136769,0.0586 -0.09769,0.0977 h -0.03908 l -0.136769,0.0977 -0.03908,0.0195 -0.175846,0.0977 -0.468924,0.23447 -0.09769,0.0781 -0.312615,0.15631 -0.07815,0.0781 -0.175846,0.11723 -0.136769,0.0782 -0.254,0.1563 -0.117231,0.0782 -0.117231,0.0195 -0.156308,0.0977 -0.254,0.15631 -0.312615,0.17584 -0.156308,0.0782 -0.644769,0.31261 -0.156308,0.0391 -0.312615,0.11723 -0.468923,0.11723 -0.07815,0.0586 -0.312615,0.17584 c 0,0 -0.03908,0.0195 -0.05862,0.0391 l -0.175846,0.0391 -0.175846,0.0586 c -0.156308,0.0195 -0.273538,0.0782 -0.410308,0.0977 H 68.6194 l -0.117231,-0.0195 -0.117231,0.0195 -0.07815,0.0195 -0.13677,-0.0195 h -0.136769 v -0.0586 l 0.03908,-0.23446 v -0.0782 l 0.09769,-0.39077 0.175847,-0.39077 0.03908,-0.0977 0.117231,-0.33215 c 0.01954,-0.0391 0.01954,-0.0586 0.09769,-0.13677 l 0.09769,-0.0977 0.214923,-0.37123 0.09769,-0.15631 0.136769,-0.19539 0.273539,-0.31261 0.293077,-0.33216 c 0.01954,-0.0391 0.05862,-0.0977 0.05862,-0.11723 l 0.195385,-0.11723 c 0,-0.0195 0,-0.0586 0.01954,-0.11723 l 0.13677,-0.13677 0.136769,-0.195383 0.195384,-0.273538 0.371231,-0.371231 0.05862,-0.136769 0.293077,-0.254 0.273539,-0.214923 0.234461,-0.254 0.175847,-0.195385 0.03908,-0.273538 v -0.136769 c -0.156307,-0.195385 -0.312615,-0.214923 -0.449384,-0.254 -0.293077,0 -0.586154,0.156307 -0.703385,0.273538 l -0.214923,0.195385 -0.195384,0.273538 -0.254,0.390769 -0.09769,0.07815 -0.07815,0.156308 -0.09769,0.136769 -0.254,0.312616 -0.09769,0.234461 -0.312616,0.429846 -0.234461,0.273546 -0.05861,0.0977 -0.175847,0.254 c -0.05862,0.0586 -0.11723,0.17585 -0.175846,0.254 l -0.05862,0.0586 -0.07815,0.13677 -0.05862,0.13677 c -0.03908,0.0782 -0.117231,0.15631 -0.156308,0.23446 l -0.09769,0.15631 -0.175847,0.15631 c 0,0 -0.01954,0.0391 -0.01954,0.0586 l -0.136769,0.1563 -0.156308,0.27354 c 0,0.0391 -0.03908,0.0977 -0.03908,0.11723 l -0.156308,0.39077 -0.136769,0.39077 v 0.11723 c -0.05862,0.17585 -0.07815,0.42985 -0.05862,0.56662 l -0.01954,0.1563 0.09769,0.11724 c 0.136769,0.19538 0.293077,0.31261 0.488461,0.37123 l 0.527539,0.0977 0.234461,-0.0586 0.273539,0.0195 0.273538,-0.0391 0.273539,-0.13676 0.312615,-0.0586 0.136769,-0.0391 0.136769,-0.0586 0.273539,-0.15631 c 0.01954,0 0.09769,-0.0391 0.117231,-0.0586 l 0.156307,-0.0586 0.312616,-0.19539 0.07815,-0.0586 0.37123,-0.17585 0.09769,-0.0391 0.195384,-0.11723 c 0.07815,-0.0195 0.175846,-0.0782 0.254,-0.0977 l 0.05862,-0.0391 0.136769,-0.0977 0.156308,-0.0391 0.273538,-0.11723 0.234462,-0.17585 z m 1.719385,-9.612927 c -0.07815,-0.156308 -0.214923,-0.293077 -0.547077,-0.332154 l -0.156308,0.03908 -0.234461,0.117231 -0.293077,0.293077 -0.117231,0.09769 -0.136769,0.09769 -0.175846,0.195385 -0.07815,0.09769 -0.156308,0.214923 -0.273538,0.410308 -0.07815,0.136769 -0.273539,0.644769 -0.01954,0.07815 0.03908,0.254 c 0.136769,0 0.273538,0 0.371231,-0.05862 l 0.136769,-0.09769 0.312615,-0.254 0.351692,-0.312616 c 0.07815,-0.07815 0.234462,-0.175846 0.332154,-0.254 l 0.07815,-0.05862 0.234462,-0.175846 c 0.429846,-0.234462 0.605692,-0.449385 0.703384,-0.664308 0.03908,-0.195385 0.01954,-0.312615 0,-0.429846 z"
         style="fill:#ffffff"
         id="path542" />
      <path
         d="m 108.59512,98.959595 0.0782,0.05862 0.44939,0.273538 0.11723,0.07815 0.42985,0.293077 c 0.21492,0.136769 0.508,0.41031 0.68384,0.56662 l 0.35169,0.56661 0.15631,0.21492 0.0195,0.0586 c 0,0 0.0195,0.0391 0.0391,0.0586 l 0.0195,0.31262 0.0391,0.254 c 0,0.0195 -0.0391,0.11723 -0.0391,0.13677 -0.0391,0.254 -0.13677,0.48846 -0.42985,0.80108 l -0.13677,0.0782 -0.23446,0.15631 -0.17585,0.19538 -0.11723,0.13677 -0.21492,0.15631 -0.15631,0.0781 c -0.0977,0.0782 -0.29308,0.19539 -0.41031,0.27354 l -0.11723,0.0391 -0.19538,0.11723 -0.46893,0.19538 -0.254,0.11723 -0.11723,0.0391 -0.52753,0.29308 -0.23447,0.11723 -0.13677,0.0391 -0.78153,0.37123 -0.70339,0.23446 -0.27354,0.11723 -0.46892,0.11723 -0.13677,0.0977 -0.41031,0.13677 -0.17584,0.0782 -0.6057,0.17584 -0.21492,0.0195 -0.11723,0.0391 -0.35169,0.1563 -0.21492,0.11724 -0.762,0.21492 h -0.11724 l -0.70338,0.23446 -0.39077,0.11723 -0.781538,0.0977 -1.074615,0.3517 -0.293077,0.0977 -0.547077,0.11723 -0.312615,0.0195 -0.254,0.0782 -0.13677,0.0195 -0.449384,0.11723 -1.27,0.254 h -0.449385 l -0.214923,0.0391 -0.195385,0.0195 -0.703384,0.0977 -0.683846,0.0781 -0.254,0.0391 -0.508,0.0195 -0.175846,0.0586 -0.332154,0.0391 h -0.136769 l -0.566616,0.0586 -0.175846,-0.0195 -0.254,-0.0195 -0.254,0.0781 -0.234462,0.0391 -0.722923,0.0391 -0.07815,-0.0195 -0.293077,0.0195 h -0.801077 l -0.195385,-0.0195 -0.09769,0.0195 -0.09769,-0.0391 h -0.254 l -0.09769,0.0195 -0.07815,-0.0195 -0.175846,0.0195 c -0.07815,0 -0.07815,-0.0195 -0.09769,-0.0195 h -0.117231 l -0.371231,-0.0195 c -0.01954,0 -0.03908,-0.0195 -0.05861,-0.0195 -0.527538,-0.0391 -1.035538,-0.11723 -1.524,-0.21492 h -0.03908 l -0.175846,-0.0782 -0.254,-0.0781 -0.625231,-0.15631 h -0.01954 l -0.13677,-0.11723 -0.332153,-0.15631 -0.117231,-0.0586 c -0.01954,0 -0.05862,-0.0195 -0.09769,-0.0195 l -0.09769,-0.0195 -0.175846,-0.17584 -0.293077,-0.254 -0.254,-0.19539 -0.05862,-0.0586 -0.117231,-0.21493 -0.05861,-0.1563 -0.03908,-0.13677 -0.03908,-0.254 v -0.15631 c 0,-0.0391 0.01954,-0.17585 0.03908,-0.23446 l 0.07815,-0.21493 c 0.09769,-0.29307 0.273538,-0.60569 0.449384,-0.84015 l 0.371231,-0.35169 0.195385,-0.19539 0.175846,-0.19538 0.07815,-0.0586 0.03908,-0.0586 0.13677,-0.0782 0.195384,-0.1563 0.273539,-0.23447 0.175846,-0.13676 0.117231,-0.11724 0.03908,-0.0195 0.175846,-0.11723 c 0.136769,-0.0586 0.136769,-0.11724 0.214923,-0.15631 l 0.312615,-0.15631 0.156308,-0.15631 0.03908,-0.11723 v -0.254 l -0.273539,-0.0391 -0.136769,0.0195 -0.156308,0.0782 -0.37123,0.17584 -0.371231,0.254 -0.156308,0.13677 -0.156307,0.15631 -0.273539,0.19538 -0.937846,0.80108 c -0.136769,0.11723 -0.390769,0.37123 -0.508,0.508 l -0.214923,0.254 -0.117231,0.0977 -0.117231,0.11723 c -0.09769,0.0977 -0.136769,0.15631 -0.156307,0.23447 l -0.07815,0.13677 -0.01954,0.0977 c 0,0.0195 -0.01954,0.0586 -0.01954,0.0781 l -0.07815,0.23446 -0.01954,0.13677 v 0.11723 l 0.03908,0.13677 v 0.11723 l 0.07815,0.23446 0.13677,0.27354 0.09769,0.15631 0.01954,0.0781 0.156308,0.3517 0.195385,0.29307 0.234461,0.19539 c 0.234462,0.27354 0.410308,0.35169 0.840154,0.56661 l 0.234462,0.15631 0.07815,0.0195 0.449385,0.11723 c 0,0 0.03908,0.0195 0.05862,0.0195 l 0.879231,0.27354 0.254,0.0391 0.449385,0.0391 0.293077,0.0391 0.05862,0.0195 0.254,0.0195 h 0.293077 l 0.156308,0.0391 0.293077,0.0586 c 0.07815,0 0.175846,0.0391 0.273538,0.0391 l 0.449385,0.0977 0.175846,0.0195 0.449384,-0.0586 0.918308,0.0391 0.254,-0.0391 h 0.07815 l 0.859692,-0.0195 0.195385,-0.0195 0.07815,-0.0391 c 0.664307,-0.0195 1.406769,-0.0586 2.071077,-0.11723 l 0.547076,-0.0391 c 0.195385,-0.0195 0.410308,-0.0782 0.625231,-0.0977 h 0.996462 l 0.801077,-0.0391 0.976923,-0.21492 1.738923,-0.46893 1.289538,-0.27354 0.527533,-0.17584 0.3517,-0.0195 0.52753,-0.17585 0.27354,-0.0781 0.508,-0.19538 0.508,-0.13677 0.0586,-0.0391 0.13677,-0.0195 0.21492,-0.0586 0.72292,-0.21493 0.97693,-0.33215 0.87923,-0.19539 0.64477,-0.21492 0.29307,-0.0782 0.52754,-0.29308 0.56662,-0.23446 0.0977,-0.0391 0.21492,-0.19538 0.64477,-0.31262 h 0.0391 l 1.25046,-0.68384 h 0.0586 l 0.17584,-0.0782 c 0.0391,-0.0391 0.17585,-0.17584 0.254,-0.23446 0.27354,-0.19538 0.48846,-0.33215 0.74246,-0.54708 l 0.19539,-0.19538 c 0.254,-0.21492 0.44938,-0.35169 0.58615,-0.62523 l 0.19539,-0.31262 0.0586,-0.23446 v -0.27354 c 0,-0.0195 -0.0195,-0.0586 -0.0195,-0.0782 0.0195,-0.31262 0,-0.41031 -0.13677,-0.78154 l -0.0586,-0.23446 -0.19539,-0.35169 -0.0977,-0.21493 c -0.0195,0 -0.0586,-0.0782 -0.0782,-0.11723 l -0.23446,-0.332152 -0.254,-0.156307 -0.0586,-0.03908 c -0.13677,-0.09769 -0.19538,-0.13677 -0.33215,-0.195385 -0.0391,-0.01954 -0.11723,-0.03908 -0.17585,-0.09769 l -0.19538,-0.117231 -0.0782,-0.05862 -0.0781,-0.05862 -0.13677,-0.156308 -0.13677,-0.11723 c -0.0195,0 -0.11723,-0.01954 -0.15631,-0.03908 l -0.42984,-0.195385 -0.33216,-0.136769 -0.4103,-0.195385 -0.21493,-0.136769 -0.19538,-0.117231 -0.15631,-0.09769 -0.254,-0.07815 -0.56662,-0.234461 -0.33215,-0.156308 -0.33215,-0.195385 -0.29308,-0.07815 -0.254,-0.05862 -0.23446,-0.05862 -0.68385,-0.312616 -0.21492,-0.136769 -0.0977,-0.03908 -0.44939,-0.214923 h -0.0195 l -0.84015,-0.449384 -0.35169,-0.156308 -0.29308,-0.136769 c -0.0195,0 -0.0586,-0.01954 -0.0977,-0.01954 l -0.33216,-0.175846 -0.29307,-0.195385 c -0.0586,0 -0.11723,-0.01954 -0.17585,-0.03908 l -0.11723,-0.05862 -0.33215,-0.273538 -0.31262,-0.175847 -0.29308,-0.234461 -0.13676,-0.07815 -0.13677,-0.09769 -0.13677,-0.07815 -0.17585,-0.156308 c -0.0391,-0.07815 -0.117228,-0.156307 -0.156305,-0.234461 l -0.01954,-0.07815 -0.136769,-0.156308 c -0.03908,-0.01954 -0.07815,-0.05862 -0.09769,-0.09769 l -0.117231,-0.195385 -0.05862,-0.136769 -0.05862,-0.312615 -0.05861,-0.07815 c 0,-0.03908 -0.01954,-0.09769 -0.01954,-0.136769 l 0.05862,-0.117231 0.156308,-0.214923 0.11723,-0.273539 c 0.09769,-0.195384 0.351687,-0.508 0.566617,-0.742461 l 0.58615,-0.488462 0.21492,-0.156307 1.21139,-0.605693 0.33215,-0.07815 0.15631,-0.05861 0.13677,-0.136769 0.254,-0.136769 c 0.44938,-0.195385 0.762,-0.273539 1.15277,-0.39077 l 0.39077,-0.11723 c 0.11723,-0.01954 0.23446,-0.07815 0.37123,-0.09769 l 0.19538,-0.03908 c 0.19539,-0.01954 0.44939,-0.07815 0.64477,-0.09769 l 0.44939,-0.117231 0.29307,-0.01954 0.33216,-0.05862 0.27354,-0.07815 0.37123,0.01954 c 0.0781,0 0.17584,0.03908 0.254,0.03908 l 0.29307,0.09769 0.17585,0.07815 c 0.0195,0 0.0781,0.01954 0.11723,0.01954 l 0.0977,0.11723 0.0977,0.13677 0.0391,0.234461 0.21493,0.273539 0.23446,0.195384 0.23446,0.03908 0.29308,-0.136769 v -0.195385 l 0.0391,-0.234461 v -0.214923 l 0.0391,-0.234462 v -0.136769 l -0.0586,-0.175846 -0.0195,-0.07815 c -0.0977,-0.234462 -0.27354,-0.390769 -0.42985,-0.508 l -0.11723,-0.03908 c -0.13677,-0.05862 -0.33216,-0.09769 -0.44939,-0.117231 l -0.19538,-0.05862 h -0.19539 l -0.13676,-0.03908 h -0.17585 l -0.254,0.01954 -0.35169,0.07815 -0.254,0.03908 -0.0782,0.01954 -0.35169,0.05862 -0.39077,0.05862 -0.254,0.03908 c -0.0586,0.01954 -0.17584,0.07815 -0.254,0.09769 -0.11723,0.01954 -0.23446,0.07815 -0.35169,0.09769 l -0.23446,0.01954 -0.508,0.09769 -0.15631,0.05862 -0.17585,0.05861 -0.254,0.07815 -0.0586,0.03908 -0.0782,0.01954 -0.13676,0.03908 -0.0782,0.01954 -0.74246,0.312615 -0.0391,0.01954 -0.37123,0.195384 -0.48846,0.273539 -0.29308,0.117231 -0.52753,0.254 -0.13677,0.09769 -0.54708,0.214923 -0.0391,0.03908 -0.17584,0.07815 -0.468925,0.312615 -0.117231,0.09769 -0.332154,0.175846 -0.273538,0.332154 -0.136769,0.156307 -0.273539,0.312616 -0.07815,0.11723 -0.09769,0.156308 -0.136769,0.312615 -0.09769,0.234462 -0.03908,0.254 -0.01954,0.05862 v 0.351693 l 0.03908,0.136769 0.01954,0.234461 0.07815,0.07815 0.01954,0.136769 0.07815,0.07815 0.07815,0.13677 0.07815,0.09769 0.05862,0.07815 0.156307,0.136769 0.07815,0.07815 0.117231,0.175846 0.195385,0.195385 h 0.01954 l 0.195385,0.175846 0.175846,0.09769 0.136769,0.03908 c 0.01954,0 0.03908,0.01954 0.07815,0.03908 l 0.156302,0.07815 0.41031,0.234461 0.15631,0.07815 0.29307,0.195385 0.15631,0.136769 0.254,0.214923 0.19539,0.07815 0.508,0.214923 0.54707,0.175846 0.46893,0.195385 c 0.0781,0.03908 0.23446,0.11723 0.31261,0.136769 l 0.46892,0.254 0.0586,0.01954 0.37123,0.175847 0.21492,0.11723 0.11723,0.07815 0.17585,0.07815 0.39077,0.09769 0.37123,0.136769 0.0391,0.01954 0.42984,0.175846 0.29308,0.117231 0.52754,0.234461 0.23446,0.13677 0.0586,0.03908 0.1563,0.11723 0.19539,0.03908 0.11723,0.01954 c 0.0195,0 0.0195,0.03908 0.0586,0.03908 l 0.33216,0.156307 0.13677,0.05862 0.254,0.195384 h 0.0586 z"
         style="fill:#ffffff"
         id="path544" />
      <path
         d="m 120.18142,100.01467 0.0195,-0.390767 -0.0977,-0.234462 -0.0782,-0.175846 -0.31261,-0.332154 -0.15631,-0.09769 -0.0391,-0.01954 -0.0977,-0.07815 0.13677,-0.05862 0.54708,-0.07815 0.39076,-0.05862 0.37124,0.01954 0.0782,-0.05862 0.15631,-0.03908 c 0.60569,-0.09769 1.21138,-0.175846 2.07107,-0.234461 0.0977,0 0.17585,0 0.23447,-0.01954 0.0781,-0.01954 0.1563,-0.03908 0.25399,-0.03908 l 0.23447,-0.01954 h 0.29307 c 0.29308,0 0.82062,0 1.25046,0.09769 l 0.29308,0.07815 0.13677,0.09769 0.15631,0.07815 v 0.05862 l -0.0782,0.254 -0.13676,0.234461 -0.0782,0.156308 -0.0391,0.136769 -0.0195,0.09769 0.0195,0.234462 0.11724,0.01954 0.23446,-0.05861 0.11723,-0.117231 c 0.0586,-0.05862 0.0977,-0.09769 0.17584,-0.234461 l 0.17585,-0.273539 0.0977,-0.195384 0.0391,-0.195385 -0.0195,-0.234462 -0.0781,-0.156307 -0.254,-0.254 c -0.0195,0 -0.0391,0 -0.0782,-0.01954 -0.0391,-0.03908 -0.0391,-0.07815 -0.21492,-0.117231 h 0.0195 l -0.17585,-0.09769 h -0.0782 l -0.0391,-0.01954 c -0.254,-0.07815 -0.44938,-0.13677 -0.60569,-0.156308 l -0.0977,-0.01954 -0.15631,-0.01954 h -0.0586 l -0.13677,-0.03908 -0.19538,0.01954 -0.21492,-0.01954 H 124.128 l -0.11723,0.01954 h -0.11723 l -0.0782,-0.01954 -0.11723,0.03908 c -0.0586,0 -0.11723,0.01954 -0.17584,0.01954 h -0.19539 c -0.0782,0.01954 -0.15631,0.01954 -0.21492,0.01954 l -0.254,-0.01954 -0.15631,0.01954 h -0.39077 l -0.19538,0.01954 -0.15631,0.01954 -0.31262,0.09769 -0.29307,0.01954 -0.23446,0.05862 -0.46893,0.07815 c -0.0586,-0.03908 -0.15631,-0.09769 -0.23446,-0.117231 l -0.0977,-0.03908 h -0.11723 c -0.13677,-0.01954 -0.33216,0 -0.44939,0.01954 l -0.1563,0.01954 -0.17585,0.01954 -0.15631,0.07815 h -0.0195 l -0.1563,0.07815 -0.23447,0.156308 c -0.0195,0.01954 -0.0977,0.03908 -0.13677,0.05862 l -0.27353,0.03908 -0.0782,-0.01954 -0.37123,0.05862 -0.29308,-0.01954 h -0.29307 c -0.27354,-0.03908 -0.508,-0.05862 -0.78154,-0.05862 l -0.33215,-0.05862 -0.13677,-0.05862 -0.254,0.01954 -0.23447,0.03908 -0.254,0.09769 -0.19538,0.332154 -0.0195,0.234462 0.15631,0.195384 0.15631,0.09769 0.23446,0.05862 0.48846,-0.01954 c 0.17585,0 0.35169,-0.01954 0.48846,-0.03908 0.0586,0 0.0977,-0.01954 0.13677,-0.01954 h 0.29308 l -0.0977,0.05862 -0.0977,0.05862 -0.39077,0.273538 -0.254,0.156308 -0.21492,0.136769 -0.19538,0.13677 h -0.0586 l -0.13677,0.136769 -0.46892,0.351687 -0.0977,0.0782 -0.21493,0.17584 c -0.0391,0.0195 -0.0977,0.0782 -0.11723,0.0977 l -0.0195,0.0195 -0.42984,0.31262 -0.0782,0.0781 -0.19538,0.15631 -0.23446,0.21492 -0.70339,0.70339 -0.17584,0.254 -0.13677,0.23446 -0.0782,0.39077 0.0195,0.17584 0.0586,0.15631 c 0.0391,0.13677 0.29307,0.35169 0.48846,0.44939 l 0.0391,0.0195 c 0.21492,0.0977 0.33215,0.11723 0.42984,0.13676 0.11723,0.0195 0.27354,0.0391 0.44939,0.0391 l 0.37123,0.0195 h 0.13677 l 0.27354,-0.0391 0.11723,-0.0195 0.0586,-0.0586 c 0.19539,-0.0391 0.41031,-0.13677 0.762,-0.27354 l 0.0586,-0.0195 c 0.0195,0 0.0586,-0.0391 0.0782,-0.0586 l 0.0781,-0.0195 0.13677,-0.0391 0.21493,-0.0586 0.0586,-0.0195 0.17585,-0.0782 c 0,0 0.0586,-0.0586 0.0781,-0.0977 l 0.11723,-0.0195 0.13677,-0.13677 0.17585,-0.11723 0.0586,-0.0391 0.11723,-0.0391 0.254,-0.17585 0.0391,-0.0195 c 0.44939,-0.27353 0.87923,-0.54707 1.21139,-0.85969 l 0.19538,-0.15631 0.17585,-0.19538 0.17584,-0.17585 0.21493,-0.1563 0.19538,-0.27354 c 0.0391,-0.0782 0.0781,-0.21493 0.0977,-0.27354 0.15631,-0.37123 0.15631,-0.42985 0.17585,-0.508 z m -1.27,0.68385 -0.13677,0.13677 c 0,0 -0.0195,0.0391 -0.0195,0.0586 l -0.17584,0.17585 -0.19539,0.17585 -0.0586,0.0782 c -0.15631,0.13677 -0.31262,0.29308 -0.46893,0.41031 l -0.0977,0.0781 -0.54708,0.37123 h -0.13677 l -0.37123,0.29308 -0.35169,0.17584 -0.0391,0.0195 c -0.254,0.0977 -0.54707,0.21493 -0.85969,0.31262 -0.62523,0.21492 -0.762,0.27354 -1.36769,0.23446 h -0.0391 l -0.0977,-0.0586 -0.11723,-0.11723 v -0.11723 l 0.0195,-0.0586 0.0195,-0.15631 0.0391,-0.0977 c 0,0 0,-0.0391 0.0195,-0.0586 0.0586,-0.13677 0.15631,-0.29307 0.254,-0.42984 l 0.15631,-0.17585 0.17585,-0.23446 c 0.0195,-0.0391 0.13676,-0.15631 0.17584,-0.19539 l 0.254,-0.19538 0.13677,-0.11723 0.21492,-0.13677 0.21493,-0.19539 0.254,-0.17584 0.11723,-0.0977 c 0.13677,-0.0782 0.27354,-0.19539 0.41031,-0.27354 l 0.0977,-0.0586 0.23446,-0.15631 0.54708,-0.332149 c 0.62523,-0.332154 0.9183,-0.547077 1.13323,-0.683847 l 0.13677,-0.09769 c 0.0195,0.01954 0.0586,0.01954 0.0586,0.01954 l 0.23446,0.136769 0.11723,0.03908 0.11723,0.03908 0.15631,0.09769 0.13677,0.09769 0.0195,0.01954 c 0,0.01954 0.0781,0.156307 0.0977,0.195384 0,0.07815 -0.0195,0.117231 -0.0195,0.175846 l -0.0781,0.214927 v 0.11723 c -0.0782,0.15631 -0.15631,0.31262 -0.31262,0.508 z"
         style="fill:#ffffff"
         id="path546" />
      <path
         d="m 124.44079,101.32375 -0.29308,0.44938 -0.0391,0.0782 -0.17585,0.23446 -0.11723,0.21492 -0.41031,0.54708 -0.13677,0.21492 c -0.254,0.31262 -0.27353,0.56662 -0.254,0.72293 0.0586,0.17584 0.13677,0.35169 0.37123,0.4103 l 0.17585,-0.0195 0.37123,-0.254 0.11723,-0.11723 0.58616,-0.60569 0.35169,-0.37123 0.23446,-0.17585 0.254,-0.29307 0.0586,-0.0586 0.0977,-0.0781 0.15631,-0.0977 0.0391,-0.0195 0.27354,-0.254 0.0586,-0.0586 0.1563,-0.0977 0.17585,-0.11723 c 0.0782,-0.0586 0.23446,-0.23446 0.31262,-0.31262 l 0.23446,-0.1563 0.19538,-0.17585 0.19539,-0.19538 0.0977,-0.0391 0.27354,-0.19539 0.17584,-0.0781 0.19539,-0.0977 0.13677,-0.0782 c 0.0586,-0.0195 0.0781,-0.0586 0.0781,-0.0586 0.0586,-0.0195 0.15631,-0.0391 0.21492,-0.0391 0.11723,0.0391 0.15631,0.19539 0.13677,0.39077 0,0.0391 -0.0195,0.11723 -0.0195,0.15631 l -0.19538,0.68384 -0.11723,0.41031 -0.0782,0.23446 v 0.23447 c 0,0.13676 0,0.254 0.0195,0.35169 0.0586,0.23446 0.21493,0.44938 0.41031,0.54707 l 0.0782,0.0391 h 0.0195 c 0.17585,0.0782 0.37123,0.15631 0.58616,0.15631 l 0.19538,0.0195 0.11723,-0.0391 0.23446,0.0195 0.21493,-0.0195 0.19538,-0.0586 0.17585,-0.0391 c 0.11723,0 0.19538,-0.0195 0.23446,-0.0391 l 0.0586,-0.0195 0.0781,-0.0195 0.0781,-0.0391 0.13677,-0.0195 0.23446,-0.0391 0.21493,-0.0391 0.17584,-0.0782 c 0.0782,-0.0391 0.17585,-0.11723 0.254,-0.13677 l 0.27354,-0.0782 0.27354,-0.15631 c 0.0586,-0.0586 0.17585,-0.11723 0.254,-0.17585 h 0.0391 l 0.85969,-0.42984 0.31261,-0.17585 c 0.27354,-0.13677 0.48847,-0.23446 0.64477,-0.33215 l 0.23446,-0.11723 0.29308,-0.19539 0.19539,-0.0782 0.29307,-0.21492 c 0.19539,-0.0977 0.39077,-0.21493 0.62523,-0.39077 l 0.3517,-0.23446 0.19538,-0.13677 0.0391,-0.214927 -0.0586,-0.09769 -0.11723,-0.09769 h -0.21492 l -0.254,0.175846 -0.0977,0.03908 -0.254,0.156311 -0.11723,0.0782 -0.66431,0.39077 -0.54708,0.254 -0.17585,0.0977 -0.1563,0.13677 -0.13677,0.0977 -0.42985,0.21492 -0.0977,0.0195 -0.254,0.17584 -0.66431,0.31262 -0.33215,0.11723 h -0.0586 l -0.58615,0.23446 -0.29308,0.11723 -0.15631,0.0195 c -0.0586,0.0195 -0.17584,0.0781 -0.254,0.0977 l -0.13676,0.0195 -0.3517,0.15631 c -0.33215,0.0586 -0.58615,0.0781 -0.82061,0.0586 l -0.17585,-0.0782 c -0.0195,0 0,0 -0.0195,-0.0195 l -0.0781,-0.13677 -0.0195,-0.0977 c -0.0195,-0.0195 -0.0586,-0.13677 -0.0781,-0.19538 l -0.0195,-0.0977 -0.0391,-0.1563 c 0,-0.0586 0.0195,-0.0977 0.0195,-0.15631 l 0.11723,-0.48846 v -0.19539 l 0.0195,-0.13677 0.0391,-0.23446 0.0195,-0.19538 v -0.17585 l -0.0586,-0.332155 -0.17585,-0.254 -0.27354,-0.195385 -0.42984,-0.01954 h -0.0782 c -0.13676,-0.01954 -0.46892,0.11723 -0.62523,0.175846 -0.0586,0.01954 -0.11723,0.07815 -0.17584,0.09769 l -0.31262,0.175846 -0.0781,0.01954 -0.508,0.332158 -0.0586,0.0391 -0.29307,0.21492 -0.0782,0.0782 -0.31261,0.21493 -0.0391,0.0781 -0.0586,0.0782 -0.508,0.46892 -0.254,0.23446 -0.0391,0.0195 0.15631,-0.23446 c 0.0391,-0.0586 0.0977,-0.254 0.13676,-0.3517 l 0.31262,-0.44938 c 0.0977,-0.15631 0.254,-0.41031 0.37123,-0.56662 l 0.11723,-0.117231 0.0391,-0.13677 0.27354,-0.351692 0.0977,-0.195385 0.0977,-0.214923 0.19539,-0.293077 0.37123,-0.801076 c 0.11723,-0.234462 0.23446,-0.449385 0.31261,-0.722924 0.13677,-0.488461 -0.0586,-0.801076 -0.56661,-0.801076 -0.21493,0 -0.46893,0.175846 -0.52754,0.351692 -0.0391,0.117231 -0.0391,0.214923 -0.0391,0.371231 0,0.09769 0.0195,0.234461 -0.0195,0.410307 -0.0586,0.234462 -0.13677,0.488462 -0.17584,0.586154 l -0.37123,0.703385 -0.27354,0.547077 -0.0586,0.07815 -0.0977,0.156307 -0.44938,0.742461 -0.21493,0.31262 -0.13677,0.23446 -0.13677,0.23446 c 0,0.0195 -0.0195,0.0391 -0.0195,0.0391 z"
         style="fill:#ffffff"
         id="path548" />
      <path
         d="m 140.5405,100.01467 0.0195,-0.390767 -0.0977,-0.234462 -0.0782,-0.175846 -0.31262,-0.332154 -0.1563,-0.09769 -0.0391,-0.01954 -0.0977,-0.07815 0.13677,-0.05862 0.54707,-0.07815 0.39077,-0.05862 0.37123,0.01954 0.0782,-0.05862 0.1563,-0.03908 c 0.6057,-0.09769 1.21139,-0.175846 2.07108,-0.234461 0.0977,0 0.17585,0 0.23446,-0.01954 0.0782,-0.01954 0.15631,-0.03908 0.254,-0.03908 l 0.23446,-0.01954 h 0.29308 c 0.29308,0 0.82062,0 1.25046,0.09769 l 0.29308,0.07815 0.13677,0.09769 0.15631,0.07815 v 0.05862 l -0.0782,0.254 -0.13677,0.234461 -0.0782,0.156308 -0.0391,0.136769 -0.0195,0.09769 0.0195,0.234462 0.11723,0.01954 0.23446,-0.05861 0.11724,-0.117231 c 0.0586,-0.05862 0.0977,-0.09769 0.17584,-0.234461 l 0.17585,-0.273539 0.0977,-0.195384 0.0391,-0.195385 -0.0195,-0.234462 -0.0782,-0.156307 -0.254,-0.254 c -0.0195,0 -0.0391,0 -0.0781,-0.01954 -0.0391,-0.03908 -0.0391,-0.07815 -0.21492,-0.117231 h 0.0195 l -0.17585,-0.09769 h -0.0781 l -0.0391,-0.01954 c -0.254,-0.07815 -0.44939,-0.13677 -0.60569,-0.156308 l -0.0977,-0.01954 -0.1563,-0.01954 h -0.0586 l -0.13677,-0.03908 -0.19538,0.01954 -0.21493,-0.01954 h -0.13676 l -0.11724,0.01954 h -0.11723 l -0.0781,-0.01954 -0.11723,0.03908 c -0.0586,0 -0.11723,0.01954 -0.17585,0.01954 h -0.19538 c -0.0782,0.01954 -0.15631,0.01954 -0.21492,0.01954 l -0.254,-0.01954 -0.15631,0.01954 h -0.39077 l -0.19539,0.01954 -0.1563,0.01954 -0.31262,0.09769 -0.29308,0.01954 -0.23446,0.05862 -0.46892,0.07815 c -0.0586,-0.03908 -0.15631,-0.09769 -0.23446,-0.117231 l -0.0977,-0.03908 h -0.11724 c -0.13676,-0.01954 -0.33215,0 -0.44938,0.01954 l -0.15631,0.01954 -0.17584,0.01954 -0.15631,0.07815 h -0.0195 l -0.15631,0.07815 -0.23446,0.156308 c -0.0195,0.01954 -0.0977,0.03908 -0.13677,0.05862 l -0.27354,0.03908 -0.0781,-0.01954 -0.37123,0.05862 -0.29308,-0.01954 h -0.29308 c -0.27353,-0.03908 -0.508,-0.05862 -0.78153,-0.05862 l -0.33216,-0.05862 -0.13677,-0.05862 -0.254,0.01954 -0.23446,0.03908 -0.254,0.09769 -0.19538,0.332154 -0.0195,0.234462 0.15631,0.195384 0.1563,0.09769 0.23447,0.05862 0.48846,-0.01954 c 0.17584,0 0.35169,-0.01954 0.48846,-0.03908 0.0586,0 0.0977,-0.01954 0.13677,-0.01954 h 0.29307 l -0.0977,0.05862 -0.0977,0.05862 -0.39077,0.273538 -0.254,0.156308 -0.21492,0.136769 -0.19539,0.13677 h -0.0586 l -0.13677,0.136769 -0.46892,0.351687 -0.0977,0.0782 -0.21492,0.17584 c -0.0391,0.0195 -0.0977,0.0782 -0.11723,0.0977 l -0.0195,0.0195 -0.42985,0.31262 -0.0781,0.0781 -0.19538,0.15631 -0.23447,0.21492 -0.70338,0.70339 -0.17585,0.254 -0.13677,0.23446 -0.0781,0.39077 0.0195,0.17584 0.0586,0.15631 c 0.0391,0.13677 0.29308,0.35169 0.48847,0.44939 l 0.0391,0.0195 c 0.21493,0.0977 0.33216,0.11723 0.42985,0.13676 0.11723,0.0195 0.27354,0.0391 0.44938,0.0391 l 0.37123,0.0195 h 0.13677 l 0.27354,-0.0391 0.11723,-0.0195 0.0586,-0.0586 c 0.19538,-0.0391 0.41031,-0.13677 0.762,-0.27354 l 0.0586,-0.0195 c 0.0195,0 0.0586,-0.0391 0.0782,-0.0586 l 0.0781,-0.0195 0.13677,-0.0391 0.21492,-0.0586 0.0586,-0.0195 0.17585,-0.0782 c 0,0 0.0586,-0.0586 0.0781,-0.0977 l 0.11723,-0.0195 0.13677,-0.13677 0.17585,-0.11723 0.0586,-0.0391 0.11723,-0.0391 0.254,-0.17585 0.0391,-0.0195 c 0.44938,-0.27353 0.87923,-0.54707 1.21138,-0.85969 l 0.19539,-0.15631 0.17584,-0.19538 0.17585,-0.17585 0.21492,-0.1563 0.19539,-0.27354 c 0.0391,-0.0782 0.0781,-0.21493 0.0977,-0.27354 0.15631,-0.37123 0.15631,-0.42985 0.17585,-0.508 z m -1.27,0.68385 -0.13677,0.13677 c 0,0 -0.0195,0.0391 -0.0195,0.0586 l -0.17585,0.17585 -0.19538,0.17585 -0.0586,0.0782 c -0.15631,0.13677 -0.31261,0.29308 -0.46892,0.41031 l -0.0977,0.0781 -0.54708,0.37123 h -0.13677 l -0.37123,0.29308 -0.35169,0.17584 -0.0391,0.0195 c -0.254,0.0977 -0.54708,0.21493 -0.85969,0.31262 -0.62523,0.21492 -0.762,0.27354 -1.36769,0.23446 h -0.0391 l -0.0977,-0.0586 -0.11723,-0.11723 v -0.11723 l 0.0195,-0.0586 0.0195,-0.15631 0.0391,-0.0977 c 0,0 0,-0.0391 0.0195,-0.0586 0.0586,-0.13677 0.15631,-0.29307 0.254,-0.42984 l 0.15631,-0.17585 0.17584,-0.23446 c 0.0195,-0.0391 0.13677,-0.15631 0.17585,-0.19539 l 0.254,-0.19538 0.13677,-0.11723 0.21492,-0.13677 0.21492,-0.19539 0.254,-0.17584 0.11723,-0.0977 c 0.13677,-0.0782 0.27354,-0.19539 0.41031,-0.27354 l 0.0977,-0.0586 0.23447,-0.15631 0.54707,-0.332149 c 0.62523,-0.332154 0.91831,-0.547077 1.13323,-0.683847 l 0.13677,-0.09769 c 0.0195,0.01954 0.0586,0.01954 0.0586,0.01954 l 0.23446,0.136769 0.11723,0.03908 0.11723,0.03908 0.15631,0.09769 0.13677,0.09769 0.0195,0.01954 c 0,0.01954 0.0781,0.156307 0.0977,0.195384 0,0.07815 -0.0195,0.117231 -0.0195,0.175846 l -0.0781,0.214927 v 0.11723 c -0.0782,0.15631 -0.15631,0.31262 -0.31262,0.508 z"
         style="fill:#ffffff"
         id="path550" />
      <path
         d="m 152.22448,101.7536 0.23447,-0.56662 c 0.0586,-0.15631 0.13676,-0.29308 0.23446,-0.52754 0.0391,-0.0782 0.0586,-0.13677 0.0781,-0.21492 0.0586,-0.17585 0.17585,-0.37123 0.254,-0.605694 0.15631,-0.449385 0.27354,-0.781539 -0.27354,-1.055077 -0.37123,-0.156308 -0.78154,-0.175846 -1.11369,-0.07815 h -0.0781 l -0.48847,0.136769 -0.17584,0.09769 -0.508,0.332154 -0.35169,0.234461 -0.15631,0.09769 c -0.11723,0.05862 -0.21492,0.156308 -0.39077,0.273539 H 149.45 l -0.37123,0.214928 -0.48846,0.33215 -0.58615,0.48846 0.0195,-0.0195 c -0.0977,0.0586 -0.19538,0.15631 -0.29307,0.21493 l -0.0391,0.0195 -0.17585,0.17585 -0.0782,0.0586 -0.13677,0.0977 -0.56661,0.35169 -0.17585,0.13677 -0.0586,0.0195 -0.31261,0.21492 -0.11723,0.0977 -0.0977,0.11723 -0.19539,0.13677 -0.13677,0.11723 -0.19538,0.11724 h -0.0586 c 0,-0.0977 0.0391,-0.15631 0.0391,-0.23447 l 0.254,-0.64477 c 0.0391,-0.11723 0.0195,-0.0195 0.0586,-0.13676 l 0.27354,-0.62524 0.0586,-0.23446 0.23446,-0.46892 c 0.0391,-0.11723 0.0977,-0.17585 0.11723,-0.27354 l 0.0586,-0.13677 c 0.23446,-0.390768 0.39077,-0.683845 0.56661,-0.918307 l 0.0782,-0.09769 0.0586,-0.117231 c 0.17585,-0.254 0.37123,-0.527538 0.54708,-0.801077 0.27354,-0.410307 0.58615,-0.918307 0.87923,-1.328615 l 0.19538,-0.175846 0.17585,-0.293077 0.29308,-0.429846 c 0,-0.01954 0,-0.03908 0.0195,-0.07815 l 0.15631,-0.214923 0.29308,-0.293077 0.17585,-0.234462 0.31261,-0.449384 c 0.0586,-0.05862 0.11723,-0.195385 0.17585,-0.273539 l 0.0977,-0.136769 0.13677,-0.117231 0.0781,-0.136769 0.15631,-0.254 0.17585,-0.214923 0.762,-1.055077 0.1563,-0.156308 0.21493,-0.390769 0.0977,-0.156307 0.17585,-0.273539 0.54707,-0.703384 0.27354,-0.351693 0.27354,-0.390769 0.27354,-0.293077 0.35169,-0.449385 0.46892,-0.664307 c 0.0977,-0.156308 -0.0195,-0.722923 -0.27354,-0.781539 -0.13676,-0.03908 -0.35169,0.03908 -0.60569,0.273539 l -0.46892,0.508 -0.254,0.293077 -0.39077,0.527538 c 0,0.01954 -0.0391,0.07815 -0.0391,0.07815 l -0.0781,0.175846 -0.0977,0.175846 -0.23446,0.293077 c 0,0.01954 0,0.01954 -0.0195,0.05862 l -0.0391,0.03908 c -0.11723,0.195384 -0.29308,0.390769 -0.41031,0.586153 l -0.11723,0.175847 -0.39077,0.586153 -0.19538,0.351693 -0.31262,0.508 -0.13677,0.175846 c -0.0195,0.05862 -0.0781,0.117231 -0.0977,0.175846 l -0.23446,0.371231 -0.0586,0.09769 -0.0977,0.136769 -0.254,0.390769 -0.0586,0.09769 -0.13677,0.234461 -0.11723,0.156308 -0.0586,0.117231 c 0,0.01954 0,0.03908 -0.0195,0.07815 l -0.0391,0.03908 c -0.3517,0.468923 -0.74247,1.016 -1.07462,1.484923 l -0.15631,0.09769 -0.35169,0.644769 c -0.21492,0.293077 -0.27354,0.371231 -0.31262,0.449385 l -0.21492,0.234461 -0.11723,0.195385 -0.0586,0.136769 -0.13677,0.214923 -0.0782,0.07815 -0.0586,0.117231 -0.27354,0.429846 -0.0782,0.09769 -0.19538,0.273539 -0.17585,0.254 -0.13677,0.293077 -0.27353,0.429846 -0.15631,0.234456 -0.27354,0.44939 -0.0586,0.13677 c -0.0586,0.1563 -0.17584,0.39076 -0.254,0.54707 l -0.0781,0.13677 -0.13677,0.31262 -0.17584,0.39077 -0.0977,0.17584 -0.13677,0.37123 c 0,0.0195 -0.0391,0.11723 -0.0391,0.15631 l -0.0977,0.29308 -0.0391,0.29307 0.0391,0.23447 0.21493,0.21492 0.17584,0.0195 0.254,-0.0195 0.21493,-0.0586 h -0.0195 l 0.23446,-0.0782 0.27354,-0.17585 0.27354,-0.13677 0.254,-0.13676 0.13677,-0.0782 0.11723,-0.0586 0.44938,-0.33216 0.54708,-0.44938 0.62523,-0.52754 0.37123,-0.31262 0.39077,-0.31261 0.19538,-0.11723 0.99647,-0.58616 0.0781,-0.0781 0.23446,-0.13677 0.0586,-0.0195 0.4103,-0.19538 0.13677,-0.117229 0.15631,-0.07815 0.0195,-0.01954 0.19538,-0.156307 c 0.0391,-0.03908 0.0977,-0.05862 0.15631,-0.09769 l 0.0977,-0.01954 0.3517,-0.175846 c 0.1563,-0.07815 0.23446,-0.09769 0.35169,-0.09769 v 0.05862 c 0.0195,0.214923 -0.0782,0.390769 -0.21492,0.605692 l -0.0782,0.33216 -0.13677,0.37123 c -0.0781,0.17585 -0.15631,0.41031 -0.19538,0.56662 l -0.13677,0.23446 -0.0977,0.254 -0.0391,0.0977 -0.0977,0.17585 c 0,0.0195 -0.11723,0.13676 -0.11723,0.1563 l -0.13677,0.3517 -0.0195,0.17584 -0.0195,0.35169 -0.0195,0.41031 0.0977,0.19539 0.13677,0.11723 c 0.0391,0 0.0391,0.0391 0.0586,0.0782 l 0.17584,0.15631 c 0.0391,0 0.0977,-0.0195 0.13677,-0.0195 0.0782,0.0195 0.11723,0.0195 0.19539,0.0195 l 0.15631,-0.0391 0.0977,-0.0391 0.19538,-0.0195 0.17585,-0.0391 0.17585,-0.0781 0.13676,-0.0782 0.15631,-0.11723 0.0391,-0.0195 0.35169,-0.254 0.15631,-0.0782 0.19538,-0.0782 0.11723,-0.0391 0.11724,-0.11723 0.19538,-0.11723 0.0391,-0.0391 c 0.0391,-0.0195 0.0781,-0.0782 0.11723,-0.0977 l 0.0391,-0.0195 0.15631,-0.0977 0.0977,-0.13677 0.0977,-0.0977 0.0586,-0.0391 0.19539,-0.13677 c 0.35169,-0.23446 0.64477,-0.44938 0.78154,-0.58616 l 0.21492,-0.17584 0.0781,-0.0782 0.23446,-0.13676 c 0.0586,-0.0195 0.11723,-0.0782 0.17585,-0.0977 l 0.17585,-0.0391 0.0391,-0.13676 -0.0391,-0.17585 -0.0782,-0.13677 -0.11723,-0.0782 -0.17584,0.0391 -0.29308,0.19539 -0.19539,0.17585 -0.19538,0.13676 -0.0586,0.0391 c -0.0977,0.0586 -0.19538,0.15631 -0.29307,0.21492 l -0.21493,0.11724 -0.11723,0.0977 -0.0977,0.0586 -0.41031,0.27354 c -0.0195,0.0195 -0.0391,0.0195 -0.0391,0.0195 l -0.762,0.508 -0.11723,0.0195 -0.74247,0.39078 -0.0586,0.0195 -0.19539,0.0781 c -0.0391,0.0195 -0.0977,0.0195 -0.13677,0.0195 l -0.0781,-0.0391 -0.0781,-0.0977 -0.0195,-0.0782 c 0,-0.0586 0,-0.11724 0.0195,-0.19539 l 0.0391,-0.17585 0.0977,-0.21492 0.0391,-0.17584 z"
         style="fill:#ffffff"
         id="path552" />
      <path
         d="m 161.6029,101.69498 -0.15631,0.19538 -0.0586,0.0977 -0.17584,0.23446 v 0.0391 l -0.0977,0.21492 c -0.0391,0.0782 -0.0195,0.19538 0,0.29308 v 0.19538 l 0.17584,0.19538 0.13677,0.0391 0.0977,0.0391 0.17585,0.0195 h 0.254 l 0.29308,-0.0782 c 0.0195,0 0.0977,-0.0586 0.13677,-0.0782 l 0.21492,-0.0781 0.52754,-0.19539 0.1563,-0.0781 0.48847,-0.19539 0.0781,-0.0391 0.15631,-0.0977 0.11723,-0.0391 0.17584,-0.0586 0.15631,-0.11723 0.0782,-0.0195 0.11723,-0.0391 0.42984,-0.1563 0.39077,-0.11723 0.33216,-0.15631 0.46892,-0.21492 0.11723,-0.0391 0.27354,-0.0782 h 0.11723 l 0.23446,-0.11723 0.29308,-0.0781 h 0.21492 l 0.19539,-0.17585 v -0.33215 c -0.0195,0 -0.13677,-0.0195 -0.19539,-0.0391 -0.0195,-0.0195 -0.13677,-0.0195 -0.15631,-0.0195 l -0.39077,0.11724 -0.17584,0.0391 -0.95739,0.27354 -0.0586,0.0586 -0.17585,0.0586 -0.68384,0.17585 -0.0782,0.0586 -0.0781,0.0195 -0.17585,0.0782 -0.23446,0.0781 -0.17585,0.0391 -0.0977,0.0391 -0.68384,0.19539 -0.254,0.0586 -0.11724,0.0391 -0.21492,0.0391 -0.254,0.0586 h -0.0781 l -0.19539,0.0195 c -0.0782,0 -0.11723,0.0195 -0.17584,0.0195 0,-0.0195 0.0391,-0.0195 0.0586,-0.0782 l 0.0391,-0.0977 0.0586,-0.11723 0.19539,-0.27354 0.0391,-0.0586 0.4103,-0.46892 0.15631,-0.13677 0.17585,-0.254 0.0781,-0.0782 0.17585,-0.11723 0.0391,-0.19538 0.0782,-0.11723 0.0195,-0.0586 v -0.11723 c -0.11723,-0.195385 -0.23446,-0.273539 -0.33216,-0.312616 l -0.0195,-0.01954 -0.19538,-0.117231 -0.21492,-0.03908 h -0.27354 l -0.60569,0.136769 -0.29308,0.175847 -0.23446,0.156307 -0.0977,0.07815 -0.15631,0.0977 -0.0977,0.0781 -0.31262,0.15631 -0.23446,0.17585 -0.33216,0.1563 -0.0781,0.0195 -0.58615,0.27354 -0.13677,0.0977 -0.52754,0.27354 -0.13677,0.0782 -0.15631,0.0782 -0.23446,0.11723 -0.11723,0.0195 -0.0586,0.0586 -0.17584,0.0977 -0.13677,0.0977 c -0.33215,0.19538 -0.33215,0.17584 -0.48846,0.23446 l -0.11723,0.0586 -0.254,0.0782 -0.17585,0.0977 -0.0977,0.0586 -0.68385,0.31261 -0.13677,0.0195 -0.29307,0.0977 -0.17585,0.0391 c -0.13677,0.0391 -0.21492,0.11723 -0.35169,0.15631 v -0.13677 l 0.0195,-0.0391 0.0586,-0.0781 0.0977,-0.11723 0.0586,-0.11723 0.11723,-0.254 0.21492,-0.29308 0.0782,-0.0977 0.11723,-0.11723 c 0,0 0.0195,-0.0391 0.0195,-0.0586 l 0.0391,-0.0586 0.0782,-0.0977 0.11723,-0.13677 v -0.0195 l 0.23446,-0.21492 0.19538,-0.23446 v -0.0391 l 0.19539,-0.1563 0.0391,-0.0391 0.1563,-0.13677 0.13677,-0.0782 0.17585,-0.17585 0.17584,-0.19539 0.0586,-0.0586 0.87923,-0.644786 0.254,-0.175846 0.0977,-0.05862 0.508,-0.273538 0.42985,-0.175846 0.33215,-0.09769 0.254,-0.07815 0.11723,-0.03908 0.13677,-0.01954 h 0.762 c 0.0391,0 0.0977,-0.01954 0.13677,-0.01954 0.41031,0.03908 0.68385,-0.312616 0.74246,-0.468923 l 0.0391,-0.175847 -0.0195,-0.195384 -0.21492,-0.175846 c -0.0195,0 -0.0781,-0.01954 -0.0977,-0.03908 l -0.42985,-0.05862 h -0.29308 l -0.13677,0.03908 -0.11723,0.03908 -0.19538,0.01954 -0.0781,0.05862 c -0.11724,0.01954 -0.21493,0.07815 -0.33216,0.09769 l -0.11723,0.03908 -0.17585,0.07815 -0.70338,0.351692 c -0.19538,0.05862 -0.254,0.117231 -0.31262,0.13677 l -0.0586,0.01954 -0.17585,0.07815 -0.0195,0.01954 -0.29307,0.156308 -0.13677,0.117231 -0.33216,0.273538 -0.39076,0.351693 -0.15631,0.09769 -0.0391,0.01954 -0.23446,0.195385 -0.13677,0.136769 -0.27354,0.214923 -0.89877,0.801087 -0.21492,0.19538 -0.17585,0.13677 -0.0781,0.0977 -0.23446,0.23447 -0.19539,0.23446 -0.13677,0.19538 -0.1563,0.23446 c 0,0.0195 -0.0195,0.0391 -0.0195,0.0391 l -0.11723,0.13677 -0.0977,0.27354 c -0.13676,0.33215 -0.23446,0.68384 -0.13676,0.95738 0.11723,0.31262 0.42984,0.39077 0.82061,0.3517 l 0.13677,0.0195 0.11723,-0.0195 0.33215,-0.13677 0.13677,-0.0195 0.39077,-0.13677 c 0,0 0.0586,-0.0782 0.0977,-0.0977 0.0977,-0.0391 0.13676,-0.0195 0.17584,-0.0586 l 0.13677,0.0195 0.23446,-0.0977 h 0.17585 l 0.37123,-0.19539 c 0.13677,-0.0977 0.27354,-0.17584 0.41031,-0.254 0.0195,0 0.13677,-0.0391 0.1563,-0.0586 l 0.11724,-0.0391 0.19538,-0.13677 0.11723,-0.0781 c 0.11723,-0.0586 0.23446,-0.15631 0.35169,-0.21493 l 0.0782,-0.0195 0.27354,-0.15631 0.0195,-0.0195 0.3517,-0.15631 0.13677,-0.0586 0.508,-0.29308 0.44938,-0.21492 0.13677,-0.0782 0.13677,-0.0586 0.15631,-0.0977 0.60569,-0.35169 0.19538,-0.0391 0.54708,-0.21493 0.23446,-0.0586 h 0.0195 l -0.0586,0.0781 -0.19538,0.21492 h -0.0195 l -0.15631,0.17585 -0.1563,0.21492 z"
         style="fill:#ffffff"
         id="path554" />
      <path
         d="m 168.28505,100.79621 0.1563,-0.254 v -0.0195 l 0.15631,-0.17584 0.15631,-0.254 0.0781,-0.156312 0.27354,-0.390769 c 0.0977,-0.136769 0.23446,-0.332154 0.21492,-0.312615 l 0.0782,-0.13677 0.0391,-0.05861 0.17584,-0.195385 0.41031,-0.449384 c 0.17585,-0.214923 0.35169,-0.468923 0.35169,-0.762 v -0.117231 c -0.0391,-0.136769 -0.13677,-0.273538 -0.41031,-0.390769 l -0.13677,-0.01954 -0.11723,0.03908 -0.31261,0.214923 -0.254,0.254 -0.0782,0.117231 -0.0195,0.07815 -0.19539,0.488461 -0.21492,0.371231 -0.13677,0.273539 -0.15631,0.37123 v 0.01954 l -0.0781,0.09769 -0.0782,0.175846 -0.0586,0.09769 -0.17585,0.312614 -0.21492,0.31262 -0.11723,0.17584 c -0.0782,0.0977 -0.15631,0.27354 -0.23446,0.37123 l -0.0586,0.0586 -0.23446,0.27354 -0.0391,0.13677 -0.19538,0.254 -0.0782,0.17584 -0.11723,0.17585 -0.13677,0.19538 -0.23446,0.31262 -0.13677,0.17585 -0.17584,0.21492 -0.23446,0.39077 -0.15631,0.35169 c -0.11723,0.254 -0.0586,0.60569 0,0.68385 0.0391,0.11723 0.17584,0.19538 0.35169,0.19538 0.0977,0 0.21492,-0.0195 0.29308,-0.0586 l 0.254,-0.21493 0.17584,-0.21492 0.29308,-0.42985 0.44939,-0.56661 0.19538,-0.17585 0.0781,-0.0977 0.11723,-0.0977 0.0586,-0.0977 0.19538,-0.17585 0.0977,-0.0781 0.0977,-0.0977 0.17585,-0.19538 0.17584,-0.15631 c 0.0195,-0.0391 0.0977,-0.0977 0.13677,-0.13677 l 0.15631,-0.0977 0.29308,-0.254 0.23446,-0.254 0.13677,-0.0977 0.46892,-0.44939 0.508,-0.44938 0.56661,-0.371234 0.11724,-0.117231 0.29307,-0.195385 0.17585,-0.156307 0.0781,-0.03908 0.37123,-0.195385 0.13677,-0.117231 0.27354,-0.175846 0.78154,-0.410308 0.0977,-0.09769 c 0.0195,0 0.0977,-0.03908 0.11723,-0.05862 0.254,-0.09769 0.54708,-0.234462 0.80108,-0.351693 0.21492,-0.03908 0.46892,-0.11723 0.70338,-0.156307 l 0.17585,-0.01954 0.21492,-0.09769 0.0977,0.01954 0.13676,-0.01954 0.27354,-0.117231 h 0.15631 l 0.0391,0.136769 0.0195,0.13677 0.0391,0.136769 v 0.09769 l 0.0195,0.09769 0.0195,0.11723 0.19538,0.195385 0.15631,0.01954 0.11723,-0.01954 0.15631,-0.03908 0.15631,-0.09769 0.15631,-0.156308 0.0977,-0.156308 0.0781,-0.234461 0.0391,-0.488462 -0.0781,-0.214923 c -0.0195,-0.05862 -0.11724,-0.156307 -0.15631,-0.195384 -0.0782,-0.07815 -0.19539,-0.13677 -0.35169,-0.214923 -0.0586,0 -0.11724,-0.01954 -0.17585,-0.03908 -0.29308,-0.01954 -0.62523,0.03908 -0.97692,0.136769 l -0.23447,0.01954 -0.1563,0.05862 -0.21493,0.07815 -0.58615,0.254 -0.37123,0.136769 c -0.33215,0.195384 -0.46892,0.254 -0.54708,0.293077 -0.0586,0.03908 -0.23446,0.11723 -0.23446,0.11723 h -0.0195 l -0.52754,0.214923 -0.254,0.156308 -0.21492,0.195385 -0.27354,0.09769 -0.11723,0.07815 -0.17584,0.175846 -0.39077,0.234462 c -0.0391,0.03908 -0.11723,0.07815 -0.17585,0.11723 l -0.0977,0.01954 -0.13677,0.136769 -0.21492,0.117231 -0.0782,0.05862 -0.60569,0.429846 -0.42985,0.312616 -0.37123,0.293083 -0.33215,0.21492 -0.21492,0.15631 -0.17585,0.17584 -0.33215,0.27354 -0.0782,0.0586 z"
         style="fill:#ffffff"
         id="path556" />
      <path
         d="m 182.45042,101.69498 -0.15631,0.19538 -0.0586,0.0977 -0.17584,0.23446 v 0.0391 l -0.0977,0.21492 c -0.0391,0.0782 -0.0195,0.19538 0,0.29308 v 0.19538 l 0.17585,0.19538 0.13677,0.0391 0.0977,0.0391 0.17585,0.0195 h 0.254 l 0.29307,-0.0782 c 0.0195,0 0.0977,-0.0586 0.13677,-0.0782 l 0.21493,-0.0781 0.52754,-0.19539 0.1563,-0.0781 0.48846,-0.19539 0.0782,-0.0391 0.15631,-0.0977 0.11723,-0.0391 0.17584,-0.0586 0.15631,-0.11723 0.0781,-0.0195 0.11724,-0.0391 0.42984,-0.1563 0.39077,-0.11723 0.33215,-0.15631 0.46893,-0.21492 0.11723,-0.0391 0.27354,-0.0782 h 0.11723 l 0.23446,-0.11723 0.29308,-0.0781 h 0.21492 l 0.19538,-0.17585 v -0.33215 c -0.0195,0 -0.13677,-0.0195 -0.19538,-0.0391 -0.0195,-0.0195 -0.13677,-0.0195 -0.15631,-0.0195 l -0.39077,0.11724 -0.17584,0.0391 -0.95739,0.27354 -0.0586,0.0586 -0.17585,0.0586 -0.68385,0.17585 -0.0781,0.0586 -0.0782,0.0195 -0.17585,0.0782 -0.23446,0.0781 -0.17585,0.0391 -0.0977,0.0391 -0.68385,0.19539 -0.254,0.0586 -0.11723,0.0391 -0.21492,0.0391 -0.254,0.0586 h -0.0782 l -0.19539,0.0195 c -0.0782,0 -0.11723,0.0195 -0.17584,0.0195 0,-0.0195 0.0391,-0.0195 0.0586,-0.0782 l 0.0391,-0.0977 0.0586,-0.11723 0.19539,-0.27354 0.0391,-0.0586 0.41031,-0.46892 0.15631,-0.13677 0.17585,-0.254 0.0782,-0.0782 0.17585,-0.11723 0.0391,-0.19538 0.0782,-0.11723 0.0195,-0.0586 v -0.11723 c -0.11724,-0.195385 -0.23447,-0.273539 -0.33216,-0.312616 l -0.0195,-0.01954 -0.19538,-0.117231 -0.21492,-0.03908 H 183.447 l -0.6057,0.136769 -0.29307,0.175847 -0.23446,0.156307 -0.0977,0.07815 -0.1563,0.0977 -0.0977,0.0781 -0.31261,0.15631 -0.23446,0.17585 -0.33216,0.1563 -0.0781,0.0195 -0.58615,0.27354 -0.13677,0.0977 -0.52754,0.27354 -0.13677,0.0782 -0.15631,0.0782 -0.23446,0.11723 -0.11723,0.0195 -0.0586,0.0586 -0.17584,0.0977 -0.13677,0.0977 c -0.33216,0.19538 -0.33216,0.17584 -0.48846,0.23446 l -0.11723,0.0586 -0.254,0.0782 -0.17585,0.0977 -0.0977,0.0586 -0.68385,0.31261 -0.13677,0.0195 -0.29307,0.0977 -0.17585,0.0391 c -0.13677,0.0391 -0.21492,0.11723 -0.35169,0.15631 v -0.13677 l 0.0195,-0.0391 0.0586,-0.0781 0.0977,-0.11723 0.0586,-0.11723 0.11723,-0.254 0.21492,-0.29308 0.0782,-0.0977 0.11723,-0.11723 c 0,0 0.0195,-0.0391 0.0195,-0.0586 l 0.0391,-0.0586 0.0782,-0.0977 0.11723,-0.13677 v -0.0195 l 0.23446,-0.21492 0.19538,-0.23446 v -0.0391 l 0.19539,-0.1563 0.0391,-0.0391 0.15631,-0.13677 0.13677,-0.0782 0.17585,-0.17585 0.17584,-0.19539 0.0586,-0.0586 0.87923,-0.644786 0.254,-0.175846 0.0977,-0.05862 0.508,-0.273538 0.42985,-0.175846 0.33215,-0.09769 0.254,-0.07815 0.11723,-0.03908 0.13677,-0.01954 h 0.762 c 0.0391,0 0.0977,-0.01954 0.13677,-0.01954 0.41031,0.03908 0.68385,-0.312616 0.74246,-0.468923 l 0.0391,-0.175847 -0.0195,-0.195384 -0.21492,-0.175846 c -0.0195,0 -0.0782,-0.01954 -0.0977,-0.03908 l -0.42985,-0.05862 h -0.29308 l -0.13677,0.03908 -0.11723,0.03908 -0.19538,0.01954 -0.0782,0.05862 c -0.11723,0.01954 -0.21492,0.07815 -0.33215,0.09769 l -0.11723,0.03908 -0.17585,0.07815 -0.70338,0.351692 c -0.19539,0.05862 -0.254,0.117231 -0.31262,0.13677 l -0.0586,0.01954 -0.17585,0.07815 -0.0195,0.01954 -0.29307,0.156308 -0.13677,0.117231 -0.33216,0.273538 -0.39077,0.351693 -0.1563,0.09769 -0.0391,0.01954 -0.23446,0.195385 -0.13677,0.136769 -0.27354,0.214923 -0.89877,0.801087 -0.21492,0.19538 -0.17585,0.13677 -0.0781,0.0977 -0.23446,0.23447 -0.19539,0.23446 -0.13677,0.19538 -0.1563,0.23446 c 0,0.0195 -0.0195,0.0391 -0.0195,0.0391 l -0.11723,0.13677 -0.0977,0.27354 c -0.13677,0.33215 -0.23446,0.68384 -0.13677,0.95738 0.11724,0.31262 0.42985,0.39077 0.82062,0.3517 l 0.13677,0.0195 0.11723,-0.0195 0.33215,-0.13677 0.13677,-0.0195 0.39077,-0.13677 c 0,0 0.0586,-0.0782 0.0977,-0.0977 0.0977,-0.0391 0.13677,-0.0195 0.17585,-0.0586 l 0.13677,0.0195 0.23446,-0.0977 h 0.17585 l 0.37123,-0.19539 c 0.13677,-0.0977 0.27354,-0.17584 0.41031,-0.254 0.0195,0 0.13677,-0.0391 0.1563,-0.0586 l 0.11723,-0.0391 0.19539,-0.13677 0.11723,-0.0781 c 0.11723,-0.0586 0.23446,-0.15631 0.35169,-0.21493 l 0.0782,-0.0195 0.27353,-0.15631 0.0195,-0.0195 0.3517,-0.15631 0.13676,-0.0586 0.508,-0.29308 0.44939,-0.21492 0.13677,-0.0782 0.13677,-0.0586 0.15631,-0.0977 0.60569,-0.35169 0.19538,-0.0391 0.54708,-0.21493 0.23446,-0.0586 h 0.0195 l -0.0586,0.0781 -0.19538,0.21492 h -0.0195 l -0.15631,0.17585 -0.15631,0.21492 z"
         style="fill:#ffffff"
         id="path558" />
    </g>
  </g>
</svg>
