<?xml version="1.0" encoding="UTF-8" standalone="no"?>
<!-- Created with Inkscape (http://www.inkscape.org/) -->

<svg
   width="175.84651mm"
   height="33.000427mm"
   viewBox="0 0 175.84651 33.000427"
   version="1.1"
   id="svg5"
   inkscape:export-filename="nice.svg"
   inkscape:export-xdpi="96"
   inkscape:export-ydpi="96"
   xmlns:inkscape="http://www.inkscape.org/namespaces/inkscape"
   xmlns:sodipodi="http://sodipodi.sourceforge.net/DTD/sodipodi-0.dtd"
   xmlns="http://www.w3.org/2000/svg"
   xmlns:svg="http://www.w3.org/2000/svg">
  <sodipodi:namedview
     id="namedview7"
     pagecolor="#ffffff"
     bordercolor="#000000"
     borderopacity="0.25"
     inkscape:showpageshadow="2"
     inkscape:pageopacity="0.0"
     inkscape:pagecheckerboard="0"
     inkscape:deskcolor="#d1d1d1"
     inkscape:document-units="mm"
     showgrid="false"
     inkscape:zoom="4.2179991"
     inkscape:cx="215.14941"
     inkscape:cy="295.40073"
     inkscape:window-width="1920"
     inkscape:window-height="1017"
     inkscape:window-x="-8"
     inkscape:window-y="-8"
     inkscape:window-maximized="1"
     inkscape:current-layer="layer3" />
  <defs
     id="defs2" />
  <g
     inkscape:label="Layer 1"
     inkscape:groupmode="layer"
     id="layer1"
     style="display:inline"
     transform="translate(-26.663497,-41.69777)">
    <g
       aria-label="Nice to meet you."
       id="text2563"
       style="font-weight:bold;font-size:25.4px;font-family:'Antro Vectra';-inkscape-font-specification:'Antro Vectra Bold';stroke-width:0.264583">
      <path
         d="m 43.306913,42.65515 h 0.09769 l 0.351692,0.07815 0.293077,0.09769 0.371231,0.195385 0.175846,0.175846 0.05862,0.07815 0.136769,0.195385 0.05862,0.09769 c 0.03908,0.09769 0.156307,0.390769 0.136769,0.547077 v 0.195384 l 0.01954,0.214923 0.01954,0.273539 V 44.9216 c -0.136769,0.527538 -0.312615,1.016 -0.605692,1.602153 l -0.07815,0.156308 -0.05862,0.07815 -0.840153,1.543538 -0.09769,0.13677 -0.586154,0.918307 -0.293077,0.429846 -0.07815,0.07815 c -0.09769,0.175846 -0.254,0.371231 -0.351693,0.547077 l -0.254,0.371231 -0.09769,0.234462 -0.390769,0.488461 -0.332154,0.371231 c -0.09769,0.117231 -0.214923,0.312615 -0.312615,0.449384 -0.09769,0.09769 -0.175847,0.214924 -0.195385,0.254 -0.01954,0.03908 -0.01954,0.05862 -0.07815,0.117231 -0.117231,0.156308 -0.175846,0.195385 -0.195384,0.234462 l -0.547077,0.683846 -0.13677,0.175846 -0.312615,0.351692 -0.449385,0.508 -0.742461,0.859693 c -0.254,0.429846 -0.351692,0.508 -0.566616,0.703384 l -0.683846,0.683846 -1.055077,1.113693 -0.332153,0.351692 -0.234462,0.214923 c -0.136769,0.136769 -0.410308,0.488462 -0.605692,0.781539 -0.214923,0.312615 -0.410308,0.703384 -0.410308,0.87923 -0.07815,0.801077 0.371231,1.016 0.820615,0.820616 0.175847,-0.07815 0.527539,-0.527539 0.937847,-1.094154 0.351692,-0.468923 0.762,-0.996462 1.172307,-1.484923 l 0.879231,-0.859693 0.195385,-0.175846 0.449384,-0.410307 c 0.01954,-0.03908 0.136769,-0.156308 0.175846,-0.195385 l 0.566616,-0.508 0.468923,-0.429846 0.390769,-0.410308 0.722923,-0.605692 0.468923,-0.351692 0.136769,-0.175847 c 0.03908,-0.03908 0.07815,-0.07815 0.234462,-0.195384 l 0.468923,-0.273539 c 0.07815,-0.05861 0.273538,-0.273538 0.351692,-0.351692 l 0.13677,-0.09769 0.312615,-0.312616 0.547077,-0.410307 0.234461,-0.09769 0.312616,-0.214923 0.664307,-0.566615 0.13677,-0.05862 0.175846,-0.156308 0.234461,-0.175846 0.13677,-0.13677 0.254,-0.195384 0.03908,-0.03908 0.136769,-0.07815 0.05861,-0.05861 1.016,-0.722923 0.410308,-0.254 0.312615,-0.195385 c 0.234462,-0.156308 0.566616,-0.371231 0.801077,-0.547077 l 0.429846,-0.273538 0.156308,-0.117231 0.156308,-0.07815 0.09769,-0.07815 0.234461,-0.175846 0.156308,-0.117231 0.625231,-0.37123 1.953846,-1.172308 0.820615,-0.371231 0.214923,-0.175846 0.64477,-0.351692 c 0.449384,-0.234462 0.898769,-0.468923 1.211384,-0.586154 l 0.351693,-0.07815 0.429846,-0.156308 c 0.410307,-0.136769 0.605692,-0.136769 0.957384,-0.117231 0.07815,0.01954 0.195385,0.05862 0.273539,0.117231 l 0.09769,0.195385 0.05862,0.05861 0.09769,0.234462 c 0,0.07815 0.03908,0.234461 0.03908,0.312615 l -0.05862,0.254 c 0,0.03908 0,0.01954 -0.156307,0.410308 -0.214923,0.488461 -0.234462,0.508 -0.254,0.547077 l -0.214923,0.371231 c 0,0.01954 -0.03908,0.156307 -0.05862,0.175846 l -0.214923,0.273538 -0.254,0.410308 -0.05862,0.117231 -0.175846,0.312615 -0.05862,0.117231 -0.09769,0.156307 c 0,0.01954 -0.01954,0.05862 -0.01954,0.07815 l -0.175846,0.234462 -0.05862,0.117231 v 0.01954 l -0.195385,0.332154 -0.11723,0.195384 0.01954,-0.01954 -0.117231,0.136769 c 0,0 -0.01954,0.03908 -0.01954,0.05862 l -0.07815,0.136769 -0.175846,0.254 -0.742462,1.016 -0.05862,0.09769 -0.117231,0.07815 -0.195385,0.234462 -1.269999,1.64123 -0.312616,0.429846 c -0.273538,0.410308 -0.586154,0.820616 -0.859692,1.230923 l -1.113692,1.524 -0.214924,0.214924 -0.07815,0.09769 -0.312616,0.449384 -0.762,1.094154 v 0.05862 l -0.117231,0.175846 -0.05861,0.175846 -0.410308,0.664308 -0.312615,0.37123 -0.273538,0.508 -0.332154,0.488462 -0.09769,0.136769 -0.332153,0.488462 -0.254,0.390769 -0.273539,0.762 -0.156308,0.234461 -0.07815,0.13677 -0.254,0.293077 -0.293077,0.605692 -0.07815,0.136769 -0.293077,0.390769 -0.293077,0.468923 -0.117231,0.117231 -0.03908,0.195385 v 0.05861 c -0.05862,0.09769 -0.09769,0.117231 -0.09769,0.156308 l -0.214923,0.527538 c -0.390769,0.625231 -0.605692,1.230923 -0.820615,1.875693 0,0.01954 -0.03908,0.11723 -0.03908,0.156307 l -0.03908,0.09769 -0.195385,0.468923 -0.07815,0.195384 c 0,0.01954 -0.01954,0.07815 -0.01954,0.117231 -0.09769,0.254 -0.09769,0.468923 -0.09769,0.703385 0,0.390769 0.07815,0.801077 0.234462,1.074615 l 0.273538,0.273538 0.351693,0.156308 c 0.01954,0 0.09769,-0.01954 0.117231,-0.01954 0.11723,0 0.293076,0 0.351692,-0.214923 0.05861,-0.175847 0.03908,-0.508 0,-0.801077 0,-0.05862 -0.01954,-0.13677 -0.01954,-0.214923 -0.03908,-0.468923 -0.03908,-0.996462 0.117231,-1.367693 0.01954,-0.11723 0.07815,-0.234461 0.09769,-0.351692 l 0.156308,-0.429846 0.175846,-0.468923 0.429846,-0.742462 0.09769,-0.351692 0.195384,-0.332154 0.05862,-0.214923 0.254,-0.586154 c 0.01954,-0.07815 0.05862,-0.05862 0.05862,-0.117231 l 0.136769,-0.293076 0.429847,-0.859693 0.07815,-0.234461 0.273539,-0.410308 c 0.07815,-0.175846 0.07815,-0.175846 0.09769,-0.175846 l 0.703385,-1.152769 0.156307,-0.195385 0.175847,-0.273538 0.11723,-0.254 0.351693,-0.586154 0.01954,-0.03908 0.07815,-0.09769 0.312615,-0.488462 c 0.332154,-0.547077 0.64477,-1.074615 0.937846,-1.504461 0.03908,-0.07815 0.09769,-0.117231 0.117231,-0.175847 l 0.703385,-0.957384 0.214923,-0.273539 0.762,-1.094154 0.234461,-0.273538 0.117231,-0.195385 0.429846,-0.566615 c 0,-0.01954 0,-0.05861 0.01954,-0.09769 l 0.156307,-0.156308 0.234462,-0.468923 0.312615,-0.371231 c 0.214923,-0.156307 0.195385,-0.254 0.195385,-0.293077 l 0.09769,-0.136769 0.214923,-0.234461 0.01954,-0.07815 0.195384,-0.156308 0.117231,-0.175846 c 0,-0.01954 0.03908,-0.09769 0.05862,-0.117231 l 0.11723,-0.136769 0.05862,-0.156308 0.156307,-0.117231 0.07815,-0.156307 0.01954,-0.01954 0.156307,-0.117231 0.371231,-0.508 v -0.03908 l 0.05862,-0.03908 0.234461,-0.332154 v -0.03908 l 0.156308,-0.156308 0.05862,-0.175846 0.762,-1.035538 0.371231,-0.527539 0.117231,-0.156308 0.214923,-0.254 0.214923,-0.312615 0.07815,-0.136769 0.03908,-0.01954 0.136769,-0.234461 0.136769,-0.117231 0.175846,-0.273538 0.214923,-0.312616 0.234462,-0.312615 0.09769,-0.390769 0.117231,-0.429847 c 0.01954,-0.05861 0.05861,-0.312615 0.05861,-0.390769 0,-0.351692 -0.136769,-0.742461 -0.273538,-0.859692 l -0.429846,-0.293077 c -0.273539,-0.175846 -0.625231,-0.293077 -0.898769,-0.312615 -0.254,-0.01954 -0.801077,0.01954 -0.859693,0.03908 l -0.254,0.03908 -0.351692,0.13677 -0.195385,0.05862 -0.214923,0.03908 -0.429846,0.136769 -0.09769,0.03908 -0.410308,0.156308 -0.371231,0.09769 -0.09769,0.09769 h -0.01954 l -0.273539,0.156308 h -0.03908 l -0.234461,0.09769 -0.13677,0.05862 -0.62523,0.332154 -0.13677,0.05861 -0.390769,0.195385 -0.07815,0.07815 -0.273538,0.136769 -0.859692,0.547077 -0.312616,0.156307 -0.09769,0.03908 -0.117231,0.07815 -0.254,0.175846 -0.05862,0.01954 -0.840154,0.527538 -0.07815,0.07815 -0.586154,0.429846 -0.195384,0.156308 -0.664308,0.488461 -0.175846,0.117231 -0.390769,0.312616 -0.429847,0.293076 -0.449384,0.293077 -0.273539,0.175847 -0.09769,0.07815 -0.449385,0.254 -0.351692,0.254 -1.426308,1.016 -0.07815,0.09769 -0.625231,0.410307 -0.175846,0.156308 -0.293077,0.175846 -0.117231,0.117231 -0.625231,0.508 -0.898769,0.762 -1.094154,0.801077 0.547077,-0.547077 0.332154,-0.547077 0.312615,-0.390769 c 0.117231,-0.156308 0.254,-0.312616 0.371231,-0.488462 l 0.234462,-0.273538 c 0.01954,-0.05862 0.11723,-0.175846 0.156307,-0.234462 L 42.0174,51.799119 c 0.09769,-0.117231 0.214923,-0.312615 0.312615,-0.449385 l 0.234462,-0.273538 0.234461,-0.371231 c 0.39077,-0.488461 0.547077,-0.683846 0.89877,-1.289538 l 0.742461,-1.445846 0.175846,-0.293077 0.136769,-0.234462 0.214924,-0.449384 0.293076,-0.605693 0.527539,-1.27 c 0.136769,-0.332154 0.195385,-0.625231 0.195385,-0.898769 0,-0.351692 -0.09769,-0.664308 -0.312616,-0.976923 v -0.09769 l -0.117231,-0.175846 -0.293077,-0.214924 -0.156307,-0.136769 c -0.254,-0.175846 -0.468923,-0.332154 -0.664308,-0.429846 l -0.175846,-0.07815 c -0.429871,-0.195359 -0.918333,-0.31259 -1.348179,-0.351667 l -0.136769,-0.05861 h -0.976923 l -0.429846,0.01954 -0.351693,0.05862 -0.957384,0.09769 -0.371231,0.07815 h -0.175846 l -0.293077,0.05862 -0.332154,0.117231 -0.175846,0.05862 -0.195385,0.05861 c -0.214923,0.05862 -0.332154,0.07815 -0.703384,0.13677 l -0.703385,0.234461 -0.918308,0.293077 -0.136769,0.03908 -0.156307,0.01954 -0.664308,0.273538 -0.195385,0.05862 -0.03908,0.01954 c -0.390769,0.136769 -0.781538,0.293077 -1.13323,0.429846 l -0.273539,0.09769 -0.195385,0.03908 -0.449384,0.195385 -0.898769,0.410307 -0.175846,0.03908 -0.117231,0.09769 -0.527539,0.234461 -0.195384,0.01954 -0.117231,0.05862 c -0.09769,0.01954 -0.195385,0.07815 -0.273539,0.09769 l -0.07815,0.03908 -0.175847,0.09769 -0.03908,0.01954 -0.13677,0.05862 -0.332154,0.175847 -0.07815,0.01954 -0.39077,0.214923 -0.214923,0.09769 -0.09769,0.03908 -0.605692,0.371231 -0.39077,0.214923 c -0.273538,0.214923 -0.527538,0.429846 -0.840153,0.781539 l -0.214923,0.273538 -0.13677,0.175846 c -0.07815,0.156308 -0.156307,0.254 -0.234461,0.605693 -0.03908,0.07815 0,0.214923 0.03908,0.293077 0.136769,0.273538 0.351692,0.254 0.566615,0.195384 l 0.293077,-0.214923 0.332154,-0.332154 c 0.07815,-0.09769 0.312615,-0.371231 0.449384,-0.508 l 0.175847,-0.214923 0.234461,-0.234461 0.254,-0.214923 0.429846,-0.312616 0.07815,-0.07815 0.156308,-0.09769 0.175846,-0.09769 0.547077,-0.273539 0.410308,-0.214923 0.09769,-0.09769 0.175846,-0.117231 0.390769,-0.175846 0.03908,-0.01954 0.05862,-0.01954 0.586153,-0.254 0.05862,-0.01954 0.156307,-0.07815 0.09769,-0.03908 0.195384,-0.09769 c 0.214923,-0.09769 0.488462,-0.234461 0.937847,-0.390769 l 0.05862,-0.01954 c 0.156308,-0.01954 0.312615,-0.07815 0.468923,-0.09769 l 0.117231,-0.01954 0.156307,-0.07815 0.07815,-0.07815 0.254,-0.136769 0.781539,-0.273538 1.172307,-0.234462 0.801077,-0.312615 0.195385,-0.09769 0.214923,-0.03908 0.312615,-0.01954 0.312616,-0.05862 0.547077,-0.234462 c 0.156307,-0.01954 0.312615,-0.07815 0.449384,-0.09769 l 0.254,-0.03908 0.351693,-0.05862 0.156307,-0.03908 0.312616,-0.05862 0.468923,0.01954 0.351692,-0.03908 0.273539,-0.05862 c 0.37123,0 0.781538,0 1.172307,0.03908 z"
         id="path2573" />
      <path
         d="m 61.106439,57.836535 0.07815,-0.05862 0.214923,-0.07815 0.07815,-0.03908 0.117231,-0.11723 c 0.332154,-0.195385 0.683846,-0.449385 1.035538,-0.683847 l 0.09769,-0.03908 0.136769,-0.03908 0.254,-0.214923 0.175846,-0.117231 0.605692,-0.371231 0.312616,-0.156308 0.11723,-0.09769 0.117231,-0.03908 0.214923,-0.234461 -0.01954,-0.175847 -0.156308,-0.136769 -0.214923,-0.01954 -0.117231,0.09769 c -0.175846,0.09769 -0.293077,0.195385 -0.429846,0.273538 l -0.117231,0.05862 -0.07815,0.03908 -0.136769,0.07815 -0.214923,0.11723 -0.07815,0.07815 -0.136769,0.05862 -0.09769,0.09769 h -0.03908 l -0.136769,0.09769 -0.03908,0.01954 -0.175846,0.09769 -0.468924,0.234462 -0.09769,0.07815 -0.312615,0.156308 -0.07815,0.07815 -0.175846,0.117231 -0.136769,0.07815 -0.254,0.156307 -0.117231,0.07815 -0.117231,0.01954 -0.156308,0.09769 -0.254,0.156308 -0.312615,0.175846 -0.156308,0.07815 -0.644769,0.312615 -0.156308,0.03908 -0.312615,0.117231 -0.468923,0.11723 -0.07815,0.05862 -0.312615,0.175846 c 0,0 -0.03908,0.01954 -0.05862,0.03908 l -0.175846,0.03908 -0.175846,0.05862 c -0.156308,0.01954 -0.273538,0.07815 -0.410308,0.09769 h -0.09769 l -0.117231,-0.01954 -0.117231,0.01954 -0.07815,0.01954 -0.13677,-0.01954 h -0.136769 v -0.05861 l 0.03908,-0.234461 v -0.07815 l 0.09769,-0.39077 0.175847,-0.390769 0.03908,-0.09769 0.117231,-0.332154 c 0.01954,-0.03908 0.01954,-0.05862 0.09769,-0.136769 l 0.09769,-0.09769 0.214923,-0.371231 0.09769,-0.156308 0.136769,-0.195385 0.273539,-0.312615 0.293077,-0.332154 c 0.01954,-0.03908 0.05861,-0.09769 0.05861,-0.117231 l 0.195385,-0.11723 c 0,-0.01954 0,-0.05862 0.01954,-0.117231 l 0.136769,-0.136769 0.13677,-0.195385 0.195384,-0.273538 0.371231,-0.371231 0.05861,-0.136769 0.293077,-0.254 0.273539,-0.214923 0.234461,-0.254 0.175847,-0.195385 0.03908,-0.273538 v -0.13677 c -0.156307,-0.195384 -0.312615,-0.214923 -0.449384,-0.254 -0.293077,0 -0.586154,0.156308 -0.703385,0.273539 l -0.214923,0.195384 -0.195384,0.273539 -0.254,0.390769 -0.09769,0.07815 -0.07815,0.156308 -0.09769,0.136769 -0.254,0.312615 -0.09769,0.234462 -0.312616,0.429846 -0.234461,0.273538 -0.05862,0.09769 -0.175847,0.254 c -0.05862,0.05861 -0.11723,0.175846 -0.175846,0.254 l -0.05862,0.05862 -0.07815,0.136769 -0.05862,0.136769 c -0.03908,0.07815 -0.117231,0.156308 -0.156308,0.234462 l -0.09769,0.156308 -0.175847,0.156307 c 0,0 -0.01954,0.03908 -0.01954,0.05862 l -0.136769,0.156307 -0.156308,0.273539 c 0,0.03908 -0.03908,0.09769 -0.03908,0.117231 l -0.156308,0.390769 -0.136769,0.390769 v 0.117231 c -0.05862,0.175846 -0.07815,0.429846 -0.05862,0.566615 l -0.01954,0.156308 0.09769,0.117231 c 0.136769,0.195384 0.293077,0.312615 0.488461,0.371231 l 0.527539,0.09769 0.234461,-0.05862 0.273539,0.01954 0.273538,-0.03908 0.273539,-0.136769 0.312615,-0.05862 0.136769,-0.03908 0.136769,-0.05862 0.273539,-0.156308 c 0.01954,0 0.09769,-0.03908 0.117231,-0.05862 l 0.156307,-0.05861 0.312616,-0.195385 0.07815,-0.05862 0.37123,-0.175847 0.09769,-0.03908 0.195384,-0.117231 c 0.07815,-0.01954 0.175846,-0.07815 0.254,-0.09769 l 0.05862,-0.03908 0.136769,-0.09769 0.156308,-0.03908 0.273538,-0.11723 0.234462,-0.175847 z m 1.719385,-9.612923 c -0.07815,-0.156308 -0.214923,-0.293077 -0.547077,-0.332154 l -0.156308,0.03908 -0.234461,0.11723 -0.293077,0.293077 -0.117231,0.09769 -0.136769,0.09769 -0.175846,0.195385 -0.07815,0.09769 -0.156308,0.214923 -0.273538,0.410308 -0.07815,0.136769 -0.273539,0.644769 -0.01954,0.07815 0.03908,0.254 c 0.136769,0 0.273538,0 0.371231,-0.05862 l 0.136769,-0.09769 0.312615,-0.254 0.351692,-0.312615 c 0.07815,-0.07815 0.234462,-0.175846 0.332154,-0.254 l 0.07815,-0.05862 0.234462,-0.175847 c 0.429846,-0.234461 0.605692,-0.449384 0.703384,-0.664307 0.03908,-0.195385 0.01954,-0.312616 0,-0.429846 z"
         id="path2575" />
      <path
         d="m 64.369383,55.882688 0.156308,-0.156307 0.195384,-0.13677 0.234462,-0.175846 0.234461,-0.136769 0.13677,-0.07815 0.136769,-0.156307 0.156308,-0.09769 0.05862,-0.01954 0.410308,-0.195385 0.390769,-0.214923 0.410308,-0.175846 h 0.09769 c 0.117231,-0.07815 0.332154,-0.175846 0.468923,-0.254 l 0.117231,-0.01954 0.254,-0.13677 0.175846,-0.03908 0.605692,-0.273538 0.273539,-0.09769 0.488461,-0.05862 h 0.371231 c 0.214923,0 0.332154,0.03908 0.508,-0.117231 0.195384,-0.175846 0.293077,-0.449384 0.09769,-0.762 -0.09769,-0.195384 -0.234461,-0.254 -0.312615,-0.254 H 69.87923 c -0.156308,0 -0.332154,-0.01954 -0.625231,0.03908 l -0.09769,0.01954 -0.136769,0.01954 -0.429846,0.156308 -0.683847,0.371231 -0.09769,0.05862 -0.214923,0.117231 -0.547077,0.254 -0.527538,0.273538 -0.156308,0.09769 -0.429846,0.214923 -0.136769,0.117231 -0.937846,0.566615 -0.07815,0.05862 -0.13677,0.01954 -0.156307,0.156307 c -0.05862,0.05862 -0.117231,0.09769 -0.195385,0.13677 h -0.05862 l -0.175846,0.175846 c -0.07815,0.05861 -0.273539,0.195384 -0.254,0.175846 l -0.234462,0.175846 -0.156308,0.03908 -0.156307,0.136769 c -0.01954,0.01954 -0.03908,0.05862 -0.03908,0.07815 l -0.136769,0.05862 -0.156308,0.156308 -0.05862,0.01954 -0.175846,0.254 -0.195384,0.195384 v 0.01954 l -0.13677,0.156307 -0.234461,0.214923 -0.136769,0.156308 -0.07815,0.136769 -0.117231,0.234462 -0.09769,0.312615 v 0.195385 c -0.01954,0.07815 -0.01954,0.136769 -0.01954,0.254 l 0.01954,0.117231 0.01954,0.156307 0.175846,0.332154 0.429847,0.195385 c 0.01954,0 0.05862,0.01954 0.09769,0.03908 l 0.254,0.09769 0.332154,0.03908 0.11723,-0.01954 h 0.13677 l 0.468923,-0.03908 0.371231,-0.09769 0.605692,-0.254 0.468923,-0.175846 c 0.214923,-0.05861 0.429846,-0.156308 0.644769,-0.214923 l 0.879231,-0.273538 0.605692,-0.254 0.175846,-0.05862 0.175846,-0.07815 0.625231,-0.214923 0.214923,-0.07815 0.05862,-0.01954 0.09769,-0.01954 0.117231,-0.01954 0.214923,-0.07815 0.09769,-0.07815 0.07815,-0.01954 0.254,-0.07815 0.566615,-0.273538 0.605693,-0.214923 0.175846,-0.05862 h 0.07815 l 0.214923,-0.09769 0.312615,-0.09769 0.175846,-0.09769 c 0.39077,-0.156307 0.820616,-0.332154 1.582616,-0.801077 l 0.156307,-0.05861 0.312616,-0.254 0.09769,-0.195385 -0.01954,-0.136769 -0.117231,-0.136769 h -0.175846 l -0.117231,0.01954 -0.07815,0.07815 -0.273538,0.136769 c -0.234462,0.117231 -0.449385,0.254 -0.664308,0.351693 l -0.781539,0.312615 -0.351692,0.136769 -0.527538,0.234462 -0.508,0.175846 -0.214923,0.05861 -0.175847,0.03908 -0.547076,0.195385 -0.09769,0.01954 -0.117231,0.03908 -0.722923,0.254 -0.527538,0.156308 c -0.234462,0.07815 -0.488462,0.156308 -0.742462,0.254 l -0.37123,0.09769 -0.117231,0.09769 -0.117231,0.03908 -0.468923,0.09769 -0.136769,0.09769 -0.117231,0.05862 -0.195385,0.07815 -0.293076,0.09769 h -0.05862 l -0.547077,0.136769 -0.195384,0.05861 -0.156308,0.01954 -0.273539,0.07815 h -0.254 l -0.195384,0.01954 -0.254,0.07815 c -0.05862,0 -0.117231,0.01954 -0.175846,0.01954 -0.117231,0.01954 -0.273539,0.01954 -0.351693,0 l -0.136769,-0.05862 -0.05862,-0.01954 -0.05862,-0.07815 c 0,-0.03908 0.01954,-0.117231 0.01954,-0.175846 l 0.05861,-0.09769 0.09769,-0.117231 0.09769,-0.195384 0.332154,-0.351692 0.37123,-0.332154 0.117231,-0.175846 0.09769,-0.07815 0.273538,-0.214923 0.429846,-0.351693 z"
         id="path2577" />
      <path
         d="m 72.555999,56.703304 0.214923,-0.214923 0.136769,-0.195385 c 0.03908,-0.03908 0.07815,-0.136769 0.117231,-0.175846 l 0.136769,-0.136769 0.195385,-0.214923 0.254,-0.273539 0.214923,-0.195384 0.136769,-0.13677 0.293077,-0.273538 c 0.01954,-0.01954 0.07815,-0.07815 0.09769,-0.117231 0.03908,-0.03908 0.07815,-0.03908 0.11723,-0.07815 l 0.312616,-0.234461 0.05862,-0.01954 0.312615,-0.175846 0.254,-0.214923 0.351693,-0.214923 0.07815,-0.03908 0.429846,-0.195385 0.03908,-0.03908 0.234461,-0.117231 0.136769,-0.05862 c 0.293077,-0.156307 0.742462,-0.351692 1.172308,-0.449384 l 0.117231,-0.01954 0.136769,-0.01954 h 0.214923 c 0.01954,0 0.03908,0.01954 0.07815,0.03908 l 0.156308,0.09769 c 0,0.01954 0.01954,0.01954 0.03908,0.03908 l -0.09769,0.273538 -0.03908,0.09769 c 0,0.03908 0,0.03908 -0.01954,0.07815 -0.01954,0.03908 -0.09769,0.11723 -0.117231,0.136769 l -0.801077,0.625231 -0.195384,0.156307 -0.13677,0.07815 c -0.195384,0.09769 -0.468923,0.273539 -0.664307,0.371231 l -0.410308,0.175846 -0.429846,0.234462 -0.429846,0.136769 -0.195385,0.07815 -0.195384,0.05862 -0.214924,0.05861 c -0.195384,0.01954 -0.449384,0.07815 -0.644769,0.09769 -0.01954,0 -0.05862,0.03908 -0.07815,0.03908 -0.312615,0.11723 -0.488461,0.195384 -0.801077,0.566615 l -0.01954,0.156308 0.01954,0.195384 0.254,0.117231 h 0.175847 l 0.332153,-0.01954 0.586154,-0.09769 0.351693,-0.136769 0.527538,-0.234461 0.254,-0.175847 0.566615,-0.273538 0.09769,-0.05861 c 0.449384,-0.234462 0.87923,-0.488462 1.348154,-0.801077 l 0.11723,-0.01954 0.117231,-0.09769 0.605692,-0.371231 0.234462,-0.156308 0.195385,-0.175846 0.234461,-0.175846 0.254,-0.293077 0.07815,-0.254 0.05862,-0.195384 0.01954,-0.214923 -0.01954,-0.07815 -0.03908,-0.214923 c -0.03908,-0.156308 -0.136769,-0.234462 -0.254,-0.332154 l -0.21492,-0.11722 c -0.03908,-0.01954 -0.09769,-0.05862 -0.214923,-0.09769 -0.07815,0 -0.195384,-0.01954 -0.273538,-0.01954 h -0.293077 c -0.05862,0 -0.117231,0.01954 -0.175846,0.01954 h -0.195385 l -0.429846,0.09769 c -0.136769,0.03908 -0.273539,0.117231 -0.586154,0.214923 l -0.254,0.03908 -0.09769,0.01954 -0.175846,0.09769 -0.508,0.254 -0.234462,0.175846 c -0.468923,0.273538 -0.898769,0.605692 -1.309077,0.898769 l -0.07815,0.05862 -0.03908,0.01954 -0.293076,0.156308 -0.156308,0.09769 -0.156308,0.136769 c -0.01954,0.03908 -0.07815,0.07815 -0.09769,0.117231 l -0.03908,0.03908 -0.273539,0.254 -0.175846,0.156308 -0.234461,0.214923 -0.273539,0.195384 -0.351692,0.410308 -0.254,0.293077 -0.214923,0.351692 c -0.03908,0.117231 -0.09769,0.175846 -0.136769,0.293077 l -0.13677,0.254 -0.136769,0.488462 v 0.175846 l -0.01954,0.156307 0.01954,0.293077 0.05862,0.273539 0.09769,0.254 0.273538,0.390769 0.488462,0.234462 0.488461,0.07815 0.371231,-0.03908 0.371231,-0.07815 0.117231,-0.01954 0.332154,-0.09769 c 0.175846,-0.03908 0.312615,-0.05861 0.390769,-0.09769 l 0.117231,-0.03908 0.332153,-0.05862 0.332154,-0.11723 0.312616,-0.09769 0.390769,-0.07815 0.625231,-0.312615 c 0.09769,-0.03908 0.195384,-0.117231 0.293077,-0.156308 0.254,-0.09769 0.527538,-0.195384 0.762,-0.293077 l 0.175846,-0.07815 0.175846,-0.03908 0.488461,-0.195385 0.89877,-0.429846 0.05862,-0.05862 c 0.156308,-0.05861 0.312615,-0.156307 0.468923,-0.234461 l 0.234462,-0.117231 0.742461,-0.332154 c 0.07815,-0.05862 0.214923,-0.11723 0.254,-0.136769 l 0.195385,-0.09769 c 0,0 0.07815,-0.05862 0.117231,-0.07815 l 0.507999,-0.254 h 0.03908 l 0.117231,-0.03908 0.09769,-0.07815 0.13677,-0.07815 0.156307,-0.09769 0.410308,-0.234462 0.03908,-0.01954 0.254,-0.175846 0.410308,-0.254 0.11723,-0.07815 0.156308,-0.07815 c 0.136769,-0.07815 0.273539,-0.293077 0.214923,-0.410307 -0.05862,-0.13677 -0.214923,-0.13677 -0.332154,-0.13677 -0.136769,0.01954 -0.195384,0.03908 -0.273538,0.09769 -0.07815,0.03908 -0.09769,0.03908 -0.234462,0.136769 l -0.390769,0.214923 -0.898769,0.547077 -0.117231,0.09769 -0.586154,0.273539 -0.293077,0.09769 -0.195384,0.09769 -0.07815,0.01954 -0.273538,0.136769 -0.781539,0.371231 c -0.273538,0.11723 -0.566615,0.273538 -0.918308,0.429846 l -0.05862,0.01954 -0.664308,0.234462 -0.214923,0.03908 -0.214923,0.09769 -1.152769,0.488462 -0.117231,0.01954 -0.175846,0.09769 -0.703385,0.234462 -0.332153,0.136769 -1.367693,0.312615 -0.293077,0.03908 h -0.254 l -0.273538,-0.07815 c -0.293077,-0.05862 -0.390769,-0.07815 -0.429846,-0.13677 -0.05862,-0.11723 -0.05862,-0.254 -0.03908,-0.312615 0,-0.117231 0.01954,-0.390769 0.01954,-0.527539 l 0.195385,-0.390769 c 0,-0.01954 0,-0.01954 0.01954,-0.01954 z"
         id="path2579" />
      <path
         d="m 94.673529,47.109919 h -0.254 l -0.332154,0.05862 -0.09769,-0.01954 -0.05862,0.01954 -0.332154,0.03908 h -0.11723 l -0.13677,0.03908 -0.527538,0.11723 h -0.05862 l -0.136769,0.01954 -0.05862,-0.01954 -0.410308,0.03908 -0.547077,0.07815 -0.05862,0.01954 -0.781539,0.09769 -0.11723,-0.03908 -0.332154,0.01954 -0.312616,0.13677 -0.254,0.03908 c -0.312615,0.05862 -0.488461,0.11723 -0.801076,0.254 l -0.13677,0.05862 c -0.214923,0.09769 -0.254,0.195385 -0.293077,0.273538 l -0.03908,0.175847 0.01954,0.254 0.136769,0.156307 0.117231,0.117231 0.195385,0.07815 0.351692,0.03908 0.410308,-0.07815 0.175846,-0.07815 0.62523,-0.234461 0.175847,-0.05862 0.136769,-0.03908 0.156308,-0.05861 0.996461,-0.254 0.156308,-0.03908 0.508,-0.117231 0.136769,-0.01954 0.175846,-0.01954 0.586154,-0.07815 0.586154,-0.03908 0.234461,-0.03908 h 0.09769 l -0.01954,0.07815 -0.214923,0.214923 -0.07815,0.13677 -0.156307,0.175846 -0.234462,0.293077 -0.214923,0.293077 -0.03908,0.07815 h -0.05862 l -0.273539,0.390769 -0.09769,0.214923 -0.214923,0.214923 -0.117231,0.175846 c -0.07815,0.117231 -0.117231,0.175846 -0.254,0.312615 l -0.351692,0.449385 -0.09769,0.09769 c -0.234461,0.312616 -0.488461,0.703385 -0.722923,1.035539 l -0.175846,0.156307 -0.05862,0.09769 c -0.175846,0.214923 -0.293077,0.390769 -0.410308,0.547077 l -0.195384,0.254 -0.273539,0.273538 -0.117231,0.195385 -0.273538,0.351692 c 0,0.01954 -0.01954,0.01954 -0.01954,0.03908 l -0.156307,0.195385 -0.117231,0.175846 -0.136769,0.214923 -0.117231,0.175846 -0.156308,0.195385 -0.07815,0.09769 -0.11723,0.117231 c 0,0.01954 -0.01954,0.05862 -0.01954,0.09769 l -0.156308,0.175846 -0.156307,0.195385 -0.07815,0.11723 -0.156308,0.175847 -0.09769,0.136769 -0.156308,0.195384 -0.156307,0.234462 -0.09769,0.136769 c -0.03908,0.03908 -0.05861,0.117231 -0.09769,0.156308 l -0.09769,0.117231 -0.117231,0.136769 c 0,0.01954 -0.03908,0.09769 -0.03908,0.136769 l -0.09769,0.136769 -0.214923,0.39077 -0.07815,0.195384 -0.13677,0.175846 -0.03908,0.09769 v 0.05861 l -0.09769,0.136769 c 0,0.03908 -0.03908,0.156308 -0.03908,0.195385 -0.09769,0.293077 -0.156307,0.468923 -0.175846,0.605692 0,0.01954 -0.01954,0.09769 -0.01954,0.136769 v 0.234462 l 0.03908,0.175846 0.09769,0.214923 0.234461,0.09769 0.117231,0.01954 0.136769,0.03908 0.09769,0.01954 0.254,-0.01954 0.722923,-0.214923 0.508,-0.175846 0.312615,-0.156308 0.195385,-0.03908 0.351692,-0.234461 0.312616,-0.117231 0.195384,-0.117231 h 0.05862 l 0.214923,-0.175846 0.195384,-0.09769 0.390769,-0.214924 0.117231,-0.05862 c 0,0 0.05862,-0.03908 0.07815,-0.03908 l 0.156308,-0.01954 0.09769,-0.03908 0.156308,-0.05862 0.11723,-0.01954 c 0.01954,-0.01954 0.07815,-0.03908 0.117231,-0.07815 0.01954,-0.01954 0.07815,-0.07815 0.117231,-0.09769 h 0.01954 l 0.234462,-0.07815 0.136769,-0.03908 0.254,-0.214923 0.488462,-0.195385 0.136769,-0.09769 0.273538,-0.156308 0.03908,-0.03908 0.13677,-0.07815 0.273538,-0.13677 0.175846,-0.03908 0.214923,-0.09769 0.312616,-0.175846 0.214923,-0.136769 0.156307,-0.07815 0.01954,-0.01954 0.527538,-0.351692 0.03908,-0.03908 0.117231,-0.05862 0.195385,-0.117231 0.01954,-0.156308 -0.01954,-0.175846 -0.117231,-0.09769 -0.234462,0.01954 -0.136769,0.07815 -0.03908,0.01954 -0.05861,0.01954 -0.09769,0.03908 -0.312616,0.175846 -0.117231,0.09769 -0.05862,0.01954 -0.508,0.273538 -0.273538,0.09769 -0.234462,0.07815 -0.312615,0.195384 -0.07815,0.09769 -0.273539,0.117231 -0.214923,0.07815 -0.136769,0.05861 -0.234462,0.13677 -0.87923,0.410307 -0.07815,0.01954 -0.234462,0.136769 -0.566615,0.254 -0.07815,0.03908 -0.175846,0.03908 -0.195385,0.117231 -0.37123,0.175846 -0.508,0.254 h -0.117231 l -0.09769,0.05861 -0.175847,0.05862 -0.136769,0.01954 -0.156308,0.09769 -0.156307,0.05862 -0.156308,0.05862 -0.156308,0.09769 -0.156307,0.03908 -0.13677,0.03908 -0.351692,0.07815 h -0.01954 l 0.01954,-0.175846 c 0,-0.07815 0.07815,-0.195385 0.07815,-0.273538 l 0.156308,-0.254 0.01954,-0.13677 v -0.09769 l 0.136769,-0.273538 0.214923,-0.410308 0.195385,-0.273539 c 0.03908,-0.11723 0.09769,-0.195384 0.136769,-0.312615 l 0.214923,-0.390769 0.07815,-0.117231 0.312616,-0.410308 c 0.05861,-0.09769 0.07815,-0.05861 0.11723,-0.156307 l 0.351693,-0.488462 0.351692,-0.527538 0.508,-0.625231 0.254,-0.293077 0.429846,-0.547077 0.07815,-0.175846 0.03908,-0.05861 0.136769,-0.175847 0.136769,-0.136769 0.13677,-0.156308 0.11723,-0.136769 0.117231,-0.214923 c 0.03908,-0.05862 0.07815,-0.136769 0.117231,-0.175846 l 0.117231,-0.117231 0.05862,-0.117231 0.371231,-0.468923 0.136769,-0.175846 0.625231,-0.820615 0.371231,-0.410308 0.175846,-0.234461 0.293077,-0.429846 0.312615,-0.351693 c 0,0 0.01954,-0.05862 0.01954,-0.07815 0.09769,-0.136769 0.175847,-0.214923 0.293077,-0.351692 l 0.117231,-0.07815 0.05862,-0.136769 0.254,-0.332154 0.175846,-0.214923 0.703384,-0.136769 0.234462,-0.01954 0.566615,-0.01954 0.156308,-0.05862 0.07815,-0.01954 c 0.62523,-0.01954 1.250461,-0.01954 1.875692,-0.01954 h 0.136769 c 0.05862,0 0.117231,0.01954 0.175846,0.01954 l 0.05862,0.01954 0.07815,-0.01954 c 0.136769,0 0.293077,0 0.449384,0.01954 l 0.253993,0.03908 h 0.17585 c 0.0391,0 0.0977,0.01954 0.15631,0.01954 l 0.35169,0.05861 0.15631,-0.01954 h 0.19538 c 0.0195,0 0.0782,0.01954 0.11723,0.01954 l 0.33216,0.05862 c 0.0977,0 0.254,0.03908 0.37123,0.03908 0.23446,0.03908 0.42984,0.05862 0.64477,0.11723 l 0.29307,0.07815 0.23446,0.117231 0.17585,0.03908 c 0.0977,0 0.254,0.03908 0.35169,0.03908 l 0.29308,0.117231 c 0.0781,0.11723 0.23446,0.156307 0.27354,0.156307 l 0.11723,0.03908 0.19538,0.117231 c 0,0 0.0195,0.01954 0.0391,0.01954 0,0 0.0977,0.05862 0.15631,0.07815 l 0.29308,0.214923 h 0.0195 l 0.17585,0.156308 0.15631,0.195385 0.13677,0.234461 0.11723,0.293077 c 0.0391,0.05862 0.11723,0.234462 0.15631,0.332154 0,0.03908 0.0195,0.09769 0.0195,0.136769 l 0.0586,0.332154 0.0977,0.117231 0.13677,0.03908 0.0977,-0.13677 0.13677,-0.332153 V 50.23607 l -0.0586,-0.175846 -0.0977,-0.371231 -0.0781,-0.175846 -0.13677,-0.234461 -0.0195,-0.01954 -0.23446,-0.332154 c -0.0195,0 -0.0391,-0.01954 -0.0782,-0.01954 l -0.0586,-0.05862 -0.17584,-0.156307 -0.15631,-0.195385 h -0.13677 l -0.11723,-0.07815 -0.0782,-0.136769 -0.27353,-0.136769 -0.13677,-0.01954 c 0.0195,0 0,-0.01954 -0.0195,-0.03908 -0.0195,0 -0.0195,0 -0.0586,-0.01954 l -0.39077,-0.156308 c -0.0195,0 -0.0586,-0.01954 -0.0781,-0.03908 l -0.66431,-0.273538 c -0.0782,-0.01954 -0.0782,0 -0.0782,0 l -0.11723,-0.09769 c -0.0195,0 -0.0586,-0.01954 -0.0977,-0.01954 l -0.39077,-0.03908 -0.15631,-0.09769 h -0.31262 c -0.0195,0 -0.0977,-0.01954 -0.11723,-0.03908 l -0.52754,-0.136769 -0.19538,-0.01954 c -0.0195,0 -0.0782,-0.01954 -0.0977,-0.01954 l -0.23446,-0.05862 -0.21493,-0.01954 h -0.13677 c -0.0977,0 -0.19538,0.03908 -0.29307,0.03908 l -0.27354,-0.05862 -0.214921,0.03908 c -0.03908,0 -0.175846,-0.01954 -0.214923,-0.03908 l -0.254,-0.05862 h -0.13677 l -0.175846,-0.05861 h -0.547077 l -0.566615,0.05861 -0.722923,-0.01954 -0.586154,0.05862 -0.312615,0.01954 -0.195385,0.01954 0.175846,-0.214923 0.722923,-0.820616 0.429846,-0.429846 0.195385,-0.234461 0.273539,-0.214923 0.11723,-0.156308 0.175846,-0.195385 0.13677,-0.175846 0.195384,-0.156307 0.117231,-0.156308 -0.01954,-0.293077 -0.05862,-0.175846 -0.214923,-0.214923 -0.175846,-0.01954 -0.214923,0.03908 -0.214923,0.214923 -0.195385,0.234462 -0.07815,0.07815 -0.09769,0.07815 -0.156308,0.175846 -0.214923,0.195384 -0.09769,0.156308 v 0.01954 l -0.09769,0.13677 -0.05862,0.05861 -0.07815,0.09769 -0.13677,0.13677 c 0,0 -0.01954,0.03908 -0.01954,0.05862 l -0.05862,0.05861 -0.214923,0.293077 -0.07815,0.09769 -0.214924,0.234461 -0.234461,0.312615 -0.05861,0.07815 -0.527539,0.722923 -0.01954,0.05862 -0.254,-0.03908 z"
         id="path2581" />
      <path
         d="m 100.63278,55.218381 0.0195,-0.39077 -0.0977,-0.234461 -0.0781,-0.175846 -0.31262,-0.332154 -0.1563,-0.09769 -0.03908,-0.01954 -0.09769,-0.07815 0.13677,-0.05861 0.54707,-0.07815 0.39077,-0.05862 0.37123,0.01954 0.0782,-0.05861 0.15631,-0.03908 c 0.60569,-0.09769 1.21138,-0.175846 2.07107,-0.234462 0.0977,0 0.17585,0 0.23446,-0.01954 0.0782,-0.01954 0.15631,-0.03908 0.254,-0.03908 l 0.23447,-0.01954 h 0.29307 c 0.29308,0 0.82062,0 1.25046,0.09769 l 0.29308,0.07815 0.13677,0.09769 0.15631,0.07815 v 0.05861 l -0.0782,0.254 -0.13677,0.234462 -0.0781,0.156307 -0.0391,0.13677 -0.0195,0.09769 0.0195,0.234461 0.11723,0.01954 0.23447,-0.05861 0.11723,-0.117231 c 0.0586,-0.05862 0.0977,-0.09769 0.17584,-0.234462 l 0.17585,-0.273538 0.0977,-0.195385 0.0391,-0.195384 -0.0195,-0.234462 -0.0782,-0.156308 -0.254,-0.254 c -0.0195,0 -0.0391,0 -0.0782,-0.01954 -0.0391,-0.03908 -0.0391,-0.07815 -0.21492,-0.117231 h 0.0195 l -0.17585,-0.09769 h -0.0781 l -0.0391,-0.01954 c -0.254,-0.07815 -0.44938,-0.136769 -0.60569,-0.156307 l -0.0977,-0.01954 -0.15631,-0.01954 h -0.0586 l -0.13677,-0.03908 -0.19538,0.01954 -0.21492,-0.01954 h -0.13677 l -0.11723,0.01954 h -0.11723 l -0.0782,-0.01954 -0.11723,0.03908 c -0.0586,0 -0.11723,0.01954 -0.17585,0.01954 h -0.19538 c -0.0781,0.01954 -0.15631,0.01954 -0.21492,0.01954 l -0.254,-0.01954 -0.15631,0.01954 h -0.39077 l -0.19538,0.01954 -0.15631,0.01954 -0.31262,0.09769 -0.29307,0.01954 -0.23447,0.05862 -0.46892,0.07815 c -0.0586,-0.03908 -0.15631,-0.09769 -0.23446,-0.117231 l -0.0977,-0.03908 h -0.11723 c -0.13677,-0.01954 -0.33216,0 -0.44939,0.01954 l -0.15631,0.01954 -0.17584,0.01954 -0.156308,0.07815 h -0.01954 l -0.156308,0.07815 -0.234462,0.156308 c -0.01954,0.01954 -0.09769,0.03908 -0.136769,0.05861 l -0.273538,0.03908 -0.07815,-0.01954 -0.371231,0.05861 -0.293077,-0.01954 H 97.85829 c -0.273538,-0.03908 -0.508,-0.05862 -0.781538,-0.05862 l -0.332154,-0.05861 -0.136769,-0.05862 -0.254,0.01954 -0.234462,0.03908 -0.254,0.09769 -0.195384,0.332154 -0.01954,0.234461 0.156308,0.195385 0.156307,0.09769 0.234462,0.05862 0.488462,-0.01954 c 0.175846,0 0.351692,-0.01954 0.488461,-0.03908 0.05862,0 0.09769,-0.01954 0.136769,-0.01954 h 0.293077 l -0.09769,0.05862 -0.09769,0.05862 -0.39077,0.273538 -0.254,0.156308 -0.214923,0.136769 -0.195384,0.136769 h -0.05862 l -0.136769,0.136769 -0.468923,0.351693 -0.09769,0.07815 -0.214923,0.175846 c -0.03908,0.01954 -0.09769,0.07815 -0.117231,0.09769 l -0.01954,0.01954 -0.429846,0.312616 -0.07815,0.07815 -0.195384,0.156307 -0.234462,0.214923 -0.703384,0.703385 -0.175847,0.254 -0.136769,0.234462 -0.07815,0.390769 0.01954,0.175846 0.05862,0.156308 c 0.03908,0.136769 0.293077,0.351692 0.488462,0.449384 l 0.03908,0.01954 c 0.214923,0.09769 0.332154,0.117231 0.429846,0.136769 0.117231,0.01954 0.273538,0.03908 0.449384,0.03908 l 0.371231,0.01954 h 0.136769 l 0.273539,-0.03908 0.117231,-0.01954 0.05862,-0.05861 c 0.195385,-0.03908 0.410308,-0.13677 0.762,-0.273539 l 0.05862,-0.01954 c 0.01954,0 0.05862,-0.03908 0.07815,-0.05862 l 0.07815,-0.01954 0.136769,-0.03908 0.214923,-0.05862 0.05862,-0.01954 0.175846,-0.07815 c 0,0 0.05861,-0.05861 0.07815,-0.09769 l 0.117231,-0.01954 0.136769,-0.136769 0.175846,-0.117231 0.05862,-0.03908 0.117231,-0.03908 0.254,-0.175847 0.03908,-0.01954 c 0.449385,-0.273538 0.879231,-0.547077 1.211385,-0.859692 l 0.195384,-0.156308 0.175846,-0.195385 0.175847,-0.175846 0.214917,-0.156307 0.19539,-0.273539 c 0.0391,-0.07815 0.0781,-0.214923 0.0977,-0.273538 0.15631,-0.371231 0.15631,-0.429847 0.17585,-0.508 z m -1.270002,0.683846 -0.13677,0.136769 c 0,0 -0.01954,0.03908 -0.01954,0.05862 l -0.175846,0.175847 -0.195385,0.175846 -0.05862,0.07815 c -0.156308,0.136769 -0.312616,0.293077 -0.468923,0.410307 l -0.09769,0.07815 -0.547076,0.371231 h -0.13677 l -0.37123,0.293077 -0.351693,0.175846 -0.03908,0.01954 c -0.254,0.09769 -0.547077,0.214924 -0.859692,0.312616 -0.625231,0.214923 -0.762,0.273538 -1.367692,0.234461 h -0.03908 l -0.09769,-0.05862 -0.117231,-0.117231 v -0.117231 l 0.01954,-0.05861 0.01954,-0.156308 0.03908,-0.09769 c 0,0 0,-0.03908 0.01954,-0.05862 0.05862,-0.13677 0.156308,-0.293077 0.254,-0.429846 l 0.156308,-0.175847 0.175846,-0.234461 c 0.01954,-0.03908 0.136769,-0.156308 0.175846,-0.195385 l 0.254,-0.195384 0.136769,-0.117231 0.214923,-0.136769 0.214923,-0.195385 0.254,-0.175846 0.117231,-0.09769 c 0.136769,-0.07815 0.273539,-0.195385 0.410308,-0.273539 l 0.09769,-0.05862 0.234462,-0.156308 0.547077,-0.332154 c 0.62523,-0.332154 0.918307,-0.547077 1.13323,-0.683846 l 0.13677,-0.09769 c 0.01954,0.01954 0.05862,0.01954 0.05862,0.01954 l 0.234462,0.136769 0.11723,0.03908 0.117231,0.03908 0.156308,0.09769 0.136769,0.09769 0.01954,0.01954 c 0,0.01954 0.07815,0.156308 0.09769,0.195385 0,0.07815 -0.01954,0.117231 -0.01954,0.175846 l -0.07815,0.214923 v 0.117231 c -0.07815,0.156308 -0.156307,0.312615 -0.312615,0.508 z"
         id="path2583" />
      <path
         d="m 121.05047,58.500842 0.19538,0.09769 c 0.0977,0.03908 0.19538,0.03908 0.29308,0.03908 h 0.19538 c 0.15631,0 0.29308,-0.01954 0.42985,-0.05862 h 0.0977 l 0.23446,-0.07815 0.27354,-0.07815 0.0977,-0.01954 0.19539,-0.07815 c 0,0 0.0391,-0.01954 0.0586,-0.01954 l 0.19539,-0.07815 h 0.0586 c 0.0195,-0.01954 0.11723,-0.05862 0.17585,-0.07815 l 0.33215,-0.156308 0.27354,-0.09769 0.19539,-0.07815 c 0,0 0.0782,-0.07815 0.11723,-0.09769 h 0.0391 l 0.27354,-0.156308 0.0586,-0.03908 0.0391,-0.01954 0.15631,-0.09769 0.0977,-0.05862 0.46893,-0.234462 0.13677,-0.07815 0.21492,-0.13677 0.19538,-0.09769 0.27354,-0.136769 0.58616,-0.371231 0.0782,-0.01954 0.13677,-0.13677 0.0977,-0.05861 0.19539,-0.05862 0.0195,-0.254 -0.0586,-0.117231 -0.11723,-0.09769 -0.17585,0.01954 -0.17584,0.117231 -0.254,0.156307 -0.13677,0.09769 -0.19539,0.03908 -0.0977,0.07815 -0.70338,0.351692 -0.0195,0.01954 -0.58616,0.293077 -0.254,0.136769 -0.254,0.117231 -0.0781,0.03908 -0.11723,0.01954 -0.31262,0.175846 h -0.0195 l -0.11723,0.07815 -0.11723,0.01954 -0.29307,0.175846 c -0.13677,0.05862 -0.23447,0.136769 -0.37123,0.195385 l -0.11724,0.01954 -0.33215,0.117231 -0.11723,0.03908 c -0.33215,0.05861 -0.33215,0.07815 -0.33215,0.07815 l -0.17585,0.01954 c -0.254,0.03908 -0.48846,0 -0.66431,-0.09769 0,-0.05862 -0.0195,-0.175846 0.0391,-0.254 l 0.0586,-0.136769 0.15631,-0.254 0.0391,-0.05862 0.21492,-0.293077 0.15631,-0.195384 0.0195,-0.03908 0.13677,-0.351692 0.21492,-0.293077 c 0.0195,-0.07815 0.0781,-0.156308 0.0977,-0.234462 l 0.0782,-0.156308 0.0391,-0.214923 0.0391,-0.11723 V 55.10115 l -0.17585,-0.175846 -0.1563,-0.03908 H 122.184 l -0.13677,0.01954 -0.13677,0.03908 -0.17585,0.03908 -0.19538,0.07815 -0.0586,0.01954 -0.17584,0.09769 -0.0977,0.07815 -0.23446,0.136769 -0.19538,0.156308 -0.0782,0.05861 -0.0781,0.05862 -0.84015,0.625231 c -0.15631,0.07815 -0.31262,0.214923 -0.44939,0.312615 l -0.0977,0.07815 -0.27354,0.214923 -0.17585,0.156308 c 0,0 -0.1563,0.117231 -0.29307,0.234462 l -0.254,0.195384 -0.29308,0.234462 -0.0977,0.03908 h -0.0977 l -0.0195,-0.01954 -0.0195,-0.156307 0.0195,-0.117231 0.0195,-0.05862 0.0391,-0.11723 0.0977,-0.214923 0.0586,-0.13677 0.0782,-0.195384 0.11723,-0.234462 0.0977,-0.156308 0.11723,-0.273538 0.254,-0.390769 0.52754,-0.859693 0.17584,-0.234461 0.21493,-0.254 0.31261,-0.312615 c 0.0391,-0.03908 0.0782,-0.13677 0.11723,-0.175847 l 0.19539,-0.195384 0.0586,-0.07815 0.15631,-0.214923 c 0.11723,-0.136769 0.29308,-0.371231 0.35169,-0.488462 l 0.0782,-0.09769 0.0391,-0.293077 -0.0586,-0.175846 -0.15631,-0.156308 -0.15631,-0.01954 h -0.21492 l -0.21492,0.03908 -0.254,0.05862 -0.42985,0.09769 -0.33215,0.13677 -0.58616,0.273538 -0.0195,0.03908 -0.254,0.175846 -0.17584,0.07815 -0.21493,0.136769 -0.0977,0.03908 c -0.0586,0.03908 -0.13677,0.136769 -0.19538,0.175846 l -0.0782,0.03908 -0.13677,0.07815 -0.0782,0.05862 -0.254,0.156307 -0.21492,0.117231 -0.27354,0.195385 -0.15631,0.136769 -0.508,0.390769 -0.17584,0.195385 -0.15631,0.09769 -0.0195,0.01954 -0.15631,0.13677 -0.11723,0.07815 -0.0977,0.117231 -0.13677,0.117231 -0.29308,0.195385 -0.23446,0.214923 -0.11723,0.09769 -0.21492,0.195385 -0.29308,0.254 -0.19538,0.175846 -0.23447,0.156307 -0.19538,0.175847 -0.13677,0.156307 -0.33215,0.234462 -0.29308,0.214923 -0.39077,0.351692 -0.19538,0.195385 -0.13677,0.117231 -0.0977,0.07815 -0.17584,0.156308 -0.35169,0.234462 c -0.15631,0.136769 -0.19539,0.175846 -0.21493,0.195384 l 0.33216,-0.488461 0.29307,-0.390769 c 0.0586,-0.09769 0.0977,-0.09769 0.13677,-0.175847 l 0.19539,-0.293077 0.17584,-0.214923 0.21493,-0.195384 c 0,0 0.0195,-0.05862 0.0195,-0.07815 l 0.0977,-0.117231 0.17584,-0.254 0.17585,-0.254 0.13677,-0.175846 0.254,-0.312615 c 0,-0.01954 0.0391,-0.03908 0.0586,-0.05862 l 0.21493,-0.293077 0.29307,-0.332154 0.19539,-0.234461 0.15631,-0.195385 0.13677,-0.175846 0.0782,-0.117231 0.15631,-0.214923 0.0391,-0.09769 0.15631,-0.234461 0.0782,-0.117231 v -0.01954 l 0.1563,-0.234461 0.33216,-0.332154 0.1563,-0.214923 0.27354,-0.351692 0.0391,-0.175847 0.0391,-0.136769 c -0.0391,-0.312615 -0.19539,-0.371231 -0.33216,-0.488461 H 114.974 l -0.1563,0.01954 -0.11723,0.07815 -0.0391,0.01954 -0.15631,0.13677 -0.0977,0.11723 -0.15631,0.254 c 0,0.01954 -0.0195,0.03908 -0.0391,0.05862 l -0.1563,0.312615 -0.0782,0.117231 c 0,0.01954 -0.0391,0.07815 -0.0391,0.09769 l -0.0391,0.09769 -0.11723,0.234461 -0.21492,0.351692 -0.0977,0.156308 -0.13677,0.156308 -0.17584,0.332154 -0.0586,0.11723 -0.0781,0.117231 -0.15631,0.234462 c 0,0.01954 -0.0195,0.03908 -0.0195,0.03908 l -0.0781,0.09769 c -0.0782,0.07815 -0.15631,0.234461 -0.23446,0.332154 l -0.3517,0.449384 -0.11723,0.195385 -0.39077,0.488461 c -0.0195,0.01954 -0.0586,0.09769 -0.0586,0.117231 l -0.0977,0.117231 -0.3517,0.488462 -0.0977,0.156307 -0.0586,0.09769 -0.11723,0.11723 -0.13677,0.195385 0.0195,-0.01954 -0.11724,0.13677 c 0,0.01954 -0.0391,0.09769 -0.0391,0.11723 l -0.0782,0.09769 -0.17584,0.195384 -0.19539,0.293077 -0.0586,0.09769 -0.46893,0.62523 -0.0977,0.195385 -0.0195,0.07815 -0.17584,0.214923 -0.0195,0.136769 -0.0391,0.175846 v 0.214923 c 0,0.01954 0.0782,0.09769 0.0977,0.117231 l 0.17585,0.195385 0.254,0.03908 h 0.17585 l 0.27354,-0.05862 0.11723,-0.07815 0.254,-0.175846 0.13677,-0.156307 v -0.01954 l 0.0977,-0.117231 0.11723,-0.136769 0.27354,-0.234461 0.13677,-0.156308 0.19538,-0.195385 0.0977,-0.136769 0.254,-0.195385 0.21493,-0.234461 0.0781,-0.07815 0.21492,-0.195385 0.11723,-0.09769 0.29308,-0.254 c 0.0195,-0.03908 0.0977,-0.09769 0.11723,-0.136769 l 0.0391,-0.01954 0.0977,-0.07815 0.23446,-0.254 0.33216,-0.332154 0.31261,-0.234462 0.11723,-0.07815 0.15631,-0.156307 0.31262,-0.312616 0.29307,-0.234461 0.27354,-0.195385 0.27354,-0.293077 0.85969,-0.644769 0.19539,-0.136769 0.0586,-0.03908 0.42985,-0.254 0.68384,-0.410308 0.15631,-0.136769 0.66431,-0.371231 0.23446,-0.156307 0.39077,-0.175847 h 0.0195 l 0.27354,-0.07815 h 0.13677 l -0.0782,0.07815 -0.19538,0.234462 -0.31262,0.371231 -0.37123,0.566615 -0.44938,0.644769 -0.0977,0.117231 -0.0586,0.136769 -0.21492,0.234462 v 0.03908 c -0.0391,0.07815 -0.11724,0.156307 -0.15631,0.234461 l -0.254,0.410308 -0.0586,0.07815 -0.27354,0.547077 -0.0781,0.175846 c 0,0.01954 -0.0391,0.117231 -0.0391,0.156308 -0.13677,0.547076 -0.11723,0.781538 -0.0977,0.898769 0.0586,0.234461 0.19539,0.429846 0.46892,0.429846 h 0.0977 c 0.29307,-0.03908 0.508,-0.136769 0.80107,-0.351692 0.0195,0 0.0977,-0.03908 0.11723,-0.05862 l 0.0195,-0.01954 0.17585,-0.136769 0.13677,-0.07815 0.0977,-0.05862 0.13677,-0.09769 0.0782,-0.05862 0.23446,-0.156308 0.0977,-0.09769 0.37123,-0.293077 0.33215,-0.214923 0.0977,-0.03908 0.27354,-0.234462 0.0586,-0.05861 0.39077,-0.214923 0.13677,-0.05862 0.1563,-0.09769 0.11723,-0.07815 0.15631,-0.136769 c 0.11723,-0.05862 0.254,-0.156308 0.39077,-0.234462 l -0.0781,0.117231 -0.0586,0.117231 -0.17584,0.195385 -0.19539,0.293076 -0.17584,0.214924 -0.13677,0.195384 c -0.0195,0.05862 -0.0586,0.07815 -0.0782,0.136769 l -0.11723,0.351693 c 0,0.05861 -0.0391,0.11723 -0.0391,0.175846 0,0.136769 0,0.332154 0.0391,0.449384 0,0.03908 0.0586,0.09769 0.0977,0.13677 z"
         id="path2585" />
      <path
         d="m 127.10736,56.703304 0.21493,-0.214923 0.13677,-0.195385 c 0.0391,-0.03908 0.0782,-0.136769 0.11723,-0.175846 l 0.13677,-0.136769 0.19538,-0.214923 0.254,-0.273539 0.21492,-0.195384 0.13677,-0.13677 0.29308,-0.273538 c 0.0195,-0.01954 0.0781,-0.07815 0.0977,-0.117231 0.0391,-0.03908 0.0782,-0.03908 0.11723,-0.07815 l 0.31262,-0.234461 0.0586,-0.01954 0.31262,-0.175846 0.254,-0.214923 0.35169,-0.214923 0.0782,-0.03908 0.42984,-0.195385 0.0391,-0.03908 0.23446,-0.117231 0.13677,-0.05862 c 0.29308,-0.156307 0.74246,-0.351692 1.17231,-0.449384 l 0.11723,-0.01954 0.13677,-0.01954 h 0.21492 c 0.0195,0 0.0391,0.01954 0.0782,0.03908 l 0.15631,0.09769 c 0,0.01954 0.0195,0.01954 0.0391,0.03908 l -0.0977,0.273538 -0.0391,0.09769 c 0,0.03908 0,0.03908 -0.0195,0.07815 -0.0195,0.03908 -0.0977,0.11723 -0.11723,0.136769 l -0.80108,0.625231 -0.19538,0.156307 -0.13677,0.07815 c -0.19539,0.09769 -0.46892,0.273539 -0.66431,0.371231 l -0.41031,0.175846 -0.42984,0.234462 -0.42985,0.136769 -0.19538,0.07815 -0.19539,0.05862 -0.21492,0.05861 c -0.19539,0.01954 -0.44939,0.07815 -0.64477,0.09769 -0.0195,0 -0.0586,0.03908 -0.0781,0.03908 -0.31262,0.11723 -0.48847,0.195384 -0.80108,0.566615 l -0.0195,0.156308 0.0195,0.195384 0.254,0.117231 h 0.17585 l 0.33215,-0.01954 0.58615,-0.09769 0.3517,-0.136769 0.52753,-0.234461 0.254,-0.175847 0.56662,-0.273538 0.0977,-0.05861 c 0.44939,-0.234462 0.87923,-0.488462 1.34816,-0.801077 l 0.11723,-0.01954 0.11723,-0.09769 0.60569,-0.371231 0.23446,-0.156308 0.19539,-0.175846 0.23446,-0.175846 0.254,-0.293077 0.0781,-0.254 0.0586,-0.195384 0.0195,-0.214923 -0.0195,-0.07815 -0.0391,-0.214923 c -0.0391,-0.156308 -0.13677,-0.234462 -0.254,-0.332154 l -0.21492,-0.117231 c -0.0391,-0.01954 -0.0977,-0.05862 -0.21493,-0.09769 -0.0781,0 -0.19538,-0.01954 -0.27354,-0.01954 h -0.29307 c -0.0586,0 -0.11723,0.01954 -0.17585,0.01954 h -0.19538 l -0.42985,0.09769 c -0.13677,0.03908 -0.27354,0.117231 -0.58615,0.214923 l -0.254,0.03908 -0.0977,0.01954 -0.17584,0.09769 -0.508,0.254 -0.23446,0.175846 c -0.46893,0.273538 -0.89877,0.605692 -1.30908,0.898769 l -0.0781,0.05862 -0.0391,0.01954 -0.29308,0.156308 -0.15631,0.09769 -0.1563,0.136769 c -0.0195,0.03908 -0.0782,0.07815 -0.0977,0.117231 l -0.0391,0.03908 -0.27354,0.254 -0.17585,0.156308 -0.23446,0.214923 -0.27354,0.195384 -0.35169,0.410308 -0.254,0.293077 -0.21492,0.351692 c -0.0391,0.117231 -0.0977,0.175846 -0.13677,0.293077 l -0.13677,0.254 -0.13677,0.488462 v 0.175846 l -0.0195,0.156307 0.0195,0.293077 0.0586,0.273539 0.0977,0.254 0.27354,0.390769 0.48846,0.234462 0.48846,0.07815 0.37123,-0.03908 0.37123,-0.07815 0.11723,-0.01954 0.33216,-0.09769 c 0.17584,-0.03908 0.31261,-0.05861 0.39076,-0.09769 l 0.11724,-0.03908 0.33215,-0.05862 0.33215,-0.11723 0.31262,-0.09769 0.39077,-0.07815 0.62523,-0.312615 c 0.0977,-0.03908 0.19538,-0.117231 0.29308,-0.156308 0.254,-0.09769 0.52753,-0.195384 0.762,-0.293077 l 0.17584,-0.07815 0.17585,-0.03908 0.48846,-0.195385 0.89877,-0.429846 0.0586,-0.05862 c 0.15631,-0.05861 0.31262,-0.156307 0.46893,-0.234461 l 0.23446,-0.117231 0.74246,-0.332154 c 0.0781,-0.05862 0.21492,-0.11723 0.254,-0.136769 l 0.19538,-0.09769 c 0,0 0.0782,-0.05862 0.11724,-0.07815 l 0.508,-0.254 h 0.0391 l 0.11723,-0.03908 0.0977,-0.07815 0.13676,-0.07815 0.15631,-0.09769 0.41031,-0.234462 0.0391,-0.01954 0.254,-0.175846 0.4103,-0.254 0.11724,-0.07815 0.1563,-0.07815 c 0.13677,-0.07815 0.27354,-0.293077 0.21493,-0.410307 -0.0586,-0.13677 -0.21493,-0.13677 -0.33216,-0.13677 -0.13677,0.01954 -0.19538,0.03908 -0.27354,0.09769 -0.0781,0.03908 -0.0977,0.03908 -0.23446,0.136769 l -0.39077,0.214923 -0.89877,0.547077 -0.11723,0.09769 -0.58615,0.273539 -0.29308,0.09769 -0.19538,0.09769 -0.0782,0.01954 -0.27353,0.136769 -0.78154,0.371231 c -0.27354,0.11723 -0.56662,0.273538 -0.91831,0.429846 l -0.0586,0.01954 -0.6643,0.234462 -0.21493,0.03908 -0.21492,0.09769 -1.15277,0.488462 -0.11723,0.01954 -0.17585,0.09769 -0.70338,0.234462 -0.33215,0.136769 -1.3677,0.312615 -0.29307,0.03908 h -0.254 l -0.27354,-0.07815 c -0.29308,-0.05862 -0.39077,-0.07815 -0.42985,-0.13677 -0.0586,-0.11723 -0.0586,-0.254 -0.0391,-0.312615 0,-0.117231 0.0195,-0.390769 0.0195,-0.527539 l 0.19539,-0.390769 c 0,-0.01954 0,-0.01954 0.0195,-0.01954 z"
         id="path2587" />
      <path
         d="m 136.48581,56.703304 0.21493,-0.214923 0.13676,-0.195385 c 0.0391,-0.03908 0.0782,-0.136769 0.11724,-0.175846 l 0.13676,-0.136769 0.19539,-0.214923 0.254,-0.273539 0.21492,-0.195384 0.13677,-0.13677 0.29308,-0.273538 c 0.0195,-0.01954 0.0781,-0.07815 0.0977,-0.117231 0.0391,-0.03908 0.0781,-0.03908 0.11723,-0.07815 l 0.31262,-0.234461 0.0586,-0.01954 0.31262,-0.175846 0.254,-0.214923 0.35169,-0.214923 0.0781,-0.03908 0.42985,-0.195385 0.0391,-0.03908 0.23446,-0.117231 0.13677,-0.05862 c 0.29307,-0.156307 0.74246,-0.351692 1.17231,-0.449384 l 0.11723,-0.01954 0.13677,-0.01954 h 0.21492 c 0.0195,0 0.0391,0.01954 0.0781,0.03908 l 0.15631,0.09769 c 0,0.01954 0.0195,0.01954 0.0391,0.03908 l -0.0977,0.273538 -0.0391,0.09769 c 0,0.03908 0,0.03908 -0.0195,0.07815 -0.0195,0.03908 -0.0977,0.11723 -0.11723,0.136769 l -0.80108,0.625231 -0.19538,0.156307 -0.13677,0.07815 c -0.19539,0.09769 -0.46893,0.273539 -0.66431,0.371231 l -0.41031,0.175846 -0.42984,0.234462 -0.42985,0.136769 -0.19538,0.07815 -0.19539,0.05862 -0.21492,0.05861 c -0.19539,0.01954 -0.44939,0.07815 -0.64477,0.09769 -0.0195,0 -0.0586,0.03908 -0.0782,0.03908 -0.31261,0.11723 -0.48846,0.195384 -0.80107,0.566615 l -0.0195,0.156308 0.0195,0.195384 0.254,0.117231 h 0.17584 l 0.33216,-0.01954 0.58615,-0.09769 0.35169,-0.136769 0.52754,-0.234461 0.254,-0.175847 0.56662,-0.273538 0.0977,-0.05861 c 0.44938,-0.234462 0.87923,-0.488462 1.34815,-0.801077 l 0.11723,-0.01954 0.11724,-0.09769 0.60569,-0.371231 0.23446,-0.156308 0.19538,-0.175846 0.23447,-0.175846 0.254,-0.293077 0.0781,-0.254 0.0586,-0.195384 0.0195,-0.214923 -0.0195,-0.07815 -0.0391,-0.214923 c -0.0391,-0.156308 -0.13677,-0.234462 -0.254,-0.332154 l -0.21476,-0.11722 c -0.0391,-0.01954 -0.0977,-0.05862 -0.21492,-0.09769 -0.0781,0 -0.19538,-0.01954 -0.27354,-0.01954 h -0.29307 c -0.0586,0 -0.11723,0.01954 -0.17585,0.01954 h -0.19538 l -0.42985,0.09769 c -0.13677,0.03908 -0.27354,0.117231 -0.58615,0.214923 l -0.254,0.03908 -0.0977,0.01954 -0.17584,0.09769 -0.508,0.254 -0.23446,0.175846 c -0.46893,0.273538 -0.89877,0.605692 -1.30908,0.898769 l -0.0782,0.05862 -0.0391,0.01954 -0.29308,0.156308 -0.15631,0.09769 -0.1563,0.136769 c -0.0195,0.03908 -0.0782,0.07815 -0.0977,0.117231 l -0.0391,0.03908 -0.27354,0.254 -0.17585,0.156308 -0.23446,0.214923 -0.27354,0.195384 -0.35169,0.410308 -0.254,0.293077 -0.21492,0.351692 c -0.0391,0.117231 -0.0977,0.175846 -0.13677,0.293077 l -0.13677,0.254 -0.13677,0.488462 v 0.175846 l -0.0195,0.156307 0.0195,0.293077 0.0586,0.273539 0.0977,0.254 0.27353,0.390769 0.48847,0.234462 0.48846,0.07815 0.37123,-0.03908 0.37123,-0.07815 0.11723,-0.01954 0.33215,-0.09769 c 0.17585,-0.03908 0.31262,-0.05861 0.39077,-0.09769 l 0.11723,-0.03908 0.33216,-0.05862 0.33215,-0.11723 0.31262,-0.09769 0.39077,-0.07815 0.62523,-0.312615 c 0.0977,-0.03908 0.19538,-0.117231 0.29307,-0.156308 0.254,-0.09769 0.52754,-0.195384 0.762,-0.293077 l 0.17585,-0.07815 0.17585,-0.03908 0.48846,-0.195385 0.89877,-0.429846 0.0586,-0.05862 c 0.15631,-0.05861 0.31262,-0.156307 0.46893,-0.234461 l 0.23446,-0.117231 0.74246,-0.332154 c 0.0781,-0.05862 0.21492,-0.11723 0.254,-0.136769 l 0.19538,-0.09769 c 0,0 0.0782,-0.05862 0.11723,-0.07815 l 0.508,-0.254 h 0.0391 l 0.11723,-0.03908 0.0977,-0.07815 0.13677,-0.07815 0.15631,-0.09769 0.41031,-0.234462 0.0391,-0.01954 0.254,-0.175846 0.4103,-0.254 0.11723,-0.07815 0.15631,-0.07815 c 0.13677,-0.07815 0.27354,-0.293077 0.21492,-0.410307 -0.0586,-0.13677 -0.21492,-0.13677 -0.33215,-0.13677 -0.13677,0.01954 -0.19538,0.03908 -0.27354,0.09769 -0.0781,0.03908 -0.0977,0.03908 -0.23446,0.136769 l -0.39077,0.214923 -0.89877,0.547077 -0.11723,0.09769 -0.58615,0.273539 -0.29308,0.09769 -0.19538,0.09769 -0.0782,0.01954 -0.27354,0.136769 -0.78153,0.371231 c -0.27354,0.11723 -0.56662,0.273538 -0.91831,0.429846 l -0.0586,0.01954 -0.66431,0.234462 -0.21492,0.03908 -0.21492,0.09769 -1.15277,0.488462 -0.11723,0.01954 -0.17585,0.09769 -0.70338,0.234462 -0.33216,0.136769 -1.36769,0.312615 -0.29308,0.03908 h -0.254 l -0.27353,-0.07815 c -0.29308,-0.05862 -0.39077,-0.07815 -0.42985,-0.13677 -0.0586,-0.11723 -0.0586,-0.254 -0.0391,-0.312615 0,-0.117231 0.0195,-0.390769 0.0195,-0.527539 l 0.19539,-0.390769 c 0,-0.01954 0,-0.01954 0.0195,-0.01954 z"
         id="path2589" />
      <path
         d="m 151.80395,47.109919 h -0.254 l -0.33215,0.05862 -0.0977,-0.01954 -0.0586,0.01954 -0.33215,0.03908 h -0.11723 l -0.13677,0.03908 -0.52754,0.11723 h -0.0586 l -0.13677,0.01954 -0.0586,-0.01954 -0.41031,0.03908 -0.54708,0.07815 -0.0586,0.01954 -0.78154,0.09769 -0.11723,-0.03908 -0.33215,0.01954 -0.31262,0.13677 -0.254,0.03908 c -0.31261,0.05862 -0.48846,0.11723 -0.80108,0.254 l -0.13677,0.05862 c -0.21492,0.09769 -0.254,0.195385 -0.29307,0.273538 l -0.0391,0.175847 0.0195,0.254 0.13677,0.156307 0.11723,0.117231 0.19538,0.07815 0.3517,0.03908 0.4103,-0.07815 0.17585,-0.07815 0.62523,-0.234461 0.17585,-0.05862 0.13677,-0.03908 0.1563,-0.05861 0.99647,-0.254 0.1563,-0.03908 0.508,-0.117231 0.13677,-0.01954 0.17585,-0.01954 0.58615,-0.07815 0.58616,-0.03908 0.23446,-0.03908 h 0.0977 l -0.0195,0.07815 -0.21492,0.214923 -0.0782,0.13677 -0.1563,0.175846 -0.23446,0.293077 -0.21493,0.293077 -0.0391,0.07815 h -0.0586 l -0.27354,0.390769 -0.0977,0.214923 -0.21492,0.214923 -0.11723,0.175846 c -0.0782,0.117231 -0.11724,0.175846 -0.254,0.312615 l -0.3517,0.449385 -0.0977,0.09769 c -0.23446,0.312616 -0.48846,0.703385 -0.72292,1.035539 l -0.17585,0.156307 -0.0586,0.09769 c -0.17585,0.214923 -0.29308,0.390769 -0.41031,0.547077 l -0.19539,0.254 -0.27353,0.273538 -0.11724,0.195385 -0.27353,0.351692 c 0,0.01954 -0.0195,0.01954 -0.0195,0.03908 l -0.15631,0.195385 -0.11723,0.175846 -0.13677,0.214923 -0.11723,0.175846 -0.15631,0.195385 -0.0781,0.09769 -0.11723,0.117231 c 0,0.01954 -0.0195,0.05862 -0.0195,0.09769 l -0.15631,0.175846 -0.15631,0.195385 -0.0782,0.11723 -0.15631,0.175847 -0.0977,0.136769 -0.15631,0.195384 -0.15631,0.234462 -0.0977,0.136769 c -0.0391,0.03908 -0.0586,0.117231 -0.0977,0.156308 l -0.0977,0.117231 -0.11723,0.136769 c 0,0.01954 -0.0391,0.09769 -0.0391,0.136769 l -0.0977,0.136769 -0.21493,0.39077 -0.0781,0.195384 -0.13677,0.175846 -0.0391,0.09769 v 0.05861 l -0.0977,0.136769 c 0,0.03908 -0.0391,0.156308 -0.0391,0.195385 -0.0977,0.293077 -0.1563,0.468923 -0.17584,0.605692 0,0.01954 -0.0195,0.09769 -0.0195,0.136769 v 0.234462 l 0.0391,0.175846 0.0977,0.214923 0.23446,0.09769 0.11723,0.01954 0.13677,0.03908 0.0977,0.01954 0.254,-0.01954 0.72293,-0.214923 0.508,-0.175846 0.31261,-0.156308 0.19539,-0.03908 0.35169,-0.234461 0.31261,-0.117231 0.19539,-0.117231 h 0.0586 l 0.21493,-0.175846 0.19538,-0.09769 0.39077,-0.214924 0.11723,-0.05862 c 0,0 0.0586,-0.03908 0.0782,-0.03908 l 0.1563,-0.01954 0.0977,-0.03908 0.1563,-0.05862 0.11723,-0.01954 c 0.0195,-0.01954 0.0782,-0.03908 0.11723,-0.07815 0.0195,-0.01954 0.0782,-0.07815 0.11724,-0.09769 h 0.0195 l 0.23447,-0.07815 0.13676,-0.03908 0.254,-0.214923 0.48847,-0.195385 0.13677,-0.09769 0.27353,-0.156308 0.0391,-0.03908 0.13677,-0.07815 0.27354,-0.13677 0.17584,-0.03908 0.21493,-0.09769 0.31261,-0.175846 0.21493,-0.136769 0.1563,-0.07815 0.0195,-0.01954 0.52754,-0.351692 0.0391,-0.03908 0.11723,-0.05862 0.19538,-0.117231 0.0195,-0.156308 -0.0195,-0.175846 -0.11723,-0.09769 -0.23446,0.01954 -0.13677,0.07815 -0.0391,0.01954 -0.0586,0.01954 -0.0977,0.03908 -0.31262,0.175846 -0.11723,0.09769 -0.0586,0.01954 -0.508,0.273538 -0.27354,0.09769 -0.23446,0.07815 -0.31262,0.195384 -0.0781,0.09769 -0.27354,0.117231 -0.21493,0.07815 -0.13676,0.05861 -0.23447,0.13677 -0.87923,0.410307 -0.0782,0.01954 -0.23446,0.136769 -0.56662,0.254 -0.0781,0.03908 -0.17585,0.03908 -0.19538,0.117231 -0.37123,0.175846 -0.508,0.254 h -0.11723 l -0.0977,0.05861 -0.17584,0.05862 -0.13677,0.01954 -0.15631,0.09769 -0.15631,0.05862 -0.1563,0.05862 -0.15631,0.09769 -0.15631,0.03908 -0.13677,0.03908 -0.35169,0.07815 h -0.0195 l 0.0195,-0.175846 c 0,-0.07815 0.0781,-0.195385 0.0781,-0.273538 l 0.15631,-0.254 0.0195,-0.13677 v -0.09769 l 0.13677,-0.273538 0.21492,-0.410308 0.19539,-0.273539 c 0.0391,-0.11723 0.0977,-0.195384 0.13676,-0.312615 l 0.21493,-0.390769 0.0782,-0.117231 0.31262,-0.410308 c 0.0586,-0.09769 0.0782,-0.05861 0.11723,-0.156307 l 0.35169,-0.488462 0.35169,-0.527538 0.508,-0.625231 0.254,-0.293077 0.42985,-0.547077 0.0781,-0.175846 0.0391,-0.05861 0.13677,-0.175847 0.13677,-0.136769 0.13677,-0.156308 0.11723,-0.136769 0.11723,-0.214923 c 0.0391,-0.05862 0.0781,-0.136769 0.11723,-0.175846 l 0.11723,-0.117231 0.0586,-0.117231 0.37123,-0.468923 0.13677,-0.175846 0.62523,-0.820615 0.37123,-0.410308 0.17584,-0.234461 0.29308,-0.429846 0.31262,-0.351693 c 0,0 0.0195,-0.05862 0.0195,-0.07815 0.0977,-0.136769 0.17585,-0.214923 0.29308,-0.351692 l 0.11723,-0.07815 0.0586,-0.136769 0.254,-0.332154 0.17584,-0.214923 0.70339,-0.136769 0.23446,-0.01954 0.56661,-0.01954 0.15631,-0.05862 0.0782,-0.01954 c 0.62523,-0.01954 1.25046,-0.01954 1.87569,-0.01954 h 0.13677 c 0.0586,0 0.11723,0.01954 0.17584,0.01954 l 0.0586,0.01954 0.0782,-0.01954 c 0.13677,0 0.29308,0 0.44939,0.01954 l 0.254,0.03908 h 0.17584 c 0.0391,0 0.0977,0.01954 0.15631,0.01954 l 0.35169,0.05861 0.15631,-0.01954 h 0.19539 c 0.0195,0 0.0782,0.01954 0.11723,0.01954 l 0.33215,0.05862 c 0.0977,0 0.254,0.03908 0.37123,0.03908 0.23446,0.03908 0.42985,0.05862 0.64477,0.11723 l 0.29308,0.07815 0.23446,0.117231 0.17585,0.03908 c 0.0977,0 0.254,0.03908 0.35169,0.03908 l 0.29307,0.117231 c 0.0782,0.11723 0.23447,0.156307 0.27354,0.156307 l 0.11723,0.03908 0.19539,0.117231 c 0,0 0.0195,0.01954 0.0391,0.01954 0,0 0.0977,0.05862 0.1563,0.07815 l 0.29308,0.214923 h 0.0195 l 0.17584,0.156308 0.15631,0.195385 0.13677,0.234461 0.11723,0.293077 c 0.0391,0.05862 0.11723,0.234462 0.15631,0.332154 0,0.03908 0.0195,0.09769 0.0195,0.136769 l 0.0586,0.332154 0.0977,0.117231 0.13677,0.03908 0.0977,-0.13677 0.13677,-0.332153 V 50.23607 l -0.0586,-0.175846 -0.0977,-0.371231 -0.0781,-0.175846 -0.13677,-0.234461 -0.0195,-0.01954 -0.23446,-0.332154 c -0.0195,0 -0.0391,-0.01954 -0.0782,-0.01954 l -0.0586,-0.05862 -0.17585,-0.156307 -0.15631,-0.195385 h -0.13677 l -0.11723,-0.07815 -0.0781,-0.136769 -0.27354,-0.136769 -0.13677,-0.01954 c 0.0195,0 0,-0.01954 -0.0195,-0.03908 -0.0195,0 -0.0195,0 -0.0586,-0.01954 l -0.39077,-0.156308 c -0.0195,0 -0.0586,-0.01954 -0.0782,-0.03908 l -0.6643,-0.273538 c -0.0782,-0.01954 -0.0782,0 -0.0782,0 l -0.11723,-0.09769 c -0.0195,0 -0.0586,-0.01954 -0.0977,-0.01954 l -0.39077,-0.03908 -0.15631,-0.09769 h -0.31261 c -0.0195,0 -0.0977,-0.01954 -0.11723,-0.03908 l -0.52754,-0.136769 -0.19539,-0.01954 c -0.0195,0 -0.0781,-0.01954 -0.0977,-0.01954 l -0.23446,-0.05862 -0.21492,-0.01954 h -0.13677 c -0.0977,0 -0.19539,0.03908 -0.29308,0.03908 l -0.27354,-0.05862 -0.21492,0.03908 c -0.0391,0 -0.17585,-0.01954 -0.21492,-0.03908 l -0.254,-0.05862 h -0.13677 l -0.17585,-0.05861 h -0.54708 l -0.56661,0.05861 -0.72292,-0.01954 -0.58616,0.05862 -0.31261,0.01954 -0.19539,0.01954 0.17585,-0.214923 0.72292,-0.820616 0.42985,-0.429846 0.19538,-0.234461 0.27354,-0.214923 0.11723,-0.156308 0.17585,-0.195385 0.13677,-0.175846 0.19538,-0.156307 0.11723,-0.156308 -0.0195,-0.293077 -0.0586,-0.175846 -0.21493,-0.214923 -0.17584,-0.01954 -0.21492,0.03908 -0.21493,0.214923 -0.19538,0.234462 -0.0782,0.07815 -0.0977,0.07815 -0.15631,0.175846 -0.21492,0.195384 -0.0977,0.156308 v 0.01954 l -0.0977,0.13677 -0.0586,0.05861 -0.0781,0.09769 -0.13677,0.13677 c 0,0 -0.0195,0.03908 -0.0195,0.05862 l -0.0586,0.05861 -0.21492,0.293077 -0.0781,0.09769 -0.21493,0.234461 -0.23446,0.312615 -0.0586,0.07815 -0.52754,0.722923 -0.0195,0.05862 -0.254,-0.03908 z"
         id="path2591" />
      <path
         d="m 169.99428,54.690842 -0.13677,0.09769 -0.17585,0.07815 -0.11723,0.09769 -1.21138,0.664307 -0.0391,0.01954 -0.17585,0.07815 -0.11723,0.01954 -0.31261,0.214923 -0.0586,0.01954 -0.13677,0.03908 -0.23446,0.09769 -0.56662,0.312615 -0.0391,0.01954 -0.15631,0.01954 -0.13677,0.07815 c -0.0195,0.01954 -0.17585,0.05862 -0.21492,0.07815 l -0.17585,0.05862 c -0.46892,0.13677 -0.80108,0.156308 -0.84015,0.01954 -0.0195,-0.09769 0.0195,-0.273539 0.0977,-0.410308 v -0.01954 l 0.0781,-0.175847 0.0391,-0.09769 c 0,-0.01954 0.0195,-0.07815 0.0391,-0.117231 l 0.0586,-0.11723 0.15631,-0.273539 c 0,-0.03908 0.13677,-0.175846 0.21492,-0.273538 0.0586,-0.05862 0.11723,-0.175846 0.17585,-0.254 l 0.13677,-0.156308 0.56661,-0.703385 0.19539,-0.175846 0.29308,-0.312615 0.13677,-0.175846 0.23446,-0.214923 0.19538,-0.273539 c 0.0977,-0.214923 0.11723,-0.312615 0.11723,-0.410307 0,-0.195385 -0.11723,-0.293077 -0.33215,-0.293077 -0.0977,0 -0.33216,0.01954 -0.48846,0.136769 l -0.254,0.234461 -0.27354,0.273539 -0.23446,0.371231 -0.33216,0.429846 -0.1563,0.195384 -0.15631,0.273539 -0.19539,0.351692 -0.0586,0.07815 c -0.0977,0.117231 -0.15631,0.254 -0.21493,0.390769 -0.0195,0.07815 -0.0391,0.136769 -0.0977,0.214923 l -0.0782,0.156308 -0.17585,0.371231 c -0.23446,0.527538 -0.29307,0.918307 -0.23446,1.191846 0,0.05861 0.11723,0.195384 0.11723,0.195384 l 0.0977,0.214924 0.17585,0.175846 0.13677,0.03908 h 0.17585 l 0.29307,-0.01954 0.17585,-0.03908 0.41031,-0.156307 0.33215,-0.117231 h 0.0195 l 0.15631,-0.01954 0.0781,-0.07815 0.27354,-0.09769 0.37123,-0.09769 0.15631,-0.09769 c 0.0195,-0.01954 0.0782,-0.03908 0.11723,-0.07815 l 0.15631,-0.09769 0.1563,-0.05862 0.13677,-0.07815 h 0.0391 l 0.15631,-0.09769 0.11723,-0.05862 0.0586,-0.05861 c 0.11723,-0.05862 0.19539,-0.136769 0.31262,-0.195385 l 0.0977,-0.01954 0.27354,-0.156308 0.15631,-0.05862 0.39077,-0.234462 0.0977,-0.01954 c 0.11723,-0.05861 0.27354,-0.175846 0.39077,-0.234462 l 0.0391,-0.01954 c 0.11724,-0.03908 0.23447,-0.117231 0.3517,-0.156308 l 0.0782,-0.03908 0.0977,-0.11723 0.11723,-0.03908 0.15631,-0.117231 0.42985,-0.175846 c 0.0195,-0.01954 0.0195,-0.01954 0.0391,-0.01954 0.0586,-0.01954 0.11724,-0.07815 0.17585,-0.09769 l 0.0195,-0.01954 1.23092,-0.605693 0.27354,-0.136769 c 0.29308,-0.136769 0.66431,-0.293077 0.97692,-0.410308 l 0.48847,-0.156307 0.1563,-0.01954 0.13677,0.03908 0.0586,0.01954 0.0195,0.09769 0.0195,0.136769 c 0,0.09769 0.0195,0.195385 0.0195,0.273539 l -0.0586,0.351692 -0.0391,0.195384 c -0.0391,0.07815 -0.13677,0.273539 -0.11723,0.254 l -0.23446,0.312616 -0.29308,0.488461 -0.48846,0.683846 -0.11723,0.234462 -0.13677,0.175846 -0.46892,0.781539 -0.54708,0.762 -0.19538,0.293077 -0.39077,0.566615 -0.3517,0.547077 -0.0391,0.07815 -0.42985,0.566615 -0.254,0.312615 -0.15631,0.214923 -0.0586,0.09769 -0.0391,0.03908 -0.0586,0.01954 -0.29308,0.410308 -0.0586,0.05861 -0.254,0.234462 c 0,0.01954 0,0.05862 -0.0195,0.117231 l -0.99646,1.250461 -0.0977,0.09769 -0.21492,0.254 -0.0782,0.156308 -0.0586,0.07815 -0.0977,0.09769 -0.0977,0.156308 c -0.0391,0.03908 -0.0586,0.117231 -0.0977,0.156308 l -0.15631,0.156307 c 0,0.01954 0,0.03908 -0.0195,0.07815 l -0.0782,0.07815 -0.21492,0.312615 -0.54708,0.762 c 0,0.01954 -0.0195,0.03908 -0.0195,0.03908 l -0.0586,0.09769 -0.17585,0.195384 c -0.0195,0.05862 -0.0781,0.117231 -0.0977,0.175846 l -0.13677,0.214923 -0.15631,0.234462 -0.0195,0.01954 -0.21492,0.332154 -0.0977,0.136769 -0.0782,0.175847 c -0.254,0.410307 -0.48846,0.859692 -0.72292,1.289538 l -0.0195,0.03908 -0.17584,0.371231 -0.13677,0.214923 -0.11723,0.195384 -0.15631,0.508 c -0.0586,0.117231 -0.0977,0.254 -0.13677,0.39077 -0.13677,0.410307 -0.31262,0.820615 -0.37123,1.13323 l -0.0977,0.175847 c 0,0.01954 -0.0195,0.07815 -0.0195,0.11723 l -0.0586,0.273539 v 0.09769 l -0.0781,0.273539 c 0,0.01954 -0.0195,0.03908 -0.0195,0.05862 -0.0391,0.117231 -0.0781,0.293077 -0.0977,0.449385 l -0.0391,0.07815 v 0.07815 l -0.0391,0.117231 v 0.05862 l -0.0586,0.254 v 0.195385 l 0.0195,0.332154 0.0195,0.09769 v 0.117231 l 0.0391,0.429846 0.0586,0.156308 0.13677,0.293077 0.23446,0.03908 0.35169,-0.39077 0.0195,-0.390769 0.0391,-0.136769 v -0.175846 l -0.0391,-0.312616 -0.0586,-0.234461 -0.0195,-0.312616 0.0195,-0.351692 c 0,-0.01954 0.0195,-0.09769 0.0195,-0.136769 l 0.0586,-0.05862 0.0195,-0.175847 c 0,-0.01954 0.0195,-0.05862 0.0195,-0.07815 l 0.0781,-0.234462 0.0195,-0.05862 0.0781,-0.214923 c 0,-0.01954 0.0195,-0.07815 0.0195,-0.117231 l 0.0586,-0.351693 0.0586,-0.234461 0.0195,-0.05862 0.0195,-0.117231 0.0195,-0.05862 0.0195,-0.05862 0.13677,-0.371231 0.0782,-0.175846 0.19538,-0.429846 0.254,-0.527538 0.23446,-0.410308 0.37123,-0.820616 0.11724,-0.05862 c 0,-0.03908 0.0391,-0.156308 0.0391,-0.214923 l 0.11723,-0.117231 c 0,-0.05861 0.0195,-0.136769 0.0195,-0.195384 0.31262,-0.508 0.58616,-0.957385 0.82062,-1.289539 l 0.21492,-0.195384 0.0977,-0.214924 0.31262,-0.449384 0.0781,-0.07815 0.15631,-0.195385 0.17585,-0.273538 v -0.03908 c 0.0391,-0.05862 0.13676,-0.156308 0.19538,-0.214923 l 0.27354,-0.293077 0.21492,-0.254 0.21492,-0.195385 0.15631,-0.214923 0.31262,-0.312615 0.60569,-0.801077 0.17585,-0.195385 0.17584,-0.254 c 0,-0.03908 0.0391,-0.07815 0.0391,-0.11723 l 0.254,-0.332154 0.29308,-0.175846 c 0,-0.01954 0.0195,-0.09769 0.0195,-0.13677 l 0.0782,-0.09769 c 0.0195,-0.03908 0.0781,-0.07815 0.0977,-0.117231 l 0.17585,-0.234461 c 0,-0.01954 0.0195,-0.03908 0.0195,-0.05862 l 0.13676,-0.09769 0.0782,-0.195384 0.0977,-0.156308 0.0391,-0.03908 0.27354,-0.351692 0.19538,-0.312616 h 0.0195 l 0.60569,-0.859692 0.0782,-0.07815 0.0781,-0.117231 0.13677,-0.254 0.17584,-0.234461 0.23447,-0.214923 v -0.05862 l 0.0391,-0.03908 0.0977,-0.195384 v -0.01954 l 0.1563,-0.254 0.0195,-0.05862 0.11723,-0.175846 0.0977,-0.117231 c 0.13677,-0.234461 0.23447,-0.351692 0.37124,-0.586154 l 0.0781,-0.09769 0.15631,-0.293077 0.11723,-0.117231 0.0781,-0.175846 0.0977,-0.156308 0.13677,-0.234461 0.11723,-0.195385 0.17585,-0.234461 0.13677,-0.234462 0.0977,-0.332154 0.13677,-0.449384 0.0195,-0.234462 -0.0195,-0.449384 c -0.0586,-0.293077 -0.29308,-0.449385 -0.66431,-0.468923 -0.0586,0 -0.17584,0 -0.23446,0.01954 h -0.15631 l -0.27353,0.07815 -0.0977,0.01954 -0.1563,0.05862 -0.23447,0.09769 -0.1563,0.05862 -0.254,0.09769 -0.31262,0.136769 c -0.0586,0.03908 -0.11723,0.05861 -0.13677,0.05861 l -0.23446,0.117231 -0.0586,0.01954 -0.13676,0.03908 -0.3517,0.214924 c 0,0 -0.0391,0.01954 -0.0586,0.01954 l -0.13677,0.09769 -0.48846,0.195385 -0.0977,0.01954 -0.17584,0.09769 -0.29308,0.175846 -0.44938,0.234461 -0.0977,0.01954 -0.11723,0.09769 -0.0977,0.01954 -0.11723,0.03908 -0.0977,0.09769 -0.42985,0.234461 z"
         id="path2593" />
      <path
         d="m 182.98735,55.218381 0.0195,-0.39077 -0.0977,-0.234461 -0.0781,-0.175846 -0.31262,-0.332154 -0.1563,-0.09769 -0.0391,-0.01954 -0.0977,-0.07815 0.13677,-0.05861 0.54707,-0.07815 0.39077,-0.05862 0.37123,0.01954 0.0782,-0.05861 0.1563,-0.03908 c 0.6057,-0.09769 1.21139,-0.175846 2.07108,-0.234462 0.0977,0 0.17585,0 0.23446,-0.01954 0.0782,-0.01954 0.15631,-0.03908 0.254,-0.03908 l 0.23446,-0.01954 h 0.29308 c 0.29308,0 0.82062,0 1.25046,0.09769 l 0.29308,0.07815 0.13677,0.09769 0.15631,0.07815 v 0.05861 l -0.0782,0.254 -0.13677,0.234462 -0.0781,0.156307 -0.0391,0.13677 -0.0195,0.09769 0.0195,0.234461 0.11723,0.01954 0.23446,-0.05861 0.11724,-0.117231 c 0.0586,-0.05862 0.0977,-0.09769 0.17584,-0.234462 l 0.17585,-0.273538 0.0977,-0.195385 0.0391,-0.195384 -0.0195,-0.234462 -0.0782,-0.156308 -0.254,-0.254 c -0.0195,0 -0.0391,0 -0.0781,-0.01954 -0.0391,-0.03908 -0.0391,-0.07815 -0.21492,-0.117231 h 0.0195 l -0.17585,-0.09769 h -0.0782 l -0.0391,-0.01954 c -0.254,-0.07815 -0.44939,-0.136769 -0.60569,-0.156307 l -0.0977,-0.01954 -0.1563,-0.01954 h -0.0586 l -0.13677,-0.03908 -0.19538,0.01954 -0.21493,-0.01954 h -0.13676 l -0.11724,0.01954 h -0.11723 l -0.0781,-0.01954 -0.11723,0.03908 c -0.0586,0 -0.11723,0.01954 -0.17585,0.01954 h -0.19538 c -0.0782,0.01954 -0.15631,0.01954 -0.21492,0.01954 l -0.254,-0.01954 -0.15631,0.01954 h -0.39077 l -0.19539,0.01954 -0.1563,0.01954 -0.31262,0.09769 -0.29308,0.01954 -0.23446,0.05862 -0.46892,0.07815 c -0.0586,-0.03908 -0.15631,-0.09769 -0.23446,-0.117231 l -0.0977,-0.03908 h -0.11724 c -0.13676,-0.01954 -0.33215,0 -0.44938,0.01954 l -0.15631,0.01954 -0.17584,0.01954 -0.15631,0.07815 h -0.0195 l -0.15631,0.07815 -0.23446,0.156308 c -0.0195,0.01954 -0.0977,0.03908 -0.13677,0.05861 l -0.27354,0.03908 -0.0782,-0.01954 -0.37123,0.05861 -0.29308,-0.01954 h -0.29308 c -0.27353,-0.03908 -0.508,-0.05862 -0.78153,-0.05862 l -0.33216,-0.05861 -0.13677,-0.05862 -0.254,0.01954 -0.23446,0.03908 -0.254,0.09769 -0.19538,0.332154 -0.0195,0.234461 0.15631,0.195385 0.1563,0.09769 0.23447,0.05862 0.48846,-0.01954 c 0.17584,0 0.35169,-0.01954 0.48846,-0.03908 0.0586,0 0.0977,-0.01954 0.13677,-0.01954 h 0.29307 l -0.0977,0.05862 -0.0977,0.05862 -0.39077,0.273538 -0.254,0.156308 -0.21492,0.136769 -0.19539,0.136769 h -0.0586 l -0.13677,0.136769 -0.46892,0.351693 -0.0977,0.07815 -0.21492,0.175846 c -0.0391,0.01954 -0.0977,0.07815 -0.11723,0.09769 l -0.0195,0.01954 -0.42985,0.312616 -0.0782,0.07815 -0.19538,0.156307 -0.23447,0.214923 -0.70338,0.703385 -0.17585,0.254 -0.13677,0.234462 -0.0782,0.390769 0.0195,0.175846 0.0586,0.156308 c 0.0391,0.136769 0.29308,0.351692 0.48847,0.449384 l 0.0391,0.01954 c 0.21493,0.09769 0.33216,0.117231 0.42985,0.136769 0.11723,0.01954 0.27354,0.03908 0.44938,0.03908 l 0.37123,0.01954 h 0.13677 l 0.27354,-0.03908 0.11723,-0.01954 0.0586,-0.05861 c 0.19538,-0.03908 0.41031,-0.13677 0.762,-0.273539 l 0.0586,-0.01954 c 0.0195,0 0.0586,-0.03908 0.0782,-0.05862 l 0.0781,-0.01954 0.13677,-0.03908 0.21492,-0.05862 0.0586,-0.01954 0.17585,-0.07815 c 0,0 0.0586,-0.05861 0.0781,-0.09769 l 0.11723,-0.01954 0.13677,-0.136769 0.17585,-0.117231 0.0586,-0.03908 0.11723,-0.03908 0.254,-0.175847 0.0391,-0.01954 c 0.44938,-0.273538 0.87923,-0.547077 1.21138,-0.859692 l 0.19539,-0.156308 0.17584,-0.195385 0.17585,-0.175846 0.21492,-0.156307 0.19539,-0.273539 c 0.0391,-0.07815 0.0781,-0.214923 0.0977,-0.273538 0.15631,-0.371231 0.15631,-0.429847 0.17585,-0.508 z m -1.27,0.683846 -0.13677,0.136769 c 0,0 -0.0195,0.03908 -0.0195,0.05862 l -0.17585,0.175847 -0.19538,0.175846 -0.0586,0.07815 c -0.15631,0.136769 -0.31261,0.293077 -0.46892,0.410307 l -0.0977,0.07815 -0.54708,0.371231 h -0.13677 l -0.37123,0.293077 -0.35169,0.175846 -0.0391,0.01954 c -0.254,0.09769 -0.54708,0.214924 -0.85969,0.312616 -0.62523,0.214923 -0.762,0.273538 -1.36769,0.234461 h -0.0391 l -0.0977,-0.05862 -0.11723,-0.117231 v -0.117231 l 0.0195,-0.05861 0.0195,-0.156308 0.0391,-0.09769 c 0,0 0,-0.03908 0.0195,-0.05862 0.0586,-0.13677 0.15631,-0.293077 0.254,-0.429846 l 0.15631,-0.175847 0.17584,-0.234461 c 0.0195,-0.03908 0.13677,-0.156308 0.17585,-0.195385 l 0.254,-0.195384 0.13677,-0.117231 0.21492,-0.136769 0.21492,-0.195385 0.254,-0.175846 0.11723,-0.09769 c 0.13677,-0.07815 0.27354,-0.195385 0.41031,-0.273539 l 0.0977,-0.05862 0.23447,-0.156308 0.54707,-0.332154 c 0.62523,-0.332154 0.91831,-0.547077 1.13323,-0.683846 l 0.13677,-0.09769 c 0.0195,0.01954 0.0586,0.01954 0.0586,0.01954 l 0.23446,0.136769 0.11723,0.03908 0.11723,0.03908 0.15631,0.09769 0.13677,0.09769 0.0195,0.01954 c 0,0.01954 0.0781,0.156308 0.0977,0.195385 0,0.07815 -0.0195,0.117231 -0.0195,0.175846 l -0.0781,0.214923 v 0.117231 c -0.0782,0.156308 -0.15631,0.312615 -0.31262,0.508 z"
         id="path2595" />
      <path
         d="m 193.6944,58.051458 c 0,0.01954 -0.0195,0.07815 -0.0195,0.09769 -0.0391,0.117231 -0.0195,0.254 0.0391,0.371231 l 0.0195,0.07815 0.23446,0.254 c 0.0391,0 0.11723,0.01954 0.13677,0.01954 h 0.0391 c 0.0977,0.01954 0.27354,0 0.41031,-0.01954 0.0586,0 0.11723,-0.01954 0.19538,-0.01954 h 0.19538 l 0.254,-0.05862 0.23447,-0.03908 c 0.0391,0 0.0977,0 0.13677,-0.01954 l 0.13676,-0.01954 0.21493,-0.01954 0.254,-0.07815 0.0781,-0.01954 0.21492,-0.01954 0.66431,-0.214923 0.254,-0.05862 0.19539,-0.05862 0.29307,-0.01954 0.0586,-0.01954 0.13677,-0.01954 0.19538,-0.175846 0.0195,-0.156307 -0.0586,-0.13677 -0.27354,-0.03908 -0.13677,0.01954 c -0.0391,0 -0.0586,0 -0.0977,0.01954 l -0.17585,0.01954 -0.254,0.01954 -0.13677,0.03908 -0.46892,0.07815 -0.11723,-0.01954 -0.27354,0.07815 -0.0977,0.01954 c -0.0391,0 -0.0977,0.01954 -0.13677,0.01954 -0.21493,0.03908 -0.39077,0.05862 -0.54708,0.05862 h -0.13677 l -0.11723,-0.01954 h -0.15631 c -0.0586,0 -0.11723,-0.01954 -0.17584,-0.01954 -0.15631,-0.01954 -0.23447,-0.05862 -0.29308,-0.117231 v -0.03908 c 0,-0.05862 0.0195,-0.156308 0.0586,-0.273538 l 0.0977,-0.09769 0.0977,-0.175846 c 0,-0.01954 0.0195,-0.07815 0.0195,-0.117231 l 0.0781,-0.175846 c 0,-0.01954 0.0195,-0.05861 0.0195,-0.09769 l 0.15631,-0.234462 v -0.03908 l 0.13677,-0.156307 0.0781,-0.175846 0.0781,-0.195385 0.19539,-0.293077 c 0,0 0.0195,-0.09769 0.0391,-0.136769 l 0.13677,-0.254 0.29307,-0.390769 0.0586,-0.13677 0.0391,-0.136769 v -0.117231 l -0.0781,-0.156307 -0.13677,-0.136769 c -0.11723,-0.05862 -0.254,-0.07815 -0.33215,-0.07815 l -0.0977,0.01954 -0.17585,0.03908 -0.15631,0.07815 -0.44938,0.234461 -0.0977,0.07815 -0.0781,0.03908 -0.60569,0.234462 -0.0977,0.05861 -0.0586,0.03908 -0.254,0.09769 -0.11723,0.07815 -0.21492,0.117231 -0.23446,0.234461 -0.23447,0.13677 -0.21492,0.156307 -0.58615,0.332154 -0.33216,0.156308 -0.1563,0.136769 c -0.0391,0.03908 -0.0782,0.03908 -0.11724,0.07815 l -0.42984,0.273538 h -0.0195 l -0.0977,0.01954 -0.48846,0.234461 -0.29308,0.234462 -0.11723,0.05862 -0.0977,0.03908 -0.21493,0.09769 c -0.0391,0.01954 -0.0782,0.07815 -0.11723,0.09769 l -0.80107,0.371231 -0.11724,0.05862 -0.13676,0.03908 -0.33216,0.136769 -0.33215,0.117231 c -0.0391,0.01954 -0.21493,0.07815 -0.39077,0.117231 -0.17585,0.05861 -0.31262,0.07815 -0.39077,0.07815 h -0.0781 c -0.0195,-0.03908 0,0 0,-0.05862 0,-0.03908 0,-0.03908 0.0195,-0.05861 l 0.0977,-0.234462 0.0586,-0.136769 0.0977,-0.293077 0.0782,-0.136769 0.19538,-0.273539 c 0.0782,-0.136769 0.17585,-0.273538 0.27354,-0.410307 l 0.17585,-0.234462 0.39077,-0.527538 0.0391,-0.03908 0.11723,-0.09769 0.11723,-0.13677 0.0977,-0.09769 0.11723,-0.136769 0.19538,-0.195385 0.13677,-0.175846 0.17585,-0.234462 0.15631,-0.293076 0.11723,-0.195385 0.0586,-0.234462 v -0.390769 c -0.0195,-0.175846 -0.0781,-0.312615 -0.13677,-0.410307 l -0.17584,-0.156308 -0.11723,-0.01954 -0.15631,0.01954 -0.23446,0.09769 -0.23447,0.332154 -0.0977,0.254 -0.0586,0.254 -0.0195,0.175846 c 0,0.05862 -0.0391,0.117231 -0.0391,0.136769 l -0.0781,0.214923 -0.0391,0.07815 -0.0781,0.117231 -0.21493,0.312615 -0.0977,0.156308 -0.0977,0.156308 -0.15631,0.214923 -0.13677,0.156308 -0.17584,0.293076 -0.0977,0.13677 -0.11723,0.156307 -0.0586,0.156308 -0.23446,0.410308 -0.15631,0.175846 -0.13677,0.214923 v 0.01954 l -0.0586,0.156308 -0.0977,0.117231 -0.0781,0.273538 -0.0782,0.254 v 0.156308 c 0,0.136769 0,0.254 0.13677,0.449385 0.0782,0.07815 0.0977,0.11723 0.39077,0.214923 l 0.23446,0.07815 0.58616,0.05862 0.13677,-0.01954 0.17584,-0.03908 0.11723,-0.03908 0.44939,-0.09769 0.19538,-0.09769 0.0586,-0.05861 0.11723,-0.07815 0.0586,-0.01954 0.13677,-0.01954 0.15631,-0.175846 h 0.0391 l 0.0977,-0.03908 0.27354,-0.156308 0.17585,-0.07815 0.0586,-0.03908 0.13677,-0.156307 0.0391,-0.01954 0.762,-0.429846 0.254,-0.117231 0.56661,-0.312615 0.13677,-0.117231 0.0782,-0.05862 1.13323,-0.664308 0.11723,-0.05862 0.35169,-0.214923 0.46892,-0.234462 0.13677,-0.09769 0.13677,-0.03908 0.0977,-0.03908 0.64477,-0.214923 -0.0781,0.136769 c 0,0.03908 -0.0195,0.07815 -0.0195,0.09769 l -0.0977,0.175847 c -0.0391,0.11723 -0.0977,0.175846 -0.11723,0.234461 l -0.0586,0.07815 c 0,0.01954 0,0.03908 -0.0195,0.07815 -0.0586,0.09769 -0.1563,0.254 -0.19538,0.332154 l -0.19539,0.351692 c -0.0195,0.03908 -0.0391,0.05861 -0.0391,0.09769 l -0.0782,0.136769 v 0.03908 c -0.0977,0.214923 -0.13677,0.351693 -0.17584,0.410308 z"
         id="path2597" />
      <path
         d="m 201.66608,58.442227 c 0,0 0.0586,-0.03908 0.13677,-0.05862 0.15631,-0.05862 0.3517,-0.136769 0.41031,-0.234461 l 0.0391,-0.01954 0.0781,-0.11723 c 0.0977,-0.13677 0.0977,-0.175846 0.11723,-0.214923 l 0.0586,-0.09769 v -0.11723 c 0.0195,-0.13677 -0.0391,-0.273539 -0.0977,-0.351693 l -0.15631,-0.156307 c -0.23446,-0.05862 -0.508,-0.03908 -0.85969,0.03908 -0.17585,0.05862 -0.27354,0.13677 -0.42985,0.254 -0.15631,0.13677 -0.254,0.234462 -0.31262,0.39077 -0.0195,0.05862 -0.0781,0.11723 -0.0977,0.156307 -0.11723,0.195385 -0.29307,0.410308 -0.13677,0.605693 l 0.11723,0.07815 c 0.0586,0.05862 0.11723,0.09769 0.23447,0.136769 0.13676,0.05862 0.17584,-0.01954 0.27353,-0.03908 0.0586,-0.01954 0.13677,-0.03908 0.17585,-0.03908 z"
         id="path2599" />
    </g>
  </g>
</svg>
